<svg width="61" height="89" viewBox="0 0 61 89" fill="none" xmlns="http://www.w3.org/2000/svg">
<path d="M0.240059 73.08C2.96006 70.92 4.20006 69.92 3.96006 70.08C11.8001 63.6 17.9601 58.28 22.4401 54.12C27.0001 49.96 30.8401 45.6 33.9601 41.04C37.0801 36.48 38.6401 32.04 38.6401 27.72C38.6401 24.44 37.8801 21.88 36.3601 20.04C34.8401 18.2 32.5601 17.28 29.5201 17.28C26.4801 17.28 24.0801 18.44 22.3201 20.76C20.6401 23 19.8001 26.2 19.8001 30.36H5.8651e-05C0.160059 23.56 1.60006 17.88 4.32006 13.32C7.12006 8.76002 10.7601 5.40002 15.2401 3.24001C19.8001 1.08001 24.8401 1.33514e-05 30.3601 1.33514e-05C39.8801 1.33514e-05 47.0401 2.44001 51.8401 7.32001C56.7201 12.2 59.1601 18.56 59.1601 26.4C59.1601 34.96 56.2401 42.92 50.4001 50.28C44.5601 57.56 37.1201 64.68 28.0801 71.64H60.4801V88.32H0.240059V73.08Z" fill="#BDFBBC"/>
</svg>
