<svg width="61" height="91" viewBox="0 0 61 91" fill="none" xmlns="http://www.w3.org/2000/svg">
<path d="M1.07996 26.7599C1.39996 18.1999 4.19996 11.5999 9.47996 6.95989C14.76 2.31989 21.92 -0.000112057 30.96 -0.000112057C36.96 -0.000112057 42.08 1.03989 46.32 3.11989C50.64 5.19989 53.88 8.03989 56.04 11.6399C58.28 15.2399 59.4 19.2799 59.4 23.7599C59.4 29.0399 58.08 33.3599 55.44 36.7199C52.8 39.9999 49.72 42.2399 46.2 43.4399V43.9199C50.76 45.4399 54.36 47.9599 57 51.4799C59.64 54.9999 60.96 59.5199 60.96 65.0399C60.96 69.9999 59.8 74.3999 57.48 78.2399C55.24 81.9999 51.92 84.9599 47.52 87.1199C43.2 89.2799 38.04 90.3599 32.04 90.3599C22.44 90.3599 14.76 87.9999 8.99996 83.2799C3.31996 78.5599 0.319961 71.4399 -3.86834e-05 61.9199H19.92C20 65.4399 21 68.2399 22.92 70.3199C24.84 72.3199 27.64 73.3199 31.32 73.3199C34.44 73.3199 36.84 72.4399 38.52 70.6799C40.28 68.8399 41.16 66.4399 41.16 63.4799C41.16 59.6399 39.92 56.8799 37.44 55.1999C35.04 53.4399 31.16 52.5599 25.8 52.5599H21.96V35.8799H25.8C29.88 35.8799 33.16 35.1999 35.64 33.8399C38.2 32.3999 39.48 29.8799 39.48 26.2799C39.48 23.3999 38.68 21.1599 37.08 19.5599C35.48 17.9599 33.28 17.1599 30.48 17.1599C27.44 17.1599 25.16 18.0799 23.64 19.9199C22.2 21.7599 21.36 24.0399 21.12 26.7599H1.07996Z" fill="#BDFBBC"/>
</svg>
