<?xml version="1.0" encoding="utf-8"?>
<!-- Generator: Adobe Illustrator 27.3.1, SVG Export Plug-In . SVG Version: 6.00 Build 0)  -->
<svg version="1.1" id="Layer_1" xmlns="http://www.w3.org/2000/svg" xmlns:xlink="http://www.w3.org/1999/xlink" x="0px" y="0px"
	 viewBox="0 0 423.5 185.5" style="enable-background:new 0 0 423.5 185.5;" xml:space="preserve">
<style type="text/css">
	.st0{fill:#091A1F;}
	.st1{fill:#078650;}
	.st2{fill:#003339;}
	.st3{fill:#FFFFFF;}
</style>
<g>
	<rect x="10.7" y="9.5" class="st0" width="402.1" height="110.5"/>
	<rect x="48.1" y="100.7" class="st1" width="10.5" height="10.5"/>
	<rect x="37.6" y="90.2" class="st1" width="10.5" height="10.5"/>
	<rect x="27.1" y="79.7" class="st1" width="10.5" height="10.5"/>
	<rect x="27.1" y="100.7" class="st1" width="10.5" height="10.5"/>
	<rect x="16.6" y="69.2" class="st1" width="10.5" height="10.5"/>
	<rect x="16.5" y="90.2" class="st1" width="10.5" height="10.5"/>
	<rect x="16.5" y="48.1" class="st1" width="10.5" height="10.5"/>
	<rect x="27.1" y="37.6" class="st1" width="10.5" height="10.5"/>
	<rect x="37.6" y="27" class="st1" width="10.5" height="10.5"/>
	<rect x="16.5" y="27" class="st1" width="10.5" height="10.5"/>
	<rect x="48.1" y="16.5" class="st1" width="10.5" height="10.5"/>
	<rect x="27.1" y="16.5" class="st1" width="10.5" height="10.5"/>
	<rect x="195.4" y="16.5" class="st2" width="10.5" height="10.5"/>
	<rect x="184.9" y="27" class="st2" width="10.5" height="10.5"/>
	<rect x="174.4" y="37.6" class="st2" width="10.5" height="10.5"/>
	<rect x="163.9" y="48.1" class="st2" width="10.5" height="10.5"/>
	<rect x="153.3" y="58.6" class="st2" width="10.5" height="10.5"/>
	<rect x="163.9" y="69.2" class="st2" width="10.5" height="10.5"/>
	<rect x="174.4" y="79.7" class="st2" width="10.5" height="10.5"/>
	<rect x="184.9" y="90.2" class="st2" width="10.5" height="10.5"/>
	<rect x="195.4" y="100.7" class="st2" width="10.5" height="10.5"/>
	<rect x="174.4" y="16.5" class="st2" width="10.5" height="10.5"/>
	<rect x="163.9" y="27" class="st2" width="10.5" height="10.5"/>
	<rect x="153.3" y="37.6" class="st2" width="10.5" height="10.5"/>
	<rect x="142.8" y="48.1" class="st2" width="10.5" height="10.5"/>
	<rect x="132.3" y="58.6" class="st2" width="10.5" height="10.5"/>
	<rect x="142.8" y="69.2" class="st2" width="10.5" height="10.5"/>
	<rect x="153.3" y="79.7" class="st2" width="10.5" height="10.5"/>
	<rect x="163.9" y="90.2" class="st2" width="10.5" height="10.5"/>
	<rect x="174.4" y="100.7" class="st2" width="10.5" height="10.5"/>
	<rect x="153.3" y="16.5" class="st2" width="10.5" height="10.5"/>
	<rect x="142.8" y="27" class="st2" width="10.5" height="10.5"/>
	<rect x="132.3" y="37.6" class="st2" width="10.5" height="10.5"/>
	<rect x="121.8" y="48.1" class="st2" width="10.5" height="10.5"/>
	<rect x="111.2" y="58.6" class="st2" width="10.5" height="10.5"/>
	<rect x="121.8" y="69.2" class="st2" width="10.5" height="10.5"/>
	<rect x="132.3" y="79.7" class="st2" width="10.5" height="10.5"/>
	<rect x="142.8" y="90.2" class="st2" width="10.5" height="10.5"/>
	<rect x="153.3" y="100.7" class="st2" width="10.5" height="10.5"/>
	<rect x="132.3" y="16.5" class="st2" width="10.5" height="10.5"/>
	<rect x="121.8" y="27" class="st2" width="10.5" height="10.5"/>
	<rect x="111.2" y="37.6" class="st2" width="10.5" height="10.5"/>
	<rect x="100.7" y="48.1" class="st2" width="10.5" height="10.5"/>
	<rect x="90.2" y="58.6" class="st2" width="10.5" height="10.5"/>
	<rect x="100.7" y="69.2" class="st2" width="10.5" height="10.5"/>
	<rect x="111.2" y="79.7" class="st2" width="10.5" height="10.5"/>
	<rect x="121.8" y="90.2" class="st2" width="10.5" height="10.5"/>
	<rect x="132.3" y="100.7" class="st2" width="10.5" height="10.5"/>
	<rect x="111.2" y="16.5" class="st2" width="10.5" height="10.5"/>
	<rect x="100.7" y="27" class="st2" width="10.5" height="10.5"/>
	<rect x="90.2" y="37.6" class="st2" width="10.5" height="10.5"/>
	<rect x="79.7" y="48.1" class="st2" width="10.5" height="10.5"/>
	<rect x="69.2" y="58.6" class="st2" width="10.5" height="10.5"/>
	<rect x="79.7" y="69.2" class="st2" width="10.5" height="10.5"/>
	<rect x="90.2" y="79.7" class="st2" width="10.5" height="10.5"/>
	<rect x="100.7" y="90.2" class="st2" width="10.5" height="10.5"/>
	<rect x="111.2" y="100.7" class="st2" width="10.5" height="10.5"/>
	<rect x="90.2" y="16.5" class="st2" width="10.5" height="10.5"/>
	<rect x="79.6" y="27" class="st2" width="10.5" height="10.5"/>
	<rect x="69.2" y="37.6" class="st2" width="10.5" height="10.5"/>
	<rect x="58.6" y="48.1" class="st2" width="10.5" height="10.5"/>
	<rect x="48.1" y="58.6" class="st2" width="10.5" height="10.5"/>
	<rect x="58.6" y="69.2" class="st2" width="10.5" height="10.5"/>
	<rect x="69.2" y="79.7" class="st2" width="10.5" height="10.5"/>
	<rect x="79.6" y="90.2" class="st2" width="10.5" height="10.5"/>
	<rect x="90.2" y="100.7" class="st2" width="10.5" height="10.5"/>
	<rect x="69.2" y="16.5" class="st2" width="10.5" height="10.5"/>
	<rect x="58.6" y="27" class="st2" width="10.5" height="10.5"/>
	<rect x="48.1" y="37.6" class="st2" width="10.5" height="10.5"/>
	<rect x="37.6" y="48.1" class="st2" width="10.5" height="10.5"/>
	<rect x="27.1" y="58.6" class="st2" width="10.5" height="10.5"/>
	<rect x="37.6" y="69.2" class="st2" width="10.5" height="10.5"/>
	<rect x="48.1" y="79.7" class="st2" width="10.5" height="10.5"/>
	<rect x="58.6" y="90.2" class="st2" width="10.5" height="10.5"/>
	<rect x="69.2" y="100.7" class="st2" width="10.5" height="10.5"/>
	<rect x="216.4" y="100.7" class="st2" width="10.5" height="10.5"/>
	<rect x="227" y="90.2" class="st2" width="10.5" height="10.5"/>
	<rect x="237.5" y="79.6" class="st2" width="10.5" height="10.5"/>
	<rect x="248" y="69.1" class="st2" width="10.5" height="10.5"/>
	<rect x="258.5" y="58.6" class="st2" width="10.5" height="10.5"/>
	<rect x="248" y="48.1" class="st2" width="10.5" height="10.5"/>
	<rect x="237.5" y="37.6" class="st2" width="10.5" height="10.5"/>
	<rect x="227" y="27" class="st2" width="10.5" height="10.5"/>
	<rect x="216.4" y="16.5" class="st2" width="10.5" height="10.5"/>
	<rect x="237.5" y="100.7" class="st2" width="10.5" height="10.5"/>
	<rect x="248" y="90.2" class="st2" width="10.5" height="10.5"/>
	<rect x="258.5" y="79.6" class="st2" width="10.5" height="10.5"/>
	<rect x="269.1" y="69.1" class="st2" width="10.5" height="10.5"/>
	<rect x="279.6" y="58.6" class="st2" width="10.5" height="10.5"/>
	<rect x="269.1" y="48.1" class="st2" width="10.5" height="10.5"/>
	<rect x="258.5" y="37.6" class="st2" width="10.5" height="10.5"/>
	<rect x="248" y="27" class="st2" width="10.5" height="10.5"/>
	<rect x="237.5" y="16.5" class="st2" width="10.5" height="10.5"/>
	<rect x="258.5" y="100.7" class="st2" width="10.5" height="10.5"/>
	<rect x="269" y="90.2" class="st2" width="10.5" height="10.5"/>
	<rect x="279.6" y="79.6" class="st2" width="10.5" height="10.5"/>
	<rect x="290.1" y="69.1" class="st2" width="10.5" height="10.5"/>
	<rect x="300.6" y="58.6" class="st2" width="10.5" height="10.5"/>
	<rect x="290.1" y="48.1" class="st2" width="10.5" height="10.5"/>
	<rect x="279.6" y="37.6" class="st2" width="10.5" height="10.5"/>
	<rect x="269" y="27" class="st2" width="10.5" height="10.5"/>
	<rect x="258.5" y="16.5" class="st2" width="10.5" height="10.5"/>
	<rect x="279.6" y="100.7" class="st2" width="10.5" height="10.5"/>
	<rect x="290.1" y="90.2" class="st2" width="10.5" height="10.5"/>
	<rect x="300.6" y="79.6" class="st2" width="10.5" height="10.5"/>
	<rect x="311.1" y="69.1" class="st2" width="10.5" height="10.5"/>
	<rect x="321.7" y="58.6" class="st2" width="10.5" height="10.5"/>
	<rect x="311.1" y="48.1" class="st2" width="10.5" height="10.5"/>
	<rect x="300.6" y="37.6" class="st2" width="10.5" height="10.5"/>
	<rect x="290.1" y="27" class="st2" width="10.5" height="10.5"/>
	<rect x="279.6" y="16.5" class="st2" width="10.5" height="10.5"/>
	<rect x="300.6" y="100.7" class="st2" width="10.5" height="10.5"/>
	<rect x="311.1" y="90.2" class="st2" width="10.5" height="10.5"/>
	<rect x="321.7" y="79.6" class="st2" width="10.5" height="10.5"/>
	<rect x="332.2" y="69.1" class="st2" width="10.5" height="10.5"/>
	<rect x="342.7" y="58.6" class="st2" width="10.5" height="10.5"/>
	<rect x="332.2" y="48.1" class="st2" width="10.5" height="10.5"/>
	<rect x="321.7" y="37.6" class="st2" width="10.5" height="10.5"/>
	<rect x="311.1" y="27" class="st2" width="10.5" height="10.5"/>
	<rect x="300.6" y="16.5" class="st2" width="10.5" height="10.5"/>
	<rect x="321.7" y="100.7" class="st2" width="10.5" height="10.5"/>
	<rect x="332.2" y="90.2" class="st2" width="10.5" height="10.5"/>
	<rect x="342.7" y="79.6" class="st2" width="10.5" height="10.5"/>
	<rect x="353.2" y="69.1" class="st2" width="10.5" height="10.5"/>
	<rect x="363.7" y="58.6" class="st2" width="10.5" height="10.5"/>
	<rect x="353.2" y="48.1" class="st2" width="10.5" height="10.5"/>
	<rect x="342.7" y="37.6" class="st2" width="10.5" height="10.5"/>
	<rect x="332.2" y="27" class="st2" width="10.5" height="10.5"/>
	<rect x="321.7" y="16.5" class="st2" width="10.5" height="10.5"/>
	<rect x="342.7" y="100.7" class="st2" width="10.5" height="10.5"/>
	<rect x="353.2" y="90.2" class="st2" width="10.5" height="10.5"/>
	<rect x="363.7" y="79.6" class="st2" width="10.5" height="10.5"/>
	<rect x="374.3" y="69.1" class="st2" width="10.5" height="10.5"/>
	<rect x="384.8" y="58.6" class="st2" width="10.5" height="10.5"/>
	<rect x="374.3" y="48.1" class="st2" width="10.5" height="10.5"/>
	<rect x="363.7" y="37.6" class="st2" width="10.5" height="10.5"/>
	<rect x="353.2" y="27" class="st2" width="10.5" height="10.5"/>
	<rect x="342.7" y="16.5" class="st2" width="10.5" height="10.5"/>
	<rect x="205.9" y="27" class="st2" width="10.5" height="10.5"/>
	<rect x="216.4" y="37.6" class="st2" width="10.5" height="10.5"/>
	<rect x="195.4" y="37.6" class="st2" width="10.5" height="10.5"/>
	<rect x="216.4" y="58.6" class="st2" width="10.5" height="10.5"/>
	<rect x="195.4" y="58.6" class="st2" width="10.5" height="10.5"/>
	<rect x="237.5" y="58.6" class="st2" width="10.5" height="10.5"/>
	<rect x="174.3" y="58.6" class="st2" width="10.5" height="10.5"/>
	<rect x="205.9" y="48.1" class="st2" width="10.5" height="10.5"/>
	<rect x="227" y="48.1" class="st2" width="10.5" height="10.5"/>
	<rect x="184.9" y="48.1" class="st2" width="10.5" height="10.5"/>
	<rect x="205.9" y="90.2" class="st2" width="10.5" height="10.5"/>
	<rect x="195.5" y="79.7" class="st2" width="10.5" height="10.5"/>
	<rect x="216.4" y="79.7" class="st2" width="10.5" height="10.5"/>
	<rect x="205.9" y="69.2" class="st2" width="10.5" height="10.5"/>
	<rect x="184.9" y="69.2" class="st2" width="10.5" height="10.5"/>
	<rect x="227" y="69.2" class="st2" width="10.5" height="10.5"/>
	<rect x="363.7" y="16.5" class="st1" width="10.5" height="10.5"/>
	<rect x="374.2" y="27" class="st1" width="10.5" height="10.5"/>
	<rect x="384.7" y="37.6" class="st1" width="10.5" height="10.5"/>
	<rect x="384.7" y="16.5" class="st1" width="10.5" height="10.5"/>
	<rect x="395.2" y="48.1" class="st1" width="10.5" height="10.5"/>
	<rect x="395.2" y="27" class="st1" width="10.5" height="10.5"/>
	<rect x="395.3" y="69.1" class="st1" width="10.5" height="10.5"/>
	<rect x="384.8" y="79.6" class="st1" width="10.5" height="10.5"/>
	<rect x="374.3" y="90.2" class="st1" width="10.5" height="10.5"/>
	<rect x="395.3" y="90.2" class="st1" width="10.5" height="10.5"/>
	<rect x="363.7" y="100.8" class="st1" width="10.5" height="10.5"/>
	<rect x="384.8" y="100.8" class="st1" width="10.5" height="10.5"/>
	<rect x="398.8" y="114.7" class="st1" width="3.5" height="3.5"/>
	<rect x="388.3" y="114.7" class="st1" width="3.5" height="3.5"/>
	<rect x="377.8" y="114.7" class="st1" width="3.5" height="3.5"/>
	<polygon class="st1" points="374.3,118.2 369,118.2 363.7,118.2 358.5,118.2 353.3,118.2 348,118.2 342.7,118.2 337.5,118.2 
		332.2,118.2 326.9,118.2 326.9,121.7 332.2,121.7 337.5,121.7 342.7,121.7 348,121.7 353.3,121.7 358.5,121.7 363.7,121.7 
		369,121.7 374.3,121.7 379.5,121.7 379.5,118.2 	"/>
	<rect x="367.2" y="114.7" class="st1" width="3.5" height="3.5"/>
	<rect x="356.8" y="114.7" class="st1" width="3.5" height="3.5"/>
	<rect x="346.2" y="114.7" class="st1" width="3.5" height="3.5"/>
	<rect x="335.7" y="114.7" class="st1" width="3.5" height="3.5"/>
	<rect x="325.2" y="114.7" class="st1" width="3.5" height="3.5"/>
	<polygon class="st1" points="321.7,118.2 316.4,118.2 311.1,118.2 305.9,118.2 300.6,118.2 295.4,118.2 290.1,118.2 284.8,118.2 
		279.6,118.2 274.3,118.2 274.3,121.7 279.6,121.7 284.8,121.7 290.1,121.7 295.4,121.7 300.6,121.7 305.9,121.7 311.1,121.7 
		316.4,121.7 321.7,121.7 326.9,121.7 326.9,118.2 	"/>
	<rect x="314.7" y="114.7" class="st1" width="3.5" height="3.5"/>
	<rect x="304.1" y="114.7" class="st1" width="3.5" height="3.5"/>
	<rect x="293.6" y="114.7" class="st1" width="3.5" height="3.5"/>
	<rect x="283.1" y="114.7" class="st1" width="3.5" height="3.5"/>
	<rect x="272.5" y="114.7" class="st1" width="3.5" height="3.5"/>
	<polygon class="st1" points="269,118.2 263.8,118.2 258.6,118.2 253.3,118.2 248,118.2 242.8,118.2 237.5,118.2 232.2,118.2 
		227,118.2 221.7,118.2 221.7,121.7 227,121.7 232.2,121.7 237.5,121.7 242.8,121.7 248,121.7 253.3,121.7 258.6,121.7 263.8,121.7 
		269,121.7 274.3,121.7 274.3,118.2 	"/>
	<rect x="262.1" y="114.7" class="st1" width="3.5" height="3.5"/>
	<rect x="251.5" y="114.7" class="st1" width="3.5" height="3.5"/>
	<rect x="241" y="114.7" class="st1" width="3.5" height="3.5"/>
	<rect x="230.5" y="114.7" class="st1" width="3.5" height="3.5"/>
	<rect x="220" y="114.7" class="st1" width="3.5" height="3.5"/>
	<polygon class="st1" points="216.4,118.2 211.2,118.2 205.9,118.2 200.7,118.2 195.4,118.2 190.1,118.2 184.9,118.2 179.6,118.2 
		174.3,118.2 169.1,118.2 169.1,121.7 174.3,121.7 179.6,121.7 184.9,121.7 190.1,121.7 195.4,121.7 200.7,121.7 205.9,121.7 
		211.2,121.7 216.4,121.7 221.7,121.7 221.7,118.2 	"/>
	<rect x="209.4" y="114.7" class="st1" width="3.5" height="3.5"/>
	<rect x="198.9" y="114.7" class="st1" width="3.5" height="3.5"/>
	<rect x="188.4" y="114.7" class="st1" width="3.5" height="3.5"/>
	<rect x="177.8" y="114.7" class="st1" width="3.5" height="3.5"/>
	<rect x="167.3" y="114.7" class="st1" width="3.5" height="3.5"/>
	<polygon class="st1" points="163.9,118.2 158.6,118.2 153.3,118.2 148.1,118.2 142.8,118.2 137.5,118.2 132.3,118.2 127,118.2 
		121.8,118.2 116.5,118.2 116.5,121.7 121.8,121.7 127,121.7 132.3,121.7 137.5,121.7 142.8,121.7 148.1,121.7 153.3,121.7 
		158.6,121.7 163.9,121.7 169.1,121.7 169.1,118.2 	"/>
	<rect x="156.9" y="114.7" class="st1" width="3.5" height="3.5"/>
	<rect x="146.3" y="114.7" class="st1" width="3.5" height="3.5"/>
	<rect x="135.8" y="114.7" class="st1" width="3.5" height="3.5"/>
	<rect x="125.3" y="114.7" class="st1" width="3.5" height="3.5"/>
	<rect x="114.7" y="114.7" class="st1" width="3.5" height="3.5"/>
	<polygon class="st1" points="111.2,118.2 106,118.2 100.7,118.2 95.4,118.2 90.2,118.2 84.9,118.2 79.6,118.2 74.4,118.2 
		69.1,118.2 63.9,118.2 63.9,121.7 69.1,121.7 74.4,121.7 79.6,121.7 84.9,121.7 90.2,121.7 95.4,121.7 100.7,121.7 106,121.7 
		111.2,121.7 116.5,121.7 116.5,118.2 	"/>
	<rect x="104.2" y="114.7" class="st1" width="3.5" height="3.5"/>
	<rect x="93.7" y="114.7" class="st1" width="3.5" height="3.5"/>
	<rect x="83.1" y="114.7" class="st1" width="3.5" height="3.5"/>
	<rect x="72.6" y="114.7" class="st1" width="3.5" height="3.5"/>
	<rect x="62.2" y="114.7" class="st1" width="3.5" height="3.5"/>
	<polygon class="st1" points="58.6,118.2 53.4,118.2 48.1,118.2 42.8,118.2 37.6,118.2 32.3,118.2 27.1,118.2 21.8,118.2 
		21.8,121.7 27.1,121.7 32.3,121.7 37.6,121.7 42.8,121.7 48.1,121.7 53.4,121.7 58.6,121.7 63.9,121.7 63.9,118.2 	"/>
	<rect x="51.6" y="114.7" class="st1" width="3.5" height="3.5"/>
	<rect x="41.1" y="114.7" class="st1" width="3.5" height="3.5"/>
	<rect x="30.6" y="114.7" class="st1" width="3.5" height="3.5"/>
	<rect x="20" y="114.7" class="st1" width="3.5" height="3.5"/>
	<polygon class="st1" points="32.3,9.5 37.6,9.5 42.8,9.5 48.1,9.5 53.4,9.5 53.4,6 48.1,6 42.8,6 37.6,6 32.3,6 27.1,6 21.8,6 
		21.8,9.5 27.1,9.5 	"/>
	<rect x="30.6" y="9.5" class="st1" width="3.5" height="3.5"/>
	<rect x="41.1" y="9.5" class="st1" width="3.5" height="3.5"/>
	<rect x="51.6" y="9.5" class="st1" width="3.5" height="3.5"/>
	<polygon class="st1" points="63.9,9.5 69.1,9.5 74.4,9.5 79.6,9.5 84.9,9.5 90.2,9.5 95.4,9.5 100.7,9.5 106,9.5 106,6 100.7,6 
		95.4,6 90.2,6 84.9,6 79.6,6 74.4,6 69.1,6 63.9,6 58.6,6 53.4,6 53.4,9.5 58.6,9.5 	"/>
	<rect x="62.2" y="9.5" class="st1" width="3.5" height="3.5"/>
	<rect x="72.6" y="9.5" class="st1" width="3.5" height="3.5"/>
	<rect x="83.1" y="9.5" class="st1" width="3.5" height="3.5"/>
	<rect x="93.7" y="9.5" class="st1" width="3.5" height="3.5"/>
	<rect x="104.2" y="9.5" class="st1" width="3.5" height="3.5"/>
	<polygon class="st1" points="116.5,9.5 121.8,9.5 127,9.5 132.3,9.5 137.5,9.5 142.8,9.5 148.1,9.5 153.3,9.5 158.6,9.5 158.6,6 
		153.3,6 148.1,6 142.8,6 137.5,6 132.3,6 127,6 121.8,6 116.5,6 111.2,6 106,6 106,9.5 111.2,9.5 	"/>
	<rect x="114.7" y="9.5" class="st1" width="3.5" height="3.5"/>
	<rect x="125.3" y="9.5" class="st1" width="3.5" height="3.5"/>
	<rect x="135.8" y="9.5" class="st1" width="3.5" height="3.5"/>
	<rect x="146.3" y="9.5" class="st1" width="3.5" height="3.5"/>
	<rect x="156.9" y="9.5" class="st1" width="3.5" height="3.5"/>
	<polygon class="st1" points="169.1,9.5 174.3,9.5 179.6,9.5 184.9,9.5 190.1,9.5 195.4,9.5 200.7,9.5 205.9,9.5 211.2,9.5 211.2,6 
		205.9,6 200.7,6 195.4,6 190.1,6 184.9,6 179.6,6 174.3,6 169.1,6 163.9,6 158.6,6 158.6,9.5 163.9,9.5 	"/>
	<rect x="167.3" y="9.5" class="st1" width="3.5" height="3.5"/>
	<rect x="177.8" y="9.5" class="st1" width="3.5" height="3.5"/>
	<rect x="188.4" y="9.5" class="st1" width="3.5" height="3.5"/>
	<rect x="198.9" y="9.5" class="st1" width="3.5" height="3.5"/>
	<rect x="209.4" y="9.5" class="st1" width="3.5" height="3.5"/>
	<polygon class="st1" points="221.7,9.5 227,9.5 232.2,9.5 237.5,9.5 242.8,9.5 248,9.5 253.3,9.5 258.6,9.5 263.8,9.5 263.8,6 
		258.6,6 253.3,6 248,6 242.8,6 237.5,6 232.2,6 227,6 221.7,6 216.4,6 211.2,6 211.2,9.5 216.4,9.5 	"/>
	<rect x="220" y="9.5" class="st1" width="3.5" height="3.5"/>
	<rect x="230.5" y="9.5" class="st1" width="3.5" height="3.5"/>
	<rect x="241" y="9.5" class="st1" width="3.5" height="3.5"/>
	<rect x="251.5" y="9.5" class="st1" width="3.5" height="3.5"/>
	<rect x="262.1" y="9.5" class="st1" width="3.5" height="3.5"/>
	<polygon class="st1" points="274.3,9.5 279.6,9.5 284.8,9.5 290.1,9.5 295.4,9.5 300.6,9.5 305.9,9.5 311.1,9.5 316.4,9.5 316.4,6 
		311.1,6 305.9,6 300.6,6 295.4,6 290.1,6 284.8,6 279.6,6 274.3,6 269,6 263.8,6 263.8,9.5 269,9.5 	"/>
	<rect x="272.5" y="9.5" class="st1" width="3.5" height="3.5"/>
	<rect x="283.1" y="9.5" class="st1" width="3.5" height="3.5"/>
	<rect x="293.6" y="9.5" class="st1" width="3.5" height="3.5"/>
	<rect x="304.1" y="9.5" class="st1" width="3.5" height="3.5"/>
	<rect x="314.7" y="9.5" class="st1" width="3.5" height="3.5"/>
	<polygon class="st1" points="326.9,9.5 332.2,9.5 337.5,9.5 342.7,9.5 348,9.5 353.3,9.5 358.5,9.5 363.7,9.5 369,9.5 369,6 
		363.7,6 358.5,6 353.3,6 348,6 342.7,6 337.5,6 332.2,6 326.9,6 321.7,6 316.4,6 316.4,9.5 321.7,9.5 	"/>
	<rect x="325.2" y="9.5" class="st1" width="3.5" height="3.5"/>
	<rect x="335.7" y="9.5" class="st1" width="3.5" height="3.5"/>
	<rect x="346.2" y="9.5" class="st1" width="3.5" height="3.5"/>
	<rect x="356.8" y="9.5" class="st1" width="3.5" height="3.5"/>
	<rect x="367.2" y="9.5" class="st1" width="3.5" height="3.5"/>
	<polygon class="st1" points="379.5,9.5 384.8,9.5 390.1,9.5 395.3,9.5 400.6,9.5 398.8,9.5 398.8,13 402.3,13 402.3,9.5 412.8,9.5 
		412.8,22.6 416.3,22.6 416.3,6 400.6,6 395.3,6 390.1,6 384.8,6 379.5,6 374.3,6 369,6 369,9.5 374.3,9.5 	"/>
	<rect x="377.8" y="9.5" class="st1" width="3.5" height="3.5"/>
	<rect x="388.3" y="9.5" class="st1" width="3.5" height="3.5"/>
	<polygon class="st1" points="10.7,118.2 10.7,107.7 14.2,107.7 14.2,104.2 10.7,104.2 10.7,105.9 10.7,100.7 10.7,95.4 10.7,90.2 
		10.7,84.9 10.7,79.7 10.7,74.4 10.7,69.2 10.7,63.9 10.7,58.6 10.7,53.4 10.7,48.1 10.7,42.8 10.7,37.6 10.7,32.3 10.7,27 
		10.7,21.8 7.2,21.8 7.2,27 7.2,32.3 7.2,37.6 7.2,42.8 7.2,48.1 7.2,53.4 7.2,58.6 7.2,63.9 7.2,69.2 7.2,74.4 7.2,79.7 7.2,84.9 
		7.2,90.2 7.2,95.4 7.2,100.7 7.2,105.9 7.2,118.2 7.2,121.7 21.8,121.7 21.8,118.2 	"/>
	<rect x="10.7" y="93.7" class="st1" width="3.5" height="3.5"/>
	<rect x="10.7" y="83.2" class="st1" width="3.5" height="3.5"/>
	<rect x="10.7" y="72.7" class="st1" width="3.5" height="3.5"/>
	<rect x="10.7" y="62.1" class="st1" width="3.5" height="3.5"/>
	<rect x="10.7" y="51.6" class="st1" width="3.5" height="3.5"/>
	<rect x="10.7" y="41.1" class="st1" width="3.5" height="3.5"/>
	<rect x="10.7" y="30.6" class="st1" width="3.5" height="3.5"/>
	<polygon class="st1" points="7.2,21.8 10.7,21.8 10.7,23.5 14.2,23.5 14.2,20 10.7,20 10.7,9.5 20,9.5 20,13 23.5,13 23.5,9.5 
		21.8,9.5 21.8,6 7.2,6 7.2,9.5 	"/>
	<rect x="409.3" y="20.8" class="st1" width="3.5" height="3.5"/>
	<rect x="409.3" y="31.3" class="st1" width="3.5" height="3.5"/>
	<rect x="409.3" y="41.9" class="st1" width="3.5" height="3.5"/>
	<rect x="409.3" y="52.3" class="st1" width="3.5" height="3.5"/>
	<rect x="409.3" y="62.8" class="st1" width="3.5" height="3.5"/>
	<rect x="409.3" y="73.4" class="st1" width="3.5" height="3.5"/>
	<rect x="409.3" y="83.9" class="st1" width="3.5" height="3.5"/>
	<rect x="409.3" y="94.4" class="st1" width="3.5" height="3.5"/>
	<polygon class="st1" points="416.3,106.7 416.3,101.5 416.3,96.2 416.3,90.9 416.3,85.7 416.3,80.4 416.3,75.1 416.3,69.9 
		416.3,64.6 416.3,59.3 416.3,54.1 416.3,48.9 416.3,43.6 416.3,38.3 416.3,33.1 416.3,27.8 416.3,22.6 412.8,22.6 412.8,27.8 
		412.8,33.1 412.8,38.3 412.8,43.6 412.8,48.9 412.8,54.1 412.8,59.3 412.8,64.6 412.8,69.9 412.8,75.1 412.8,80.4 412.8,85.7 
		412.8,90.9 412.8,96.2 412.8,101.5 412.8,106.7 412.8,118.2 400.6,118.2 395.3,118.2 390.1,118.2 384.8,118.2 379.5,118.2 
		379.5,121.7 384.8,121.7 390.1,121.7 395.3,121.7 400.6,121.7 416.3,121.7 	"/>
	<rect x="409.3" y="105" class="st1" width="3.5" height="3.5"/>
	<path class="st3" d="M174.4,58.6h42v10.7h-42V58.6z M241.4,79.8h6.7V47.8h-2.6c-3.1,3.1-4.8,4.8-7.9,7.9v13.6H227V58.6l-10.5-10.5
		h-42.1V27.2h-2.6c-3.1,3.1-4.8,4.8-7.9,7.9v34.1h-10.5V47.7h-2.6c-3.1,3.1-4.8,4.8-7.9,7.9v13.6h-10.5h-21.8V58.7h21.8V48.2h-21.8
		L100,58.7v10.5h-9.8V48.2h-2.6c-3.1,3.1-4.8,4.8-7.9,7.9V69H69.4V27h-2.6c-3.1,3.1-4.8,4.8-7.9,7.9v36.4c3.2,3.2,5,5,8.2,8.2h2.3
		h10.3h3.9v0.1h41.6h38.6v10.5h2.7c3-3,4.7-4.7,7.8-7.8v-2.7h67L241.4,79.8z"/>
	<path class="st3" d="M290.1,55.7v13.5h-10.5v-42H277c-3.1,3.1-4.8,4.8-7.9,7.9v44.5h10.5h10.5h10.5V47.7H298
		C294.9,50.8,293.2,52.5,290.1,55.7L290.1,55.7z"/>
	<polygon class="st3" points="321.6,40.3 321.6,37.7 311.1,37.7 311.1,48.2 313.7,48.2 	"/>
	<path class="st3" d="M237.5,100.8h2.6c3.1-3.1,4.8-4.8,7.9-7.9v-2.6h-10.5V100.8z"/>
	<path class="st3" d="M142.8,100.8h2.6c3.1-3.1,4.8-4.8,7.9-7.9v-2.6h-10.5V100.8z"/>
	<path class="st3" d="M290.1,48.2h2.6c3.1-3.1,4.8-4.8,7.9-7.9v-2.6h-10.5V48.2z"/>
	<path class="st3" d="M363.8,58.8V48.2h-21.1c-4.1,4.1-6.4,6.4-10.5,10.5v10.5h-10.5V48.2h-2.6c-3.1,3.1-4.8,4.8-7.9,7.9v44.6h2.7
		c3-3,4.7-4.7,7.8-7.8V79.8h42.1V69.2h-21.1V58.7L363.8,58.8L363.8,58.8z"/>
	<path class="st3" d="M90.2,40.3v-2.6H79.7v10.5h2.6C85.4,45.2,87.1,43.4,90.2,40.3"/>
	<rect x="342.7" y="86.9" class="st3" width="21.1" height="3.4"/>
	<polygon class="st3" points="318.9,27.1 318.9,29.8 317.7,29.8 317.7,27.1 315.1,27.1 315.1,29.8 313.9,29.8 313.9,27.1 
		311.1,27.1 311.1,29.2 311.1,32.4 313.9,32.4 315.1,32.4 317.7,32.4 318.9,32.4 321.7,32.4 321.7,29.2 321.7,27.1 	"/>
	<path class="st1" d="M15.4,138.6c0.1,0,0.2-0.1,0.2-0.3c0-0.4-0.1-0.9-0.2-1.5c-0.1-0.6-0.4-1-0.8-1.3c-0.5-0.4-1-0.6-1.5-0.6
		s-1.2,0.2-1.6,0.6c-0.4,0.4-0.6,0.8-0.6,1.4c0,0.6,0.3,1.1,0.9,1.4c0.6,0.3,1.4,0.4,2.3,0.4c0.9,0,1.2,0,1.4-0.1L15.4,138.6z
		 M9.6,146.9c-0.8-0.3-1.4-0.6-2-1.1c-0.4-0.3-0.5-0.5-0.5-0.6c0-0.1,0.2-0.4,0.6-0.8c0.4-0.4,0.8-0.7,1.2-1
		c0.4-0.3,0.8-0.4,1.1-0.4c0.3,0,0.2,0,0.4,0.1c1.1,1,2.2,1.4,3.5,1.4c1.3,0,1.3-0.1,1.5-0.3c0.2-0.3,0.4-1.1,0.5-2.2v-1.8
		c-0.4,0.4-0.8,0.6-1.3,0.8c-0.4,0.2-0.8,0.4-1.1,0.5c-0.5,0.1-1,0.1-1.5,0.1s-1.3-0.1-1.8-0.3c-0.6-0.1-1.1-0.4-1.5-0.7
		c-0.4-0.3-0.7-0.6-0.9-1.1c-0.2-0.4-0.4-0.9-0.4-1.4c0-0.8,0.4-1.7,1-2.6c0.7-0.9,1.5-1.7,2.7-2.3c1.1-0.6,2.3-0.9,3.6-0.9
		s2.5,0.4,3.2,1.3c0.7,0.8,1.1,1.8,1.3,2.8c0.1,1.1,0.2,2.2,0.2,3.7c0,1.4-0.4,2.9-1.1,4.1c-0.7,1.1-1.6,2-2.7,2.5
		c-1.1,0.6-2.2,0.8-3.5,0.8c-1.3,0-1.5-0.1-2.3-0.4L9.6,146.9z"/>
	<path class="st1" d="M23.9,146.8c-0.8-0.4-1.4-0.7-1.9-1.1c-0.5-0.4-0.7-0.8-0.7-1.1c0-0.4,0.1-0.6,0.5-0.9
		c0.4-0.4,0.7-0.6,1.1-0.8c0.4-0.2,0.7-0.4,0.9-0.4c0.2,0,0.3,0,0.4,0.2c0.4,0.5,0.8,0.9,1.5,1.3c0.6,0.4,1.3,0.6,2,0.6
		c0.7,0,0.8-0.1,1.1-0.2c0.2-0.1,0.3-0.5,0.3-1.1c0-0.9-0.5-1.6-1.4-2.1c-0.9-0.5-2.3-0.7-4.1-0.7c-1.8,0-0.3-0.1-0.3-0.3l0.6-7.4
		c0-0.2,0.1-0.4,0.4-0.4h6.3h1.8c0.5,0,0.8,0,1.1-0.1c0.2,0,0.3,0.1,0.3,0.3c0,0.2-0.1,0.6-0.4,1.1c-0.4,0.6-0.6,1.1-0.9,1.4
		c-0.3,0.4-0.6,0.6-0.8,0.6h-5.5l-0.1,1.9c2.1,0.1,3.7,0.6,4.9,1.3c1.2,0.8,1.8,2,1.8,3.6c0,1.6-0.3,1.7-0.9,2.4
		c-0.6,0.8-1.4,1.3-2.3,1.8c-1,0.4-2,0.6-2.9,0.6C25.4,147.3,24.7,147.2,23.9,146.8z"/>
	<path class="st1" d="M52.2,159.3c-0.1-0.1-0.3-0.3-0.5-0.6c-0.2-0.2-0.4-0.4-0.6-0.6c-0.2,0.3-0.6,0.6-1.1,0.8
		c-0.5,0.3-0.8,0.4-1.1,0.4s-0.2,0-0.4-0.2c-0.1-0.1-0.3-0.4-0.5-0.6c-0.2-0.2-0.4-0.4-0.7-0.6c-0.1-0.1-0.2-0.2-0.2-0.3
		c0-0.2,0.1-0.4,0.4-0.7c0.3-0.3,0.6-0.5,1-0.7c0.4-0.2,0.6-0.3,0.8-0.3c0.1,0,0.5,0.1,0.8,0.4c0.4,0.3,0.6,0.6,0.8,0.8
		c0.2-0.3,0.6-0.6,1-0.8c0.4-0.3,0.7-0.4,0.9-0.4c0.3,0,0.6,0.2,1.1,0.6c0.5,0.4,0.7,0.8,0.7,1.1c0,0.3-0.1,0.4-0.5,0.7
		c-0.3,0.3-0.6,0.5-1.1,0.7c-0.4,0.2-0.7,0.3-0.8,0.3s-0.1,0-0.3-0.2L52.2,159.3z M44,151.2c-1.8-1.3-2.7-3.3-2.7-5.8v-1.2
		c0.1-0.3,0.4-0.6,0.8-0.8c0.5-0.3,1-0.6,1.5-0.8c0.6-0.2,1.1-0.4,1.3-0.4c0.3,0,0.2,0.1,0.2,0.3v1.5c0,2,0.6,3.7,1.8,4.8
		c1.3,1.1,3,1.7,5.3,1.7c2.3,0,2.7-0.3,3.7-0.8c1-0.5,1.5-1.3,1.5-2.2v-0.3h-2.8c-2,0-3.6-0.4-4.8-1.2c-1.3-0.8-1.9-2-1.9-3.5
		c0-1.5,0.4-2.2,1.1-3.2c0.8-1,1.8-1.7,2.9-2.2c1.2-0.6,2.5-0.8,3.8-0.8s2.2,0.2,3.4,0.6c1.1,0.4,2,0.8,2.7,1.2
		c0.2,0.1,0.3,0.3,0.3,0.4c0,0.2-0.2,0.5-0.6,0.9c-0.4,0.4-0.8,0.8-1.3,1.1c-0.5,0.4-0.8,0.5-1.1,0.5c-0.3,0-0.1,0-0.3-0.1
		c-0.8-0.6-1.5-1-2.4-1.3c-0.8-0.3-1.5-0.4-2.2-0.4h-1c-0.3,0-0.5,0.1-0.8,0.3c-0.4,0.3-0.6,0.8-0.6,1.7c0,0.8,0.5,2,1.5,2.6
		c1,0.6,2.4,0.8,4.1,0.8h3c0.4,0,0.6,0.1,0.8,0.3c0.1,0.2,0.2,0.5,0.2,0.8c0,1.5-0.4,2.8-1.3,4c-0.9,1.2-2.1,2.1-3.7,2.8
		c-1.5,0.7-3.4,1-5.3,1C48.3,153.3,45.9,152.6,44,151.2L44,151.2z"/>
	<path class="st1" d="M63.9,147.2c-0.2,0-0.3,0-0.3-0.1c0-0.2,0.1-0.6,0.5-1c0.3-0.4,0.6-0.8,1.1-1.1c0.4-0.4,0.7-0.5,1-0.5h15.4
		c-0.1-1.6-0.6-2.7-1.5-3.4c-0.9-0.6-2.2-1-4.1-1h-6c-1,0-1.8,0-2.3-0.2c-0.6-0.1-1-0.4-1.2-0.7c-0.3-0.4-0.4-0.9-0.4-1.6
		c0-0.7,0.2-0.6,0.7-0.9c0.5-0.4,1-0.7,1.6-0.9c0.6-0.2,1.1-0.4,1.3-0.4c0.3,0,0.2,0,0.2,0.2c0,0.7,0.1,1.2,0.3,1.5
		c0.2,0.3,0.5,0.4,1.1,0.4h6.9c2.5,0,4.2,0.5,5.4,1.5c1.2,1,1.8,2.8,1.8,5.4c0,2.6,0,0.4-0.1,0.6c-0.1,0.6-0.6,1.1-1.3,1.6
		c-0.7,0.5-1.5,0.7-2.6,0.7L63.9,147.2L63.9,147.2z"/>
	<path class="st1" d="M94.9,143.6c0.8,0.6,1.8,0.8,3.2,0.8h1.7c0-1.6-0.4-2.9-1.1-3.9c-0.7-1-1.7-1.5-2.8-1.5
		c-1.1,0-1.3,0.2-1.7,0.6c-0.2,0.4-0.4,0.8-0.4,1.5C93.7,142.2,94.2,143,94.9,143.6L94.9,143.6z M87.4,150.7c-0.6-0.2-1-0.4-1-0.6
		c0-0.2,0.1-0.4,0.5-0.8c0.4-0.4,0.7-0.7,1.2-1c0.4-0.3,0.8-0.4,1.1-0.4c0.3,0,0.3,0,0.6,0.1c0.3,0.1,0.7,0.1,1.1,0.2
		c1.6,0.4,3.1,0.5,4.4,0.5c1.3,0,1.5,0,2.2-0.2c0.7-0.1,1.2-0.4,1.5-0.6c0.3-0.3,0.5-0.5,0.6-0.8H96c-1.8,0-3.3-0.4-4.5-1.1
		c-1.2-0.7-1.8-1.9-1.8-3.4s0.4-2.2,1.1-3.3c0.7-1,1.6-1.8,2.8-2.4c1.2-0.6,2.4-0.8,3.7-0.8c1.3,0,2.3,0.3,3.3,0.8
		c1,0.6,1.7,1.3,2.2,2.2c0.6,1,0.8,2,0.8,3.2v1.9h1.8c0.5,0,0.8,0.1,1.1,0.4c0.2,0.2,0.4,0.6,0.4,1.1c0,0.5-0.1,0.8-0.4,1.1
		c-0.2,0.2-0.6,0.4-1.1,0.4h-2.5c-0.6,0.9-1.4,1.7-2.4,2.4c-1.1,0.7-2.2,1.3-3.4,1.5c-1.2,0.3-2.6,0.4-4.2,0.4
		C90.7,151.4,88.8,151.2,87.4,150.7L87.4,150.7z"/>
	<path class="st1" d="M104.3,146.8c-0.2-0.2-0.4-0.6-0.4-1.1c0-0.5,0.1-0.8,0.4-1.1c0.2-0.2,0.6-0.4,1.1-0.4h2.8
		c0.5,0,0.8,0.1,1.1,0.4c0.2,0.2,0.4,0.6,0.4,1.1c0,0.5-0.1,0.8-0.4,1.1c-0.2,0.2-0.6,0.4-1.1,0.4h-2.8
		C104.9,147.2,104.6,147,104.3,146.8"/>
	<path class="st1" d="M107.1,146.8c-0.2-0.2-0.4-0.6-0.4-1.1c0-0.5,0.1-0.8,0.4-1.1c0.2-0.2,0.6-0.4,1.1-0.4h2.8
		c0.5,0,0.8,0.1,1.1,0.4c0.2,0.2,0.4,0.6,0.4,1.1c0,0.5-0.1,0.8-0.4,1.1c-0.2,0.2-0.6,0.4-1.1,0.4h-2.8
		C107.7,147.2,107.4,147,107.1,146.8"/>
	<path class="st1" d="M109.9,146.8c-0.2-0.2-0.4-0.6-0.4-1.1c0-0.5,0.1-0.8,0.4-1.1c0.2-0.2,0.6-0.4,1.1-0.4h17.1
		c0.5,0,0.8,0.1,1.1,0.4c0.2,0.2,0.4,0.6,0.4,1.1c0,0.5-0.1,0.8-0.4,1.1c-0.2,0.2-0.6,0.4-1.1,0.4H111
		C110.5,147.2,110.2,147,109.9,146.8"/>
	<path class="st1" d="M112.7,146.8c-0.2-0.2-0.4-0.6-0.4-1.1c0-0.5,0.1-0.8,0.4-1.1c0.2-0.2,14.9-0.4,15.4-0.4h2.8
		c0.5,0,0.8,0.1,1.1,0.4c0.2,0.2,0.4,0.6,0.4,1.1c0,0.5-0.1,0.8-0.4,1.1c-0.2,0.2-0.6,0.4-1.1,0.4h-2.8
		C127.6,147.2,113,147,112.7,146.8"/>
	<path class="st1" d="M129.8,146.8c-0.2-0.2-0.4-0.6-0.4-1.1c0-0.5,0.1-0.8,0.4-1.1c0.2-0.2,0.6-0.4,1.1-0.4h2.8
		c0.5,0,0.8,0.1,1.1,0.4c0.2,0.2,0.4,0.6,0.4,1.1c0,0.5-0.1,0.8-0.4,1.1c-0.2,0.2-0.6,0.4-1.1,0.4h-2.8
		C130.5,147.2,130.1,147,129.8,146.8"/>
	<path class="st1" d="M140.9,140.4c0.7,0.5,1.3,1,1.8,1.3c0.4,0.4,0.9,0.7,1.4,1.1c1.3-0.8,2-1.5,2-2.3c0-0.6-0.4-1.1-1.1-1.3
		c-0.7-0.2-1.8-0.4-3.1-0.4c-1.3,0-2,0-3.2,0.1C139.4,139.4,140.1,139.9,140.9,140.4L140.9,140.4z M132.6,146.8
		c-0.2-0.2-0.4-0.6-0.4-1.1c0-0.5,0.1-0.8,0.4-1.1c0.2-0.2,0.6-0.4,1.1-0.4h1.9h2.7c0.7,0,1.3-0.1,2-0.2l-0.6-0.6
		c-0.9-0.8-1.8-1.6-2.5-2.2c-0.8-0.6-1.5-1.1-2.4-1.5c-0.1-0.1-0.3-0.1-0.3-0.2s0-0.2,0.1-0.3c0.3-0.5,0.6-1,1.1-1.5
		c0.4-0.5,0.7-0.9,0.9-1.3c0.6-0.1,1.3-0.2,2.4-0.4c1.1-0.1,2.1-0.1,3.2-0.1c5.1,0,7.6,1.1,7.6,3.2c0,2.1-0.4,1.4-1,2.2
		c-0.6,0.8-1.5,1.5-2.6,2.3c1.3,0.4,3,0.6,4.9,0.6c1.9,0,0.8,0.1,1.1,0.4c0.2,0.2,0.4,0.6,0.4,1.1c0,0.5-0.1,0.8-0.4,1.1
		c-0.2,0.2-0.6,0.4-1.1,0.4c-1.9,0-3.5-0.1-4.8-0.2s-2.5-0.5-3.6-1.1c-0.8,0.4-1.8,0.7-2.5,0.9c-0.8,0.2-1.7,0.3-2.5,0.4h-4
		c-1.8,0-0.8-0.1-1.1-0.4L132.6,146.8z"/>
	<path class="st1" d="M170.7,146.7c-0.6,0.4-1.1,0.5-1.6,0.5H166c-0.8,0-1.5-0.2-2.2-0.6c-0.6,0.4-1.1,0.6-1.8,0.6H159
		c-0.8,0-1.5-0.2-2.2-0.6c-0.6,0.4-1.1,0.6-1.8,0.6h-3.9c-0.5,0-0.8-0.1-1.1-0.4c-0.2-0.2-0.4-0.6-0.4-1.1c0-0.5,0.1-0.8,0.4-1.1
		c0.2-0.2,0.6-0.4,1.1-0.4h3.2v-4.9c0-0.3,0.2-0.6,0.7-0.9c0.5-0.4,1.1-0.6,1.6-0.9c0.6-0.3,1.1-0.4,1.3-0.4s0.2,0,0.2,0.2v5.8
		c0,0.5,0.3,0.8,0.8,0.9c0.5,0.1,1.3,0.2,2.3,0.2v-4.9c0-0.3,0.2-0.6,0.7-0.9c0.5-0.4,1.1-0.6,1.6-0.9c0.6-0.3,1.1-0.4,1.3-0.4
		c0.3,0,0.2,0,0.2,0.2v5.8c0,0.5,0.3,0.8,0.8,0.9s1.3,0.2,2.3,0.2V141c0-0.6,0-1.1-0.1-1.5c-0.1-0.4-0.3-0.8-0.5-1.1v-0.1
		c0-0.1,0-0.2,0.1-0.3c0.4-0.4,1-0.8,1.8-1.2c0.8-0.4,1.4-0.6,1.8-0.6c0.4,0,0.2,0,0.3,0.1c0.2,0.4,0.4,0.8,0.5,1.3
		c0.1,0.6,0.1,1.4,0.1,2.4v3.2c0,0.5,0.2,0.8,0.7,0.9c0.5,0.1,1.1,0.2,1.9,0.2s0.8,0.1,1.1,0.4c0.2,0.2,0.4,0.6,0.4,1.1
		c0,0.5-0.1,0.8-0.4,1.1c-0.2,0.2-0.6,0.4-1.1,0.4H174c-1.5,0-2.6-0.1-3.4-0.5H170.7z"/>
	<path class="st1" d="M178.1,147.2h-3.2c-0.5,0-0.8-0.1-1.1-0.4c-0.2-0.2-0.4-0.6-0.4-1.1c0-0.5,0.1-0.8,0.4-1.1
		c0.2-0.2,0.6-0.4,1.1-0.4h2.5v-13.1c0-0.3,0.2-0.6,0.7-0.9c0.5-0.4,1-0.7,1.6-0.9c0.6-0.3,1.1-0.4,1.3-0.4c0.3,0,0.3,0,0.3,0.2
		v14.1c0,0.8,0,1.3-0.1,1.4c-0.1,0.6-0.5,1.1-1.1,1.6C179.5,146.9,178.8,147.2,178.1,147.2L178.1,147.2z"/>
	<path class="st1" d="M185.2,147v-15.7c0-0.3,0.2-0.6,0.7-0.9c0.5-0.4,1-0.7,1.6-0.9c0.6-0.3,1.1-0.4,1.3-0.4c0.3,0,0.3,0,0.3,0.2
		V145c0,0.3-0.2,0.6-0.7,1c-0.5,0.4-1.1,0.7-1.6,0.9c-0.6,0.3-1.1,0.4-1.3,0.4C185.2,147.3,185.2,147.2,185.2,147L185.2,147z"/>
	<path class="st1" d="M209.7,159.3c-0.1-0.1-0.3-0.3-0.5-0.6c-0.2-0.2-0.4-0.4-0.6-0.6c-0.2,0.3-0.6,0.6-1.1,0.8
		c-0.5,0.3-0.8,0.4-1.1,0.4s-0.2,0-0.4-0.2c-0.1-0.1-0.3-0.4-0.5-0.6c-0.2-0.2-0.4-0.4-0.7-0.6c-0.1-0.1-0.2-0.2-0.2-0.3
		c0-0.2,0.1-0.4,0.4-0.7c0.3-0.3,0.6-0.5,1-0.7c0.4-0.2,0.6-0.3,0.8-0.3c0.1,0,0.5,0.1,0.8,0.4c0.4,0.3,0.6,0.6,0.8,0.8
		c0.2-0.3,0.6-0.6,1-0.8c0.4-0.3,0.7-0.4,0.9-0.4c0.3,0,0.6,0.2,1.1,0.6c0.5,0.4,0.7,0.8,0.7,1.1c0,0.3-0.1,0.4-0.5,0.7
		c-0.3,0.3-0.6,0.5-1.1,0.7c-0.4,0.2-0.7,0.3-0.8,0.3s-0.1,0-0.3-0.2L209.7,159.3z M201.1,151.2c-1.8-1.3-2.7-3.3-2.7-5.8v-1.2
		c0.1-0.3,0.4-0.6,0.8-0.8c0.5-0.3,1-0.6,1.5-0.8c0.6-0.2,1.1-0.4,1.3-0.4c0.3,0,0.2,0.1,0.2,0.3v1.5c0,2,0.6,3.7,1.8,4.8
		c1.3,1.1,3,1.7,5.3,1.7c2.3,0,2.7-0.3,3.7-0.8c1-0.5,1.5-1.3,1.5-2.2v-0.3c-1.8-0.1-3.3-0.5-4.4-1.1c-1.1-0.6-1.6-1.6-1.6-2.9
		c0-1.9,0.8-3.4,2.5-4.6c1.7-1.1,4.1-1.7,7.2-1.7l-1.6,2.9c-0.7,0-1.5,0-2.4,0.1c-0.9,0.1-1.5,0.2-2,0.4c-0.2,0.5-0.3,0.9-0.3,1.3
		c0,0.9,0.4,1.6,1.3,2c0.9,0.4,2.1,0.7,3.7,0.7h1.4c0.1,0.5,0.1,0.9,0.1,1.2c0,1.3-0.4,2.6-1.3,3.7c-0.9,1.2-2.1,2.1-3.7,2.8
		c-1.5,0.7-3.4,1.1-5.3,1.1C205.4,153.2,203,152.5,201.1,151.2L201.1,151.2z"/>
	<path class="st1" d="M218.7,135.2c-0.1-0.1-0.3-0.4-0.5-0.6c-0.2-0.2-0.5-0.5-0.8-0.7c-0.1-0.1-0.2-0.2-0.2-0.3
		c0-0.2,0.1-0.5,0.5-0.8c0.4-0.3,0.7-0.6,1.1-0.8c0.4-0.2,0.7-0.4,0.8-0.4c0.3,0,0.7,0.2,1.2,0.7c0.5,0.5,0.8,0.8,0.8,1.1
		c0,0.3-0.1,0.5-0.5,0.8c-0.4,0.3-0.7,0.6-1.1,0.8c-0.4,0.2-0.7,0.4-0.9,0.4S218.8,135.4,218.7,135.2L218.7,135.2z M220.3,141.3
		v-1.2c-0.9-0.1-1.7-0.3-2.1-0.3h-1.8l2-2.9c1.7,0,3.2,0.1,4.6,0.4c0.1,0,0.1,0.1,0.1,0.1c-0.1,0.5-0.1,1.1-0.1,1.8
		c0,1.3,0.2,2.5,0.6,3.6c0.4,1.1,1.1,1.5,2.2,1.5s24.4,0.1,24.6,0.2c0.2,0.1,0.3,0.5,0.3,1s-0.1,1.1-0.3,1.3
		c-0.2,0.2-24,0.3-24.6,0.3h-0.3C222.1,147.1,220.4,145.1,220.3,141.3z"/>
	<path class="st1" d="M255.1,144.3h14.8c0-1.6-0.5-2.7-1.4-3.4c-0.9-0.6-2.4-1-4.5-1h-9L255.1,144.3L255.1,144.3z M224.5,146.8
		c-0.2-0.2-0.4-0.6-0.4-1.1c0-0.5,0.1-0.8,0.4-1.1c0.2-0.2,0.6-0.4,1.1-0.4h25.5v-13.1c0-0.3,0.2-0.6,0.7-0.9c0.5-0.4,1-0.7,1.6-0.9
		c0.6-0.3,1.1-0.4,1.3-0.4c0.3,0,0.3,0,0.3,0.2v6.9c0,0.5,0.1,0.8,0.3,0.9c0.1,0.1,0.4,0.2,0.7,0.2h10.4c2.5,0,4.4,0.5,5.5,1.5
		c1.2,1,1.8,2.7,1.8,5.2c0,2.5,0,0.7-0.1,0.9c-0.1,0.6-0.5,1.1-1.1,1.6c-0.6,0.5-1.3,0.8-2,0.8h-45
		C225.2,147.2,224.8,147,224.5,146.8z"/>
	<path class="st1" d="M283.2,143.6c0.8,0.6,1.8,0.8,3.2,0.8h1.7c0-1.6-0.4-2.9-1.1-3.9c-0.7-1-1.7-1.5-2.8-1.5
		c-1.1,0-1.3,0.2-1.7,0.6c-0.2,0.4-0.4,0.8-0.4,1.5C282.1,142.2,282.5,143,283.2,143.6L283.2,143.6z M275.8,150.7
		c-0.6-0.2-1-0.4-1-0.6c0-0.2,0.1-0.4,0.5-0.8c0.4-0.4,0.7-0.7,1.2-1c0.4-0.3,0.8-0.4,1.1-0.4c0.3,0,0.3,0,0.6,0.1
		c0.3,0.1,0.7,0.1,1.1,0.2c1.6,0.4,3.1,0.5,4.4,0.5c1.3,0,1.5,0,2.2-0.2c0.7-0.1,1.2-0.4,1.5-0.6c0.3-0.3,0.5-0.5,0.6-0.8h-3.6
		c-1.8,0-3.3-0.4-4.5-1.1c-1.2-0.7-1.8-1.9-1.8-3.4s0.4-2.2,1.1-3.3c0.7-1,1.6-1.8,2.8-2.4c1.2-0.6,2.4-0.8,3.7-0.8
		c1.3,0,2.3,0.3,3.3,0.8c1,0.6,1.7,1.3,2.2,2.2c0.6,0.9,0.8,2,0.8,3.2v1.9h1.8c0.5,0,0.8,0.1,1.1,0.4c0.2,0.2,0.4,0.6,0.4,1.1
		c0,0.5-0.1,0.8-0.4,1.1c-0.2,0.2-0.6,0.4-1.1,0.4h-2.5c-0.6,0.9-1.4,1.7-2.4,2.4c-1.1,0.7-2.2,1.3-3.4,1.5
		c-1.2,0.3-2.6,0.4-4.2,0.4C279.1,151.4,277.2,151.2,275.8,150.7L275.8,150.7z"/>
	<path class="st1" d="M296.9,147.2h-3.2c-0.5,0-0.8-0.1-1.1-0.4c-0.2-0.2-0.4-0.6-0.4-1.1c0-0.5,0.1-0.8,0.4-1.1
		c0.2-0.2,0.6-0.4,1.1-0.4h2.5v-13.1c0-0.3,0.2-0.6,0.7-0.9c0.5-0.4,1-0.7,1.6-0.9c0.6-0.3,1.1-0.4,1.3-0.4c0.3,0,0.3,0,0.3,0.2
		v14.1c0,0.8,0,1.3-0.1,1.4c-0.1,0.6-0.5,1.1-1.1,1.6C298.3,146.9,297.7,147.2,296.9,147.2L296.9,147.2z"/>
	<path class="st1" d="M304,147v-15.7c0-0.3,0.2-0.6,0.7-0.9c0.5-0.4,1-0.7,1.6-0.9c0.6-0.3,1.1-0.4,1.3-0.4s0.3,0,0.3,0.2V145
		c0,0.3-0.2,0.6-0.7,1c-0.5,0.4-1.1,0.7-1.6,0.9c-0.6,0.3-1.1,0.4-1.3,0.4C304,147.3,304,147.2,304,147L304,147z"/>
	<path class="st1" d="M332.5,145.4c0.1-0.1,0.3-0.4,0.4-0.7c0.1-0.4,0.1-0.7,0.1-1.1c0-1-0.4-1.9-1.2-2.7c-0.8-0.8-1.8-1.1-3.2-1.1
		c-1.4,0-0.8,0.1-1.1,0.2c-0.3,0.2-0.5,0.7-0.5,1.5c0,0.8,0.3,1.7,0.8,2.3c0.5,0.6,1.1,1.1,1.8,1.3c0.7,0.3,1.4,0.4,2,0.4
		C332.3,145.6,332.3,145.6,332.5,145.4L332.5,145.4z M317.4,153.1c-0.3-0.3-0.5-0.7-0.6-1.3c-0.1-0.6-0.1-1.2-0.1-2v-5.1
		c0-1,0.2-1.9,0.6-2.7c0.4-0.8,0.9-1.6,1.8-2.3c1.1-1,2.7-1.6,4.5-2c1.8-0.4,4.1-0.6,6.7-0.6c2.6,0,2.3,0.2,3.4,0.6
		c1,0.4,1.8,1,2.5,1.8c0.6,0.8,0.9,1.8,0.9,2.9c0,1.1-0.3,2.1-0.9,3c-0.6,0.9-1.5,1.6-2.5,2.2c-1.1,0.5-2.2,0.8-3.5,0.8
		c-1.3,0-2.2-0.2-3.3-0.6c-1.1-0.4-1.9-1.1-2.5-1.8c-0.6-0.8-1-1.8-1-2.8c0-1.1,0.4-2.2,1.1-3.2l-0.8,0.1c-0.9,0.2-1.5,0.5-2,0.8
		c-0.4,0.3-0.6,0.6-0.6,1.1c-0.1,0.5-0.1,1.1-0.1,2.1v4.4v1.6c0,0.3,0.2,0.6,0.4,0.8l0.3,0.3c0.1,0.1,0.1,0.1,0.1,0.2
		c0,0.2-0.2,0.4-0.7,0.8c-0.5,0.4-1,0.7-1.6,1c-0.6,0.3-1.1,0.4-1.3,0.4s-0.4-0.1-0.6-0.3L317.4,153.1z"/>
	<path class="st1" d="M345.6,143.6c0.8,0.6,1.8,0.8,3.2,0.8h1.7c0-1.6-0.4-2.9-1.1-3.9c-0.7-1-1.7-1.5-2.8-1.5
		c-1.1,0-1.3,0.2-1.7,0.6c-0.2,0.4-0.4,0.8-0.4,1.5C344.5,142.2,344.9,143,345.6,143.6L345.6,143.6z M338.2,150.7
		c-0.6-0.2-1-0.4-1-0.6c0-0.2,0.1-0.4,0.5-0.8c0.4-0.4,0.7-0.7,1.2-1c0.4-0.3,0.8-0.4,1.1-0.4c0.3,0,0.3,0,0.6,0.1
		c0.3,0.1,0.7,0.1,1.1,0.2c1.6,0.4,3.1,0.5,4.4,0.5c1.3,0,1.5,0,2.2-0.2c0.7-0.1,1.2-0.4,1.5-0.6c0.3-0.3,0.5-0.5,0.6-0.8h-3.6
		c-1.8,0-3.3-0.4-4.5-1.1c-1.2-0.7-1.8-1.9-1.8-3.4s0.4-2.2,1.1-3.3c0.7-1,1.6-1.8,2.8-2.4c1.2-0.6,2.4-0.8,3.7-0.8
		c1.3,0,2.3,0.3,3.3,0.8c1,0.6,1.7,1.3,2.2,2.2c0.6,1,0.8,2,0.8,3.2v1.9h1.8c0.5,0,0.8,0.1,1.1,0.4c0.2,0.2,0.4,0.6,0.4,1.1
		c0,0.5-0.1,0.8-0.4,1.1c-0.2,0.2-0.6,0.4-1.1,0.4h-2.5c-0.6,0.9-1.4,1.7-2.4,2.4c-1.1,0.7-2.2,1.3-3.4,1.5
		c-1.2,0.3-2.6,0.4-4.2,0.4C341.5,151.4,339.6,151.2,338.2,150.7L338.2,150.7z"/>
	<path class="st1" d="M355,146.8c-0.2-0.2-0.4-0.6-0.4-1.1c0-0.5,0.1-0.8,0.4-1.1c0.2-0.2,0.6-0.4,1.1-0.4h36.2
		c0.5,0,0.8,0.1,1.1,0.4c0.2,0.2,0.4,0.6,0.4,1.1c0,0.5-0.1,0.8-0.4,1.1c-0.2,0.2-0.6,0.4-1.1,0.4h-36.2
		C355.7,147.2,355.3,147,355,146.8"/>
	<path class="st1" d="M397.4,153.2c-0.1-0.1-0.3-0.3-0.5-0.6c-0.2-0.2-0.4-0.4-0.6-0.6c-0.2,0.3-0.6,0.6-1.1,0.8
		c-0.5,0.3-0.8,0.4-1.1,0.4c-0.2,0-0.2,0-0.4-0.2c-0.1-0.1-0.3-0.4-0.5-0.6c-0.2-0.2-0.4-0.4-0.7-0.6c-0.1-0.1-0.2-0.2-0.2-0.3
		c0-0.2,0.1-0.4,0.4-0.7c0.3-0.3,0.6-0.5,1-0.7c0.4-0.2,0.6-0.3,0.8-0.3s0.5,0.1,0.8,0.4c0.4,0.3,0.6,0.6,0.8,0.8
		c0.2-0.3,0.6-0.6,1-0.8c0.4-0.3,0.7-0.4,0.9-0.4c0.3,0,0.6,0.2,1.1,0.6c0.5,0.4,0.7,0.8,0.7,1.1c0,0.3-0.1,0.4-0.5,0.7
		c-0.3,0.3-0.6,0.5-1.1,0.7c-0.4,0.2-0.7,0.3-0.8,0.3s-0.1,0-0.3-0.2L397.4,153.2z M397.1,146.9h-0.4c-0.4,0.1-0.8,0.1-1.2,0.1h-3.2
		c-0.5,0-34.2-0.1-34.5-0.4c-0.2-0.2-0.4-0.6-0.4-1.1s0.1-0.8,0.4-1.1c0.2-0.2,34-0.4,34.5-0.4h2.5v-1.8c0-1.4-0.2-2.5-0.6-3v-0.1
		c0-0.1,0-0.2,0.1-0.3c0.4-0.4,0.9-0.8,1.7-1.3c0.8-0.4,1.4-0.6,1.9-0.6s0.2,0,0.3,0.1c0.2,0.4,0.4,0.9,0.5,1.6
		c0.1,0.6,0.1,1.5,0.1,2.7v2c0,0.3,0,0.5,0.2,0.6c0.1,0.1,0.4,0.1,0.8,0.1h1.5c0.6,0,0.8,0.1,1.1,0.4c0.2,0.2,0.4,0.6,0.4,1.1
		c0,0.5-0.1,0.8-0.4,1.1c-0.2,0.2-0.6,0.4-1.1,0.4c-1.9,0-3.2,0-4-0.1L397.1,146.9z"/>
	<path class="st1" d="M404.2,147.2h-3.2c-0.5,0-0.8-0.1-1.1-0.4c-0.2-0.2-0.4-0.6-0.4-1.1c0-0.5,0.1-0.8,0.4-1.1
		c0.2-0.2,0.6-0.4,1.1-0.4h2.5v-13.1c0-0.3,0.2-0.6,0.7-0.9c0.5-0.4,1-0.7,1.6-0.9c0.6-0.3,1.1-0.4,1.3-0.4c0.3,0,0.3,0,0.3,0.2
		v14.1c0,0.8,0,1.3-0.1,1.4c-0.1,0.6-0.5,1.1-1.1,1.6C405.6,146.9,405,147.2,404.2,147.2L404.2,147.2z"/>
	<path class="st1" d="M411.3,147v-15.7c0-0.3,0.2-0.6,0.7-0.9c0.5-0.4,1-0.7,1.6-0.9c0.6-0.3,1.1-0.4,1.3-0.4s0.3,0,0.3,0.2V145
		c0,0.3-0.2,0.6-0.7,1c-0.5,0.4-1.1,0.7-1.6,0.9c-0.6,0.3-1.1,0.4-1.3,0.4C411.3,147.3,411.3,147.2,411.3,147L411.3,147z"/>
	<path class="st1" d="M9.6,179.2c-0.4-0.1-0.7-0.3-0.9-0.4s-0.4-0.3-0.4-0.4c0-0.2,0.1-0.4,0.4-0.7c0.2-0.3,0.4-0.4,0.6-0.4
		c0.1,0,0.1,0,0.2,0.1c0.3,0.3,0.6,0.5,0.9,0.6c0.4,0.1,0.8,0.3,1.3,0.3c0.5,0,0.8-0.1,0.9-0.2c0.1-0.1,0.1-0.2,0.2-0.4
		c0-0.2,0.1-0.4,0.1-0.6c0-0.4,0-0.7-0.1-0.9c-0.1-0.2-0.3-0.4-0.5-0.5c-0.2-0.1-0.6-0.2-1.1-0.4c-0.9-0.2-1.5-0.4-2-0.7
		c-0.4-0.3-0.6-0.8-0.6-1.5s0.1-1.1,0.4-1.5c0.3-0.5,0.7-0.8,1.1-1.1c0.5-0.3,1-0.4,1.5-0.4c0.5,0,0.8,0,1.2,0.2
		c0.4,0.2,0.7,0.3,0.9,0.4c0.2,0.1,0.4,0.3,0.4,0.4c0,0.2-0.1,0.4-0.4,0.7c-0.3,0.3-0.4,0.4-0.6,0.4c-0.1,0-0.1,0-0.2-0.1
		c-0.2-0.2-0.5-0.4-0.8-0.6c-0.4-0.2-0.7-0.3-1.1-0.3c-0.4,0-0.6,0-0.7,0.1c-0.1,0.1-0.1,0.2-0.2,0.4c-0.1,0.1-0.1,0.4-0.1,0.6
		c0,0.4,0,0.7,0.1,0.9c0.1,0.2,0.3,0.4,0.5,0.5c0.2,0.1,0.6,0.2,1.1,0.4c0.8,0.1,1.5,0.4,2,0.7c0.4,0.3,0.7,0.8,0.7,1.5
		c0,0.7-0.1,1.1-0.4,1.6c-0.3,0.5-0.7,0.8-1.3,1.1c-0.5,0.3-1.1,0.4-1.8,0.4s-0.8,0-1.2-0.2L9.6,179.2z"/>
	<path class="st1" d="M31.9,171.5c-0.5,1.2-1,2.5-1.3,3.7h2.6C32.8,174,32.4,172.8,31.9,171.5z M28,179.2V179
		c0.4-1.3,0.9-2.8,1.6-4.4c0.6-1.6,1.3-2.9,1.8-4.1c0-0.1,0.2-0.2,0.4-0.2c0.2,0,0.5-0.1,0.7-0.1c0.2,0,0.2,0.1,0.3,0.2
		c0.4,1.1,0.9,2.3,1.4,3.9c0.5,1.5,1,2.8,1.3,3.9c0.1,0.2,0.1,0.4,0.1,0.4c0,0.1-0.1,0.3-0.5,0.6c-0.4,0.3-0.6,0.4-0.7,0.4
		c-0.1,0-0.1-0.1-0.2-0.2l-0.8-2.7h-3.3c-0.3,0.9-0.4,1.8-0.5,2.5c0,0.2-0.2,0.3-0.6,0.4c-0.4,0.1-0.6,0.1-0.9,0.1
		c-0.3,0-0.2,0-0.2-0.1L28,179.2z"/>
	<path class="st1" d="M50.7,178.2c-0.4-0.8-0.6-1.8-0.6-3.2v-4c0-0.1,0.2-0.4,0.6-0.6c0.4-0.2,0.6-0.4,0.8-0.4c0.1,0,0.1,0,0.1,0.1
		v3.8c0,0.9,0,1.8,0.1,2.3c0.1,0.6,0.3,1.1,0.6,1.5c0.4,0.4,0.8,0.6,1.5,0.6c0.6,0,0.6,0,0.7-0.2c0.1-0.1,0.2-0.5,0.3-1.1
		c0.1-0.6,0.1-1.5,0.1-2.5V171c0-0.1,0.2-0.4,0.6-0.6c0.4-0.2,0.6-0.4,0.8-0.4s0.1,0,0.1,0.1v3.3c0,1.5-0.1,2.7-0.4,3.5
		c-0.3,0.8-0.6,1.5-1.2,1.8c-0.5,0.4-1.2,0.6-2,0.6C52,179.3,51,178.9,50.7,178.2L50.7,178.2z"/>
	<path class="st1" d="M76.5,178c0.1-0.1,0.2-0.5,0.4-1.1c0.1-0.6,0.2-1.4,0.2-2.4c0-2.2-0.7-3.3-2.2-3.3h-1.3v6.7
		c0.2,0.1,0.6,0.1,0.9,0.2c0.4,0.1,0.8,0.1,1.1,0.1C76.1,178.2,76.3,178.2,76.5,178L76.5,178z M72.3,179.2h-0.1V179v-8.6
		c0-0.1,0-0.1,0.2-0.1c1.2-0.1,2.2-0.2,3.3-0.2c1.1,0,1.6,0.3,2.1,0.9c0.5,0.6,0.8,1.5,0.8,2.5c0,2.1-0.4,3.7-1,4.6
		c-0.6,0.9-1.6,1.3-2.9,1.3C73.4,179.4,73.1,179.4,72.3,179.2L72.3,179.2z"/>
	<path class="st1" d="M93.8,179.2V171c0-0.1,0.2-0.4,0.6-0.6c0.4-0.2,0.6-0.4,0.8-0.4c0.1,0,0.1,0,0.1,0.1v8.2
		c0,0.1-0.1,0.3-0.3,0.4c-0.2,0.1-0.4,0.3-0.6,0.4c-0.2,0.1-0.4,0.1-0.5,0.1C93.8,179.4,93.8,179.4,93.8,179.2z"/>
	<path class="st1" d="M127.1,179.2V171c0-0.1,0.1-0.4,0.5-0.6c0.4-0.2,0.6-0.4,0.7-0.4h0.1l4,6.7V171c0-0.1,0.1-0.4,0.5-0.6
		c0.3-0.2,0.6-0.4,0.6-0.4c0.1,0,0.1,0,0.1,0.1v8.2c0,0.1-0.1,0.4-0.5,0.6c-0.4,0.2-0.6,0.4-0.7,0.4h-0.1l-4-6.7v5.8
		c0,0.1-0.1,0.4-0.5,0.6c-0.3,0.2-0.6,0.4-0.6,0.4C127.2,179.4,127.1,179.4,127.1,179.2"/>
	<path class="st1" d="M152,171.5c-0.5,1.2-1,2.5-1.3,3.7h2.6C152.9,174,152.5,172.8,152,171.5z M148.1,179.2V179
		c0.4-1.3,0.9-2.8,1.6-4.4c0.6-1.6,1.3-2.9,1.8-4.1c0-0.1,0.2-0.2,0.4-0.2c0.2,0,0.5-0.1,0.7-0.1c0.2,0,0.2,0.1,0.3,0.2
		c0.4,1.1,0.9,2.3,1.4,3.9c0.5,1.5,1,2.8,1.3,3.9c0.1,0.2,0.1,0.4,0.1,0.4c0,0.1-0.1,0.3-0.5,0.6c-0.4,0.3-0.6,0.4-0.7,0.4
		c-0.1,0-0.1-0.1-0.2-0.2l-0.8-2.7h-3.3c-0.3,0.9-0.4,1.8-0.5,2.5c0,0.2-0.2,0.3-0.6,0.4c-0.4,0.1-0.6,0.1-0.9,0.1s-0.2,0-0.2-0.1
		L148.1,179.2z"/>
	<path class="st1" d="M171.7,179.2v-7.9H171h-1.1h-0.6c-0.1,0-0.1,0-0.1-0.1c0-0.1,0.1-0.2,0.2-0.5c0.4-0.5,0.7-0.8,0.9-0.8h5.4
		c0.1,0,0.2,0,0.2,0.1s0,0.3-0.1,0.4c-0.1,0.2-0.2,0.4-0.4,0.5c-0.1,0.1-0.2,0.1-0.4,0.1h-1.3h-0.6v7c0,0.1-0.1,0.3-0.3,0.4
		c-0.2,0.1-0.4,0.3-0.6,0.4c-0.2,0.1-0.4,0.1-0.5,0.1s-0.1,0-0.1-0.1V179.2z"/>
	<path class="st1" d="M190.3,179.2V171c0-0.1,0.2-0.4,0.6-0.6c0.4-0.2,0.6-0.4,0.8-0.4c0.1,0,0.1,0,0.1,0.1v8.2
		c0,0.1-0.1,0.3-0.3,0.4s-0.4,0.3-0.6,0.4c-0.2,0.1-0.4,0.1-0.5,0.1S190.3,179.4,190.3,179.2z"/>
	<path class="st1" d="M211.7,178.2c0.1-0.1,0.2-0.5,0.4-1.2c0.1-0.6,0.2-1.5,0.2-2.5c0-1-0.2-2-0.6-2.5c-0.4-0.6-0.9-0.9-1.6-0.9
		c-0.7,0-0.4,0-0.6,0.1c-0.2,0-0.4,0.1-0.4,0.1c-0.1,0.1-0.2,0.4-0.3,0.8c-0.1,0.4-0.1,1-0.1,1.7c0,0.7,0,1.7,0.1,2.4
		c0.1,0.7,0.4,1.1,0.7,1.5c0.4,0.4,0.8,0.6,1.5,0.6c0.7,0,0.6,0,0.7-0.2L211.7,178.2z M207.2,175.1c0-1.8,0.4-3,1-3.8
		c0.6-0.8,1.5-1.2,2.7-1.2c1.1,0,1.6,0.3,2.1,0.9c0.5,0.6,0.8,1.5,0.8,2.5c0,2.2-0.3,3.7-0.9,4.6c-0.6,0.9-1.5,1.3-2.8,1.3
		C208.1,179.4,207.1,178,207.2,175.1L207.2,175.1z"/>
	<path class="st1" d="M229.1,179.2V171c0-0.1,0.1-0.4,0.5-0.6c0.4-0.2,0.6-0.4,0.7-0.4h0.1l4,6.7V171c0-0.1,0.1-0.4,0.5-0.6
		c0.3-0.2,0.6-0.4,0.6-0.4c0.1,0,0.1,0,0.1,0.1v8.2c0,0.1-0.1,0.4-0.5,0.6c-0.4,0.2-0.6,0.4-0.7,0.4h-0.1l-4-6.7v5.8
		c0,0.1-0.1,0.4-0.5,0.6c-0.3,0.2-0.6,0.4-0.6,0.4C229.2,179.4,229.1,179.4,229.1,179.2"/>
	<path class="st1" d="M254,171.5c-0.5,1.2-1,2.5-1.3,3.7h2.6C254.9,174,254.5,172.8,254,171.5 M250.1,179.2V179
		c0.4-1.3,0.9-2.8,1.6-4.4c0.6-1.6,1.3-2.9,1.8-4.1c0-0.1,0.2-0.2,0.4-0.2c0.2,0,0.5-0.1,0.7-0.1s0.2,0.1,0.3,0.2
		c0.4,1.1,0.9,2.3,1.4,3.9c0.5,1.5,1,2.8,1.3,3.9c0.1,0.2,0.1,0.4,0.1,0.4c0,0.1-0.1,0.3-0.5,0.6c-0.4,0.3-0.6,0.4-0.7,0.4
		c-0.1,0-0.1-0.1-0.2-0.2l-0.8-2.7h-3.3c-0.3,0.9-0.4,1.8-0.5,2.5c0,0.2-0.2,0.3-0.6,0.4c-0.4,0.1-0.6,0.1-0.9,0.1
		c-0.3,0-0.2,0-0.2-0.1L250.1,179.2z"/>
	<path class="st1" d="M272.3,179.2v-8.1c0-0.1,0.2-0.4,0.6-0.6c0.4-0.2,0.6-0.4,0.8-0.4s0.1,0,0.1,0.1v7.9h1.5h1.1h0.6
		c0.1,0,0.1,0,0.1,0.1s-0.1,0.2-0.2,0.5c-0.4,0.5-0.7,0.8-0.9,0.8h-3.6c-0.1,0-0.1,0-0.1-0.1L272.3,179.2z"/>
	<path class="st1" d="M312.2,178c0.1-0.1,0.2-0.5,0.4-1.1c0.1-0.6,0.2-1.4,0.2-2.4c0-2.2-0.7-3.3-2.2-3.3h-1.3v6.7
		c0.2,0.1,0.6,0.1,0.9,0.2c0.4,0.1,0.8,0.1,1.1,0.1C311.8,178.2,312.1,178.2,312.2,178L312.2,178z M308.1,179.2h-0.1V179v-8.6
		c0-0.1,0-0.1,0.2-0.1c1.2-0.1,2.2-0.2,3.3-0.2c1.1,0,1.6,0.3,2.1,0.9c0.5,0.6,0.8,1.5,0.8,2.5c0,2.1-0.4,3.7-1,4.6
		c-0.6,0.9-1.6,1.3-2.9,1.3C309.2,179.4,308.9,179.4,308.1,179.2L308.1,179.2z"/>
	<path class="st1" d="M332.3,171.5c-0.5,1.2-1,2.5-1.3,3.7h2.6C333.3,174,332.8,172.8,332.3,171.5 M328.5,179.2V179
		c0.4-1.3,0.9-2.8,1.6-4.4c0.6-1.6,1.3-2.9,1.8-4.1c0-0.1,0.2-0.2,0.4-0.2c0.2,0,0.5-0.1,0.7-0.1s0.2,0.1,0.3,0.2
		c0.4,1.1,0.9,2.3,1.4,3.9c0.5,1.5,1,2.8,1.3,3.9c0.1,0.2,0.1,0.4,0.1,0.4c0,0.1-0.1,0.3-0.5,0.6c-0.4,0.3-0.6,0.4-0.7,0.4
		c-0.1,0-0.1-0.1-0.2-0.2l-0.8-2.7h-3.3c-0.3,0.9-0.4,1.8-0.5,2.5c0,0.2-0.2,0.3-0.6,0.4s-0.6,0.1-0.9,0.1c-0.3,0-0.2,0-0.2-0.1
		L328.5,179.2z"/>
	<path class="st1" d="M352.4,179.2v-3.9c-1.1-1.5-2-2.8-2.8-4c-0.1-0.1-0.1-0.2-0.1-0.3c0-0.1,0.1-0.4,0.5-0.6
		c0.4-0.3,0.6-0.4,0.8-0.4h0.1v0.1c0.3,0.6,0.8,1.3,1.3,2.2s1,1.6,1.4,2.1c0.6-0.9,1-1.8,1.3-2.5s0.5-1.3,0.5-1.7
		c0-0.1,0-0.2,0.1-0.2c0.1,0,0.2-0.1,0.4-0.1c0.3,0,0.6,0,0.8,0.1c0.2,0,0.4,0.1,0.4,0.2v0.2c0,0.1-0.1,0.2-0.1,0.3
		c-0.2,0.4-0.6,1.1-1.2,2.1c-0.6,1-1.1,1.8-1.5,2.3v3.5c0,0.1-0.1,0.3-0.5,0.4c-0.4,0.1-0.6,0.1-0.8,0.1c-0.2,0-0.1,0-0.1-0.1
		L352.4,179.2z"/>
	<path class="st1" d="M391.6,174.3c0.1,0,0.1-0.1,0.1-0.1c0-0.3,0-0.7-0.2-1.3c-0.2-0.6-0.3-1-0.6-1.2c-0.4-0.4-0.7-0.5-1.1-0.5
		c-0.4,0-0.8,0.1-1.2,0.5c-0.4,0.4-0.5,0.7-0.5,1.3c0,0.6,0.2,1,0.7,1.2c0.5,0.2,1.1,0.4,1.7,0.4S391.3,174.5,391.6,174.3
		L391.6,174.3z M388,179.2c-0.4-0.1-0.8-0.4-1.1-0.6c-0.2-0.1-0.3-0.3-0.3-0.4c0-0.1,0.1-0.4,0.5-0.6c0.4-0.3,0.6-0.4,0.8-0.4h0.1
		c0.3,0.3,0.6,0.6,1,0.7c0.4,0.1,0.8,0.2,1.2,0.2c0.4,0,0.9,0,1-0.2c0.3-0.3,0.5-1.1,0.5-2.3v-1.2c-0.2,0.2-0.5,0.4-0.8,0.6
		c-0.3,0.1-0.5,0.3-0.7,0.3c-0.3,0.1-0.6,0.1-1,0.1c-0.8,0-1.5-0.2-2-0.6c-0.2-0.1-0.4-0.4-0.5-0.6c-0.1-0.2-0.1-0.5-0.1-0.8
		c0-0.5,0.2-1.1,0.6-1.6c0.4-0.6,0.9-1.1,1.5-1.4c0.6-0.4,1.3-0.6,1.9-0.6c0.6,0,1.3,0.3,1.7,0.8c0.4,0.5,0.6,1.1,0.6,1.8
		c0.1,0.6,0.1,1.4,0.1,2.2c0,0.8-0.2,1.8-0.6,2.5c-0.4,0.7-0.8,1.2-1.5,1.5c-0.6,0.4-1.3,0.5-1.9,0.5S388.4,179.3,388,179.2
		L388,179.2z"/>
	<path class="st1" d="M409,179.2c-0.4-0.1-0.8-0.4-1-0.6c-0.3-0.2-0.4-0.4-0.4-0.6c0-0.2,0.1-0.3,0.2-0.4s0.3-0.3,0.5-0.4
		c0.2-0.1,0.4-0.1,0.4-0.1c0.1,0,0.1,0,0.2,0.1c0.1,0.3,0.5,0.6,0.9,0.8c0.4,0.3,0.9,0.4,1.5,0.4c0.6,0,0.6,0,0.8-0.1
		c0.1-0.1,0.2-0.4,0.2-0.9c0-0.8-0.3-1.3-0.9-1.8c-0.6-0.4-1.4-0.6-2.5-0.6c-1.1,0-0.2,0-0.1-0.1l0.4-4.4c0-0.1,0.1-0.2,0.3-0.2h3.2
		h1.1h0.6c0.1,0,0.1,0,0.1,0.1s-0.1,0.3-0.2,0.5c-0.2,0.3-0.4,0.5-0.6,0.6c-0.1,0.1-0.4,0.2-0.5,0.2h-3.1l-0.1,2
		c1.1,0,2.1,0.3,2.8,0.7c0.7,0.4,1.1,1.1,1.1,2.1c0,1-0.1,1.1-0.5,1.5c-0.4,0.5-0.8,0.8-1.3,1.1c-0.5,0.3-1.1,0.4-1.6,0.4
		c-0.6,0-0.9-0.1-1.3-0.3H409z"/>
</g>
</svg>
