<?xml version="1.0" encoding="utf-8"?>
<!-- Generator: Adobe Illustrator 27.3.1, SVG Export Plug-In . SVG Version: 6.00 Build 0)  -->
<svg version="1.1" id="Layer_1" xmlns="http://www.w3.org/2000/svg" xmlns:xlink="http://www.w3.org/1999/xlink" x="0px" y="0px"
	 viewBox="0 0 100 100" style="enable-background:new 0 0 100 100;" xml:space="preserve">
<style type="text/css">
	.st0{fill:#BDFBBC;}
	.st1{clip-path:url(#SVGID_00000058585382649278057480000006007020359302476733_);}
	.st2{fill:none;stroke:#184F4D;stroke-width:2.3893;stroke-linecap:round;stroke-linejoin:round;}
</style>
<g>
	<path class="st0" d="M37.7,27.3h24.5c5.7,0,10.4,4.7,10.4,10.4v24.5c0,5.7-4.7,10.4-10.4,10.4H37.7c-5.7,0-10.4-4.7-10.4-10.4V37.7
		C27.3,32,32,27.3,37.7,27.3z"/>
	<g>
		<defs>
			<rect id="SVGID_1_" x="35.7" y="35.7" width="28.7" height="28.7"/>
		</defs>
		<clipPath id="SVGID_00000094579137450780596680000002753825737734379921_">
			<use xlink:href="#SVGID_1_"  style="overflow:visible;"/>
		</clipPath>
		<g style="clip-path:url(#SVGID_00000094579137450780596680000002753825737734379921_);">
			<path class="st2" d="M45.2,44c0,1.3,0.5,2.5,1.4,3.4c0.9,0.9,2.1,1.4,3.4,1.4s2.5-0.5,3.4-1.4c0.9-0.9,1.4-2.1,1.4-3.4
				c0-1.3-0.5-2.5-1.4-3.4c-0.9-0.9-2.1-1.4-3.4-1.4s-2.5,0.5-3.4,1.4C45.7,41.5,45.2,42.8,45.2,44z"/>
			<path class="st2" d="M42.8,60.8v-2.4c0-1.3,0.5-2.5,1.4-3.4c0.9-0.9,2.1-1.4,3.4-1.4h3.6"/>
			<path class="st2" d="M54.8,61.9l6-6"/>
			<path class="st2" d="M60.8,61.3V56h-5.4"/>
		</g>
	</g>
</g>
</svg>
