<?xml version="1.0" encoding="utf-8"?>
<!-- Generator: Adobe Illustrator 27.3.1, SVG Export Plug-In . SVG Version: 6.00 Build 0)  -->
<svg version="1.1" id="Layer_1" xmlns="http://www.w3.org/2000/svg" xmlns:xlink="http://www.w3.org/1999/xlink" x="0px" y="0px"
	 viewBox="0 0 100 100" style="enable-background:new 0 0 100 100;" xml:space="preserve">
<style type="text/css">
	.st0{fill:#184F4D;}
	.st1{fill:none;stroke:#BDFBBC;stroke-width:1.5816;}
	.st2{fill:none;stroke:#BDFBBC;stroke-width:1.5816;stroke-linecap:round;}
	.st3{fill:none;stroke:#BDFBBC;stroke-width:1.5816;stroke-linecap:round;stroke-linejoin:round;}
</style>
<g>
	<path class="st0" d="M38.7,29.1h22.7c5.3,0,9.6,4.3,9.6,9.6v22.7c0,5.3-4.3,9.6-9.6,9.6H38.7c-5.3,0-9.6-4.3-9.6-9.6V38.7
		C29.1,33.4,33.4,29.1,38.7,29.1z"/>
	<g>
		<path class="st1" d="M49.6,45.8c4.7,0,8.4-1.4,8.4-3.2c0-1.7-3.8-3.2-8.4-3.2c-4.7,0-8.4,1.4-8.4,3.2
			C41.1,44.4,44.9,45.8,49.6,45.8z"/>
		<path class="st2" d="M44.3,48.8c0.6,0.2,1.3,0.3,2.1,0.5"/>
		<path class="st2" d="M41.1,50c0,1.6,3.2,2.9,7.4,3.1"/>
		<path class="st2" d="M44.3,56.2c0.6,0.2,1.3,0.3,2.1,0.5"/>
		<path class="st3" d="M49.6,60.5c-4.7,0-8.4-1.4-8.4-3.2V42.6 M58,42.6v6.3"/>
		<path class="st2" d="M55.9,59.2v1.4 M55.9,59.2c-1.2,0-2.3-0.6-2.9-1.5 M55.9,59.2c1.2,0,2.3-0.6,2.9-1.5 M53,57.7l-1.3,0.8
			 M53,57.7c-0.4-0.5-0.6-1.2-0.6-1.9c0-0.7,0.2-1.3,0.6-1.9 M58.8,57.7l1.3,0.8 M58.8,57.7c0.4-0.5,0.6-1.2,0.6-1.9
			c0-0.7-0.2-1.3-0.6-1.9 M55.9,52.4c1.2,0,2.3,0.6,2.9,1.5 M55.9,52.4c-1.2,0-2.3,0.6-2.9,1.5 M55.9,52.4v-1.4 M58.8,53.9l1.3-0.8
			 M53,53.9l-1.3-0.8"/>
	</g>
</g>
</svg>
