<?xml version="1.0" encoding="utf-8"?>
<!-- Generator: Adobe Illustrator 27.3.1, SVG Export Plug-In . SVG Version: 6.00 Build 0)  -->
<svg version="1.1" id="Layer_1" xmlns="http://www.w3.org/2000/svg" xmlns:xlink="http://www.w3.org/1999/xlink" x="0px" y="0px"
	 viewBox="0 0 100 100" style="enable-background:new 0 0 100 100;" xml:space="preserve">
<style type="text/css">
	.st0{fill:#184F4D;}
	.st1{fill:none;stroke:#BDFBBC;stroke-width:1.65;stroke-linecap:round;}
	.st2{fill:none;stroke:#BDFBBC;stroke-width:1.65;stroke-linecap:round;stroke-linejoin:round;}
	.st3{fill:none;stroke:#BDFBBC;stroke-width:1.65;}
</style>
<g>
	<path class="st0" d="M38.7,29.1h22.7c5.3,0,9.6,4.3,9.6,9.6v22.7c0,5.3-4.3,9.6-9.6,9.6H38.7c-5.3,0-9.6-4.3-9.6-9.6V38.7
		C29.1,33.4,33.4,29.1,38.7,29.1z"/>
	<g>
		<path class="st1" d="M48.9,59.9h-1.5c-3.9,0-5.9,0-7.1-1.2C39,57.4,39,55.4,39,51.4c0-4,0-6,1.2-7.3c1.2-1.2,3.2-1.2,7.1-1.2h4.2
			c3.9,0,5.9,0,7.1,1.2c0.9,1,1.2,2.4,1.2,4.8"/>
		<path class="st2" d="M58.8,58.8L61,61 M60,56.1c0-2.1-1.7-3.9-3.9-3.9c-2.1,0-3.9,1.7-3.9,3.9c0,2.1,1.7,3.9,3.9,3.9
			C58.2,60,60,58.2,60,56.1z"/>
		<path class="st3" d="M54.4,42.9l-0.1-0.3c-0.5-1.7-0.8-2.5-1.5-3C52.2,39,51.3,39,49.6,39h-0.3c-1.7,0-2.6,0-3.2,0.5
			c-0.6,0.5-0.9,1.3-1.5,3l-0.1,0.3"/>
	</g>
</g>
</svg>
