<?xml version="1.0" encoding="utf-8"?>
<!-- Generator: Adobe Illustrator 27.3.1, SVG Export Plug-In . SVG Version: 6.00 Build 0)  -->
<svg version="1.1" id="Layer_1" xmlns="http://www.w3.org/2000/svg" xmlns:xlink="http://www.w3.org/1999/xlink" x="0px" y="0px"
	 viewBox="0 0 150 150" style="enable-background:new 0 0 150 150;" xml:space="preserve">
<style type="text/css">
	.st0{fill:none;stroke:#1A514F;stroke-width:8.7251;stroke-linecap:round;}
</style>
<g>
	<path class="st0" d="M100.9,68.8c0-1.8,0-2.7,0.3-3.5c0.8-2.3,2.9-3.2,4.9-4.2c2.3-1.1,3.5-1.6,4.6-1.7c1.3-0.1,2.6,0.2,3.7,0.8
		c1.5,0.8,2.5,2.4,3.6,3.7c4.9,5.9,7.3,8.9,8.2,12.2c0.7,2.6,0.7,5.4,0,8.1c-1.3,4.8-5.4,8.8-8.5,12.5c-1.6,1.9-2.3,2.8-3.3,3.4
		c-1.1,0.6-2.4,0.9-3.7,0.8c-1.2-0.1-2.3-0.6-4.6-1.7c-2.1-0.9-4.1-1.8-4.9-4.2c-0.3-0.8-0.3-1.7-0.3-3.5V68.8z"/>
	<path class="st0" d="M49.1,68.8c0-2.3-0.1-4.3-1.9-5.9c-0.7-0.6-1.5-1-3.3-1.8c-2.3-1.1-3.5-1.6-4.6-1.7c-3.5-0.3-5.3,2.1-7.3,4.5
		c-4.9,5.9-7.3,8.9-8.2,12.2c-0.7,2.6-0.7,5.4,0,8.1C25,89,29.1,93,32.1,96.7c1.9,2.3,3.8,4.5,7.1,4.2c1.2-0.1,2.3-0.6,4.6-1.7
		c1.8-0.8,2.6-1.2,3.3-1.8c1.8-1.6,1.9-3.6,1.9-5.9V68.8z"/>
	<path class="st0" d="M38.7,59.4c0-17.2,16.3-31.1,36.3-31.1s36.3,13.9,36.3,31.1"/>
	<path class="st0" d="M111.3,100.9v4.2c0,9.2-9.3,16.6-20.8,16.6H80.2"/>
</g>
</svg>
