<?xml version="1.0" encoding="utf-8"?>
<!-- Generator: Adobe Illustrator 27.3.1, SVG Export Plug-In . SVG Version: 6.00 Build 0)  -->
<svg version="1.1" id="Layer_1" xmlns="http://www.w3.org/2000/svg" xmlns:xlink="http://www.w3.org/1999/xlink" x="0px" y="0px"
	 viewBox="0 0 150 150" style="enable-background:new 0 0 150 150;" xml:space="preserve">
<style type="text/css">
	.st0{fill:none;stroke:#1A514F;stroke-width:7.117;}
	.st1{fill:none;stroke:#1A514F;stroke-width:7.117;stroke-linecap:round;}
	.st2{fill:none;stroke:#1A514F;stroke-width:7.117;stroke-linecap:round;stroke-linejoin:round;}
</style>
<g>
	<path class="st0" d="M70.3,56c21,0,38-6.4,38-14.2c0-7.9-17-14.2-38-14.2c-21,0-38,6.4-38,14.2C32.3,49.6,49.3,56,70.3,56z"/>
	<path class="st1" d="M46.5,69.5c2.9,0.9,6,1.6,9.5,2.1"/>
	<path class="st1" d="M32.3,75c0,7.3,14.5,13.2,33.2,14.1"/>
	<path class="st1" d="M46.5,102.7c2.9,0.9,6,1.6,9.5,2.1"/>
	<path class="st2" d="M70.3,122.4c-21,0-38-6.4-38-14.2V41.8 M108.2,41.8v28.5"/>
	<path class="st1" d="M98.7,116.3v6.1 M98.7,116.3c-5.5,0-10.3-2.7-13.2-6.8 M98.7,116.3c5.5,0,10.3-2.7,13.2-6.8 M85.6,109.6
		l-5.8,3.7 M85.6,109.6c-1.7-2.4-2.7-5.3-2.7-8.5c0-3.1,1-6,2.7-8.5 M111.9,109.6l5.8,3.7 M111.9,109.6c1.7-2.4,2.7-5.3,2.7-8.5
		c0-3.1-1-6-2.7-8.5 M98.7,85.8c5.5,0,10.3,2.7,13.2,6.8 M98.7,85.8c-5.5,0-10.3,2.7-13.2,6.8 M98.7,85.8v-6.1 M111.9,92.6l5.8-3.7
		 M85.6,92.6l-5.8-3.7"/>
</g>
</svg>
