<?xml version="1.0" encoding="utf-8"?>
<!-- Generator: Adobe Illustrator 27.3.1, SVG Export Plug-In . SVG Version: 6.00 Build 0)  -->
<svg version="1.1" id="Layer_1" xmlns="http://www.w3.org/2000/svg" xmlns:xlink="http://www.w3.org/1999/xlink" x="0px" y="0px"
	 viewBox="0 0 150 150" style="enable-background:new 0 0 150 150;" xml:space="preserve">
<style type="text/css">
	.st0{clip-path:url(#SVGID_00000128475723888524999640000004361193742316827809_);}
	.st1{fill:none;stroke:#1A514F;stroke-width:8.3057;stroke-linecap:square;stroke-linejoin:round;}
</style>
<g>
	<defs>
		<rect id="SVGID_1_" x="13.6" y="13.6" width="122.8" height="122.8"/>
	</defs>
	<clipPath id="SVGID_00000093165632970864323310000003619354144308242615_">
		<use xlink:href="#SVGID_1_"  style="overflow:visible;"/>
	</clipPath>
	<g style="clip-path:url(#SVGID_00000093165632970864323310000003619354144308242615_);">
		<path class="st1" d="M28.9,46.9c0,2.4,0.5,4.7,1.4,6.9c0.9,2.2,2.2,4.1,3.9,5.8c1.7,1.7,3.6,3,5.8,3.9c2.2,0.9,4.5,1.4,6.9,1.4
			c2.4,0,4.7-0.5,6.9-1.4c2.2-0.9,4.1-2.2,5.8-3.9c1.7-1.7,3-3.6,3.9-5.8c0.9-2.2,1.4-4.5,1.4-6.9c0-2.4-0.5-4.7-1.4-6.9
			c-0.9-2.2-2.2-4.1-3.9-5.8c-1.7-1.7-3.6-3-5.8-3.9c-2.2-0.9-4.5-1.4-6.9-1.4c-2.4,0-4.7,0.5-6.9,1.4c-2.2,0.9-4.1,2.2-5.8,3.9
			c-1.7,1.7-3,3.6-3.9,5.8C29.4,42.2,28.9,44.5,28.9,46.9z"/>
		<path class="st1" d="M26.4,121.1h40.9L46.8,85.2L26.4,121.1z"/>
		<path class="st1" d="M85.2,28.9l35.8,35.8"/>
		<path class="st1" d="M85.2,64.8l35.8-35.8"/>
		<path class="st1" d="M85.2,85.2h35.8v35.8H85.2V85.2z"/>
	</g>
</g>
</svg>
