<?xml version="1.0" encoding="utf-8"?>
<!-- Generator: Adobe Illustrator 27.3.1, SVG Export Plug-In . SVG Version: 6.00 Build 0)  -->
<svg version="1.1" id="Layer_1" xmlns="http://www.w3.org/2000/svg" xmlns:xlink="http://www.w3.org/1999/xlink" x="0px" y="0px"
	 viewBox="0 0 150 150" style="enable-background:new 0 0 150 150;" xml:space="preserve">
<style type="text/css">
	.st0{fill:none;stroke:#1A514F;stroke-width:7.117;stroke-linecap:round;}
	.st1{fill:none;stroke:#1A514F;stroke-width:7.117;}
	.st2{fill:none;stroke:#1A514F;stroke-width:7.117;stroke-linecap:round;stroke-linejoin:round;}
</style>
<g>
	<path class="st0" d="M113,66.1c0-18.2,0-27.3-5.6-32.9c-5.6-5.6-14.5-5.6-32.4-5.6h-9.5c-17.9,0-26.8,0-32.4,5.6
		c-5.6,5.6-5.6,14.7-5.6,32.9c0,18.2,0,27.3,5.6,32.9c2.2,2.3,5,3.6,8.7,4.4"/>
	<path class="st1" d="M122.4,101.1c0-8.9,0-13.3-2.3-16.5c-0.7-1-1.6-1.9-2.6-2.6c-3.1-2.3-7.6-2.3-16.5-2.3H77.4
		c-8.9,0-13.3,0-16.5,2.3c-1,0.7-1.9,1.6-2.6,2.6C56,87.8,56,92.2,56,101.1s0,13.3,2.3,16.5c0.7,1,1.6,1.9,2.6,2.6
		c3.1,2.3,7.6,2.3,16.5,2.3h23.7c8.9,0,13.3,0,16.5-2.3c1-0.7,1.9-1.6,2.6-2.6C122.4,114.4,122.4,110,122.4,101.1z"/>
	<path class="st2" d="M96.4,94l4.4,3.8c1.8,1.6,2.8,2.4,2.8,3.4c0,1-0.9,1.8-2.8,3.4l-4.4,3.8"/>
	<path class="st2" d="M82.1,94l-4.4,3.8c-1.8,1.6-2.8,2.4-2.8,3.4c0,1,0.9,1.8,2.8,3.4l4.4,3.8"/>
	<path class="st2" d="M29.9,46.5h80.7"/>
</g>
</svg>
