<?xml version="1.0" encoding="utf-8"?>
<!-- Generator: Adobe Illustrator 27.3.1, SVG Export Plug-In . SVG Version: 6.00 Build 0)  -->
<svg version="1.1" id="Layer_1" xmlns="http://www.w3.org/2000/svg" xmlns:xlink="http://www.w3.org/1999/xlink" x="0px" y="0px"
	 viewBox="0 0 150 150" style="enable-background:new 0 0 150 150;" xml:space="preserve">
<style type="text/css">
	.st0{fill:none;stroke:#1A514F;stroke-width:7.117;stroke-linecap:round;}
	.st1{fill:none;stroke:#1A514F;stroke-width:7.117;}
</style>
<g>
	<path class="st0" d="M56,94l41.4-3.4c12.9-1.1,15.9-3.9,17.3-16.8l3-27.2"/>
	<path class="st0" d="M46.5,46.5h75.9"/>
	<path class="st1" d="M46.5,122.4c5.2,0,9.5-4.2,9.5-9.5c0-5.2-4.2-9.5-9.5-9.5c-5.2,0-9.5,4.2-9.5,9.5
		C37,118.2,41.3,122.4,46.5,122.4z"/>
	<path class="st1" d="M98.7,122.4c5.2,0,9.5-4.2,9.5-9.5c0-5.2-4.2-9.5-9.5-9.5c-5.2,0-9.5,4.2-9.5,9.5
		C89.2,118.2,93.5,122.4,98.7,122.4z"/>
	<path class="st0" d="M56,113h33.2"/>
	<path class="st0" d="M27.6,27.6h4.6c4.5,0,8.4,3,9.5,7.2l14.1,54.9c0.7,2.8,0.1,5.7-1.7,8l-4.5,5.9"/>
</g>
</svg>
