<?xml version="1.0" encoding="utf-8"?>
<!-- Generator: Adobe Illustrator 27.3.1, SVG Export Plug-In . SVG Version: 6.00 Build 0)  -->
<svg version="1.1" id="Layer_1" xmlns="http://www.w3.org/2000/svg" xmlns:xlink="http://www.w3.org/1999/xlink" x="0px" y="0px"
	 viewBox="0 0 150 150" style="enable-background:new 0 0 150 150;" xml:space="preserve">
<style type="text/css">
	.st0{fill:none;stroke:#1A514F;stroke-width:8.7251;stroke-linecap:round;}
</style>
<g>
	<path class="st0" d="M45.8,57.5v35"/>
	<path class="st0" d="M45.8,57.5H40c-5.4,0-8.2,0-10.3,0.9c-2.9,1.2-5.1,3.5-6.3,6.3c-0.9,2.1-0.9,4.9-0.9,10.3s0,8.2,0.9,10.3
		c1.2,2.9,3.5,5.1,6.3,6.3c2.1,0.9,4.9,0.9,10.3,0.9h5.8L93,106.7c5.5,1.7,8.3,2.5,10.8,4l0.1,0.1c2.5,1.5,4.5,3.5,8.6,7.6l1,1
		c0.7,0.7,1,1,1.4,1.3c0.7,0.5,1.6,0.9,2.5,1c0.5,0.1,1,0.1,1.9,0.1c2.3,0,3.4,0,4.3-0.3c1.7-0.6,3.1-1.9,3.7-3.7
		c0.3-0.9,0.3-2,0.3-4.3V36.6c0-2.3,0-3.4-0.3-4.3c-0.6-1.7-1.9-3.1-3.7-3.7c-0.9-0.3-2-0.3-4.3-0.3c-1,0-1.5,0-1.9,0.1
		c-0.9,0.1-1.7,0.5-2.5,1c-0.4,0.3-0.7,0.6-1.4,1.3l-1,1c-4.1,4.1-6.1,6.1-8.6,7.6l-0.1,0.1c-2.5,1.5-5.2,2.3-10.8,4L45.8,57.5z"/>
	<path class="st0" d="M51.7,95.4v14.9c0,6.3,5.1,11.4,11.4,11.4c3.8,0,7.4-1.9,9.5-5.1l8.3-12.4"/>
</g>
</svg>
