<?xml version="1.0" encoding="utf-8"?>
<!-- Generator: Adobe Illustrator 27.3.1, SVG Export Plug-In . SVG Version: 6.00 Build 0)  -->
<svg version="1.1" id="Layer_1" xmlns="http://www.w3.org/2000/svg" xmlns:xlink="http://www.w3.org/1999/xlink" x="0px" y="0px"
	 viewBox="0 0 150 150" style="enable-background:new 0 0 150 150;" xml:space="preserve">
<style type="text/css">
	.st0{fill:none;stroke:#1A514F;stroke-width:7.117;stroke-linecap:round;}
</style>
<g>
	<g>
		<path class="st0" d="M52.5,46.5c0-6.6,5.4-12,12-12h39c6.6,0,12,5.4,12,12v39c0,6.6-5.4,12-12,12h-39c-6.6,0-12-5.4-12-12V46.5z"
			/>
		<path class="st0" d="M39.1,53.7c-2.8,1.6-4.5,4.6-4.6,7.8v45c0,5,4,9,9,9h45c3.4,0,5.2-1.7,6.8-4.5"/>
		<path class="st0" d="M70.5,66h27"/>
		<path class="st0" d="M84,52.5v27"/>
	</g>
</g>
</svg>
