<?xml version="1.0" encoding="utf-8"?>
<!-- Generator: Adobe Illustrator 27.3.1, SVG Export Plug-In . SVG Version: 6.00 Build 0)  -->
<svg version="1.1" id="Layer_1" xmlns="http://www.w3.org/2000/svg" xmlns:xlink="http://www.w3.org/1999/xlink" x="0px" y="0px"
	 viewBox="0 0 150 150" style="enable-background:new 0 0 150 150;" xml:space="preserve">
<style type="text/css">
	.st0{fill:none;stroke:#1A514F;stroke-width:8.233;stroke-linecap:round;}
</style>
<g>
	<path class="st0" d="M75,121.5c-24.4,0-36.5,0-44.1-7.6c-7.6-7.6-7.6-19.7-7.6-44.1V54c0-9.4,0-14.1,2-17.6c1.4-2.5,3.5-4.6,6-6
		c3.5-2,8.2-2,17.6-2c6,0,9,0,11.7,1c6,2.3,8.5,7.7,11.2,13.1l3.3,6.5 M54.3,49.2h45.2c10.9,0,16.3,0,20.2,2.6
		c1.7,1.1,3.1,2.6,4.3,4.3c2,3,2.5,7,2.6,13.8"/>
	<path class="st0" d="M106,115.2c9.1,0,16.5-7.6,16.5-16.9c0-9.3-7.4-16.9-16.5-16.9 M106,115.2c-9.1,0-16.5-7.6-16.5-16.9
		c0-9.3,7.4-16.9,16.5-16.9 M106,115.2v6.3 M106,81.3V75 M91,89l-5.6-3.5 M126.7,110.9l-5.6-3.5 M121,89l5.6-3.5 M85.3,110.9
		l5.6-3.5"/>
</g>
</svg>
