<?xml version="1.0" encoding="utf-8"?>
<!-- Generator: Adobe Illustrator 27.3.1, SVG Export Plug-In . SVG Version: 6.00 Build 0)  -->
<svg version="1.1" id="Layer_1" xmlns="http://www.w3.org/2000/svg" xmlns:xlink="http://www.w3.org/1999/xlink" x="0px" y="0px"
	 viewBox="0 0 150 150" style="enable-background:new 0 0 150 150;" xml:space="preserve">
<style type="text/css">
	.st0{fill:none;stroke:#1A514F;stroke-width:7.117;stroke-linecap:round;stroke-linejoin:round;}
	.st1{fill:none;stroke:#1A514F;stroke-width:7.117;stroke-linecap:round;}
</style>
<g>
	<path class="st0" d="M122.4,52.4h-13.2c-2.9,0-4.3,0-5.6-0.4c-1.3-0.4-2.5-1.2-4.9-2.8c-3.6-2.4-7.6-5.1-9.6-5.7
		c-2-0.6-4.2-0.6-8.4-0.6c-5.8,0-9.6,0-12.2,1.1c-2.6,1.1-4.7,3.1-8.8,7.3L56,54.9c-0.9,0.9-1.4,1.4-1.7,1.8
		c-1.1,1.7-0.9,3.9,0.3,5.4c0.3,0.4,0.8,0.8,1.9,1.7c3.8,3,9.2,2.7,12.6-0.7l5.9-5.9h4.7l28.5,28.6c2.6,2.6,2.6,6.9,0,9.5
		c-2.6,2.6-6.9,2.6-9.5,0L96.3,93 M96.3,93L82.1,78.7 M96.3,93c2.6,2.6,2.6,6.9,0,9.5c-2.6,2.6-6.9,2.6-9.5,0l-4.7-4.8 M82.1,97.8
		c2.6,2.6,2.6,6.9,0,9.5c-2.6,2.6-6.9,2.6-9.5,0l-7.1-7.2 M82.1,97.8l-9.5-9.5 M65.5,100.2l-2.4-2.4 M65.5,100.2
		c2.6,2.6,2.6,6.9,0,9.5c-2.6,2.6-6.9,2.6-9.5,0L42.6,96.1c-2.8-2.8-4.1-4.2-5.9-5c-1.8-0.7-3.7-0.7-7.7-0.7h-1.5"/>
	<path class="st1" d="M122.4,90.4h-11.9"/>
	<path class="st1" d="M58.4,52.4H27.6"/>
</g>
</svg>
