<?xml version="1.0" encoding="utf-8"?>
<!-- Generator: Adobe Illustrator 27.3.1, SVG Export Plug-In . SVG Version: 6.00 Build 0)  -->
<svg version="1.1" id="Layer_1" xmlns="http://www.w3.org/2000/svg" xmlns:xlink="http://www.w3.org/1999/xlink" x="0px" y="0px"
	 viewBox="0 0 150 150" style="enable-background:new 0 0 150 150;" xml:space="preserve">
<style type="text/css">
	.st0{fill:none;stroke:#1A514F;stroke-width:7.117;stroke-linejoin:round;}
	.st1{fill:none;stroke:#1A514F;stroke-width:7.117;stroke-linecap:round;}
</style>
<g>
	<path class="st0" d="M86.6,79.2c-0.7,3-4.1,5.1-10.9,9.3c-6.6,4.1-9.9,6.1-12.5,5.3c-1.1-0.3-2.1-1-2.9-1.9
		c-1.9-2.1-1.9-6.3-1.9-14.6c0-8.3,0-12.4,1.9-14.6c0.8-0.9,1.8-1.5,2.9-1.9c2.6-0.8,5.9,1.2,12.5,5.3c6.8,4.2,10.2,6.3,10.9,9.3
		C86.9,76.7,86.9,78,86.6,79.2z"/>
	<path class="st1" d="M117.7,70.3c0,2.2,0,4.6,0,7.1c0,21.2,0,31.9-6.6,38.5c-6.6,6.6-17.2,6.6-38.5,6.6c-21.2,0-31.9,0-38.5-6.6
		c-6.6-6.6-6.6-17.2-6.6-38.5c0-21.2,0-31.9,6.6-38.5c6.6-6.6,17.2-6.6,38.5-6.6c2.5,0,4.9,0,7.1,0"/>
	<path class="st0" d="M105.8,27.6l1.2,3.3c1.6,4.3,2.4,6.5,4,8.1c1.6,1.6,3.8,2.4,8.1,4l3.3,1.2l-3.3,1.2c-4.3,1.6-6.5,2.4-8.1,4
		c-1.6,1.6-2.4,3.8-4,8.1l-1.2,3.3l-1.2-3.3c-1.6-4.3-2.4-6.5-4-8.1c-1.6-1.6-3.8-2.4-8.1-4l-3.3-1.2l3.3-1.2c4.3-1.6,6.5-2.4,8.1-4
		c1.6-1.6,2.4-3.8,4-8.1L105.8,27.6z"/>
</g>
</svg>
