<?xml version="1.0" encoding="utf-8"?>
<!-- Generator: Adobe Illustrator 27.3.1, SVG Export Plug-In . SVG Version: 6.00 Build 0)  -->
<svg version="1.1" id="Layer_1" xmlns="http://www.w3.org/2000/svg" xmlns:xlink="http://www.w3.org/1999/xlink" x="0px" y="0px"
	 viewBox="0 0 150 150" style="enable-background:new 0 0 150 150;" xml:space="preserve">
<style type="text/css">
	.st0{opacity:5.000000e-02;fill:#184F4D;}
	.st1{fill:#184F4D;}
	.st2{clip-path:url(#SVGID_00000063620626486513954140000015655252114882461842_);}
	.st3{fill:none;stroke:#BDFBBC;stroke-width:5.4118;stroke-linecap:round;stroke-linejoin:round;}
</style>
<g>
	<path class="st0" d="M43.7,17h62.7C121,17,133,29,133,43.7v62.7C133,121,121,133,106.3,133H43.7C29,133,17,121,17,106.3V43.7
		C17,29,29,17,43.7,17z"/>
	<path class="st1" d="M47.2,23.7h55.5c13,0,23.6,10.6,23.6,23.6v55.5c0,13-10.6,23.6-23.6,23.6H47.2c-13,0-23.6-10.6-23.6-23.6V47.2
		C23.7,34.2,34.2,23.7,47.2,23.7z"/>
	<g>
		<defs>
			<rect id="SVGID_1_" x="43.4" y="42.5" width="64.9" height="64.9"/>
		</defs>
		<clipPath id="SVGID_00000160881877734743068200000013740383762631653017_">
			<use xlink:href="#SVGID_1_"  style="overflow:visible;"/>
		</clipPath>
		<g style="clip-path:url(#SVGID_00000160881877734743068200000013740383762631653017_);">
			<path class="st3" d="M56.9,61.5c0,2.9,1.1,5.6,3.2,7.7c2,2,4.8,3.2,7.7,3.2c2.9,0,5.6-1.1,7.7-3.2c2-2,3.2-4.8,3.2-7.7
				c0-2.9-1.1-5.6-3.2-7.7c-2-2-4.8-3.2-7.7-3.2c-2.9,0-5.6,1.1-7.7,3.2C58,55.8,56.9,58.6,56.9,61.5z"/>
			<path class="st3" d="M51.5,99.4v-5.4c0-2.9,1.1-5.6,3.2-7.7c2-2,4.8-3.2,7.7-3.2h10.8c2.9,0,5.6,1.1,7.7,3.2c2,2,3.2,4.8,3.2,7.7
				v5.4"/>
			<path class="st3" d="M86.7,51c2.3,0.6,4.4,2,5.9,3.8c1.5,1.9,2.3,4.2,2.3,6.6s-0.8,4.7-2.3,6.6C91,70,89,71.4,86.7,72"/>
			<path class="st3" d="M100.2,99.4v-5.4c0-2.4-0.8-4.7-2.3-6.6c-1.5-1.9-3.5-3.2-5.8-3.8"/>
		</g>
	</g>
</g>
</svg>
