<?xml version="1.0" encoding="utf-8"?>
<!-- Generator: Adobe Illustrator 27.3.1, SVG Export Plug-In . SVG Version: 6.00 Build 0)  -->
<svg version="1.1" id="Layer_1" xmlns="http://www.w3.org/2000/svg" xmlns:xlink="http://www.w3.org/1999/xlink" x="0px" y="0px"
	 viewBox="0 0 150 150" style="enable-background:new 0 0 150 150;" xml:space="preserve">
<style type="text/css">
	.st0{opacity:5.000000e-02;fill:#184F4D;}
	.st1{fill:#184F4D;}
	.st2{clip-path:url(#SVGID_00000179616928118260683700000014629217619406899092_);}
	.st3{fill:none;stroke:#BDFBBC;stroke-width:5.4118;stroke-linecap:round;stroke-linejoin:round;}
</style>
<g>
	<path class="st0" d="M43.7,17h62.7C121,17,133,29,133,43.7v62.7C133,121,121,133,106.3,133H43.7C29,133,17,121,17,106.3V43.7
		C17,29,29,17,43.7,17z"/>
	<g>
		<path class="st1" d="M47.1,23.4h55.9c13.1,0,23.7,10.6,23.7,23.7v55.9c0,13.1-10.6,23.7-23.7,23.7H47.1
			c-13.1,0-23.7-10.6-23.7-23.7V47.1C23.4,34,34,23.4,47.1,23.4z"/>
		<g>
			<defs>
				<rect id="SVGID_1_" x="42.3" y="42.3" width="65.3" height="65.3"/>
			</defs>
			<clipPath id="SVGID_00000143603936919287596680000010390756240376947101_">
				<use xlink:href="#SVGID_1_"  style="overflow:visible;"/>
			</clipPath>
			<g style="clip-path:url(#SVGID_00000143603936919287596680000010390756240376947101_);">
				<path class="st3" d="M50.5,50.5v49h49"/>
				<path class="st3" d="M96.8,91.3v8.2"/>
				<path class="st3" d="M85.9,85.9v13.6"/>
				<path class="st3" d="M75,77.7v21.8"/>
				<path class="st3" d="M64.1,85.9v13.6"/>
				<path class="st3" d="M50.5,72.3c16.3,0,13.6-13.6,24.5-13.6s8.2,13.6,24.5,13.6"/>
			</g>
		</g>
	</g>
</g>
</svg>
