<?xml version="1.0" encoding="utf-8"?>
<!-- Generator: Adobe Illustrator 27.3.1, SVG Export Plug-In . SVG Version: 6.00 Build 0)  -->
<svg version="1.1" id="Layer_1" xmlns="http://www.w3.org/2000/svg" xmlns:xlink="http://www.w3.org/1999/xlink" x="0px" y="0px"
	 viewBox="0 0 150 150" style="enable-background:new 0 0 150 150;" xml:space="preserve">
<style type="text/css">
	.st0{opacity:5.000000e-02;fill:#184F4D;}
	.st1{fill:#184F4D;}
	.st2{clip-path:url(#SVGID_00000156578307954470653290000010020501458663435394_);}
	.st3{fill:none;stroke:#BDFBBC;stroke-width:5.4118;stroke-linecap:round;stroke-linejoin:round;}
</style>
<g>
	<path class="st0" d="M43.7,17h62.7C121,17,133,29,133,43.7v62.7C133,121,121,133,106.3,133H43.7C29,133,17,121,17,106.3V43.7
		C17,29,29,17,43.7,17z"/>
	<path class="st1" d="M47.2,23.7h55.5c13,0,23.6,10.6,23.6,23.6v55.5c0,13-10.6,23.6-23.6,23.6H47.2c-13,0-23.6-10.6-23.6-23.6V47.2
		C23.7,34.2,34.2,23.7,47.2,23.7z"/>
	<g>
		<defs>
			<rect id="SVGID_1_" x="42.9" y="42.5" width="64.9" height="64.9"/>
		</defs>
		<clipPath id="SVGID_00000072988841865042997450000005571731194055658157_">
			<use xlink:href="#SVGID_1_"  style="overflow:visible;"/>
		</clipPath>
		<g style="clip-path:url(#SVGID_00000072988841865042997450000005571731194055658157_);">
			<path class="st3" d="M75.4,90.6l-16.7,8.8l3.2-18.6L48.3,67.6L67,64.9l8.4-16.9l8.4,16.9l18.7,2.7L88.8,80.7L92,99.3L75.4,90.6z"
				/>
		</g>
	</g>
</g>
</svg>
