<?xml version="1.0" encoding="utf-8"?>
<!-- Generator: Adobe Illustrator 27.3.1, SVG Export Plug-In . SVG Version: 6.00 Build 0)  -->
<svg version="1.1" id="Layer_1" xmlns="http://www.w3.org/2000/svg" xmlns:xlink="http://www.w3.org/1999/xlink" x="0px" y="0px"
	 viewBox="0 0 100 100" style="enable-background:new 0 0 100 100;" xml:space="preserve">
<style type="text/css">
	.st0{fill:#BDFBBC;}
	.st1{fill:none;stroke:#184F4D;stroke-width:2.8934;stroke-linecap:round;}
	.st2{fill:none;stroke:#184F4D;stroke-width:2.8934;stroke-linecap:round;stroke-linejoin:round;}
	.st3{fill:none;stroke:#184F4D;stroke-width:2.8934;}
</style>
<g>
	<path class="st0" d="M72.4,95.6H27.6c-12.8,0-23.1-10.4-23.1-23.1V27.6c0-12.8,10.4-23.1,23.1-23.1h44.9
		c12.8,0,23.1,10.4,23.1,23.1v44.9C95.6,85.2,85.2,95.6,72.4,95.6z"/>
	<g>
		<path class="st1" d="M48.1,67.4h-2.7c-6.9,0-10.4,0-12.5-2.2c-2.1-2.2-2.1-5.7-2.1-12.8c0-7,0-10.6,2.1-12.8
			c2.1-2.2,5.6-2.2,12.5-2.2h7.3c6.9,0,10.4,0,12.5,2.2c1.7,1.7,2,4.2,2.1,8.4"/>
		<path class="st2" d="M65.5,65.5l3.8,3.8 M67.5,60.7c0-3.8-3-6.8-6.8-6.8c-3.8,0-6.8,3-6.8,6.8c0,3.8,3,6.8,6.8,6.8
			C64.4,67.5,67.5,64.4,67.5,60.7z"/>
		<path class="st3" d="M57.7,37.5l-0.2-0.6c-1-3-1.4-4.5-2.6-5.3c-1.1-0.8-2.6-0.8-5.7-0.8h-0.5c-3,0-4.5,0-5.7,0.8
			c-1.1,0.8-1.6,2.3-2.6,5.3l-0.2,0.6"/>
	</g>
</g>
</svg>
