<?xml version="1.0" encoding="utf-8"?>
<!-- Generator: Adobe Illustrator 27.3.1, SVG Export Plug-In . SVG Version: 6.00 Build 0)  -->
<svg version="1.1" id="Layer_1" xmlns="http://www.w3.org/2000/svg" xmlns:xlink="http://www.w3.org/1999/xlink" x="0px" y="0px"
	 viewBox="0 0 100 100" style="enable-background:new 0 0 100 100;" xml:space="preserve">
<style type="text/css">
	.st0{fill:#BDFBBC;}
	.st1{fill:none;stroke:#184F4D;stroke-width:2.75;stroke-linecap:round;stroke-linejoin:round;}
	.st2{fill:none;stroke:#184F4D;stroke-width:2.75;stroke-linecap:round;}
</style>
<g>
	<path class="st0" d="M72.4,95.6H27.6c-12.8,0-23.1-10.4-23.1-23.1V27.6c0-12.8,10.4-23.1,23.1-23.1h44.9
		c12.8,0,23.1,10.4,23.1,23.1v44.9C95.6,85.2,85.2,95.6,72.4,95.6z"/>
	<g>
		<path class="st1" d="M45.8,31.7c-6,0-9,0-11,1.5c-0.6,0.4-1.1,0.9-1.6,1.5c-1.6,2-1.6,4.8-1.6,10.4v4.7c0,5.4,0,8.1,0.9,10.3
			c1.4,3.5,4.3,6.2,8,7.5c2.3,0.8,5.2,0.8,11,0.8c3.3,0,4.9,0,6.3-0.5c2.1-0.7,3.8-2.3,4.6-4.3c0.5-1.2,0.5-2.8,0.5-5.9v-1.2"/>
		<path class="st1" d="M55.5,41.8c0,0,0.9,0,1.8,1.8c0,0,2.9-4.6,5.5-5.5"/>
		<path class="st2" d="M68.3,40.8c0,5.1-4.1,9.2-9.2,9.2c-5.1,0-9.2-4.1-9.2-9.2c0-5.1,4.1-9.2,9.2-9.2
			C64.2,31.7,68.3,35.8,68.3,40.8z"/>
		<path class="st1" d="M31.7,50c0,3.4,2.7,6.1,6.1,6.1c1.2,0,2.7-0.2,3.8,0.1c1.1,0.3,1.9,1.1,2.2,2.2c0.3,1.2,0.1,2.6,0.1,3.8
			c0,3.4,2.7,6.1,6.1,6.1"/>
	</g>
</g>
</svg>
