<?xml version="1.0" encoding="utf-8"?>
<!-- Generator: Adobe Illustrator 27.3.1, SVG Export Plug-In . SVG Version: 6.00 Build 0)  -->
<svg version="1.1" id="Layer_1" xmlns="http://www.w3.org/2000/svg" xmlns:xlink="http://www.w3.org/1999/xlink" x="0px" y="0px"
	 viewBox="0 0 100 100" style="enable-background:new 0 0 100 100;" xml:space="preserve">
<style type="text/css">
	.st0{fill:#BDFBBC;}
	.st1{fill:none;stroke:#184F4D;stroke-width:2.9237;stroke-linecap:round;stroke-linejoin:round;}
	.st2{fill:none;stroke:#184F4D;stroke-width:2.9237;}
	.st3{fill:none;stroke:#184F4D;stroke-width:2.9237;stroke-linecap:round;}
</style>
<g>
	<path class="st0" d="M72.4,95.6H27.6c-12.8,0-23.1-10.4-23.1-23.1V27.6c0-12.8,10.4-23.1,23.1-23.1h44.9
		c12.8,0,23.1,10.4,23.1,23.1v44.9C95.6,85.2,85.2,95.6,72.4,95.6z"/>
	<g>
		<path class="st1" d="M41.8,60c-2.1,1.2-7.8,3.7-4.3,6.9c1.7,1.5,3.5,2.6,5.9,2.6h13.4c2.3,0,4.2-1.1,5.9-2.6
			c3.4-3.1-2.2-5.7-4.3-6.9C53.2,57.1,46.8,57.1,41.8,60z"/>
		<path class="st2" d="M56.8,46.1c0,3.8-3.1,6.8-6.8,6.8s-6.8-3.1-6.8-6.8c0-3.8,3.1-6.8,6.8-6.8S56.8,42.3,56.8,46.1z"/>
		<path class="st3" d="M32.2,57.8c-1.1-2.4-1.7-5.1-1.7-7.9c0-10.7,8.7-19.4,19.5-19.4s19.5,8.7,19.5,19.4c0,2.8-0.6,5.5-1.7,7.9"/>
	</g>
</g>
</svg>
