<?xml version="1.0" encoding="utf-8"?>
<!-- Generator: Adobe Illustrator 27.3.1, SVG Export Plug-In . SVG Version: 6.00 Build 0)  -->
<svg version="1.1" id="Layer_1" xmlns="http://www.w3.org/2000/svg" xmlns:xlink="http://www.w3.org/1999/xlink" x="0px" y="0px"
	 viewBox="0 0 100 100" style="enable-background:new 0 0 100 100;" xml:space="preserve">
<style type="text/css">
	.st0{clip-path:url(#SVGID_00000109030400590648011580000011504319726067441311_);}
	.st1{fill:#CE1126;}
	.st2{fill:#FFFFFF;}
	.st3{fill:#C09300;}
	.st4{clip-path:url(#SVGID_00000152230688689286994580000010432024931812155562_);fill:#C09300;}
</style>
<g>
	<g>
		<defs>
			<circle id="SVGID_1_" cx="50" cy="50" r="49.5"/>
		</defs>
		<clipPath id="SVGID_00000012472696433425876610000017948053280995705511_">
			<use xlink:href="#SVGID_1_"  style="overflow:visible;"/>
		</clipPath>
		<g style="clip-path:url(#SVGID_00000012472696433425876610000017948053280995705511_);">
			<g>
				<rect x="-24.2" y="66.5" width="148.5" height="33"/>
				<rect x="-24.2" y="0.5" class="st1" width="148.5" height="33"/>
				<rect x="-24.2" y="33.5" class="st2" width="148.5" height="33"/>
			</g>
			<g>
				<g>
					<path id="_x35_4_1_" class="st2" d="M50,65.5c3.3,0,6.4-0.3,8.3-0.8c0.8-0.1,0.8-0.5,0.8-1.1c0.8-0.3,0.4-1.2,0.9-1.2
						c-0.5,0.1-0.7-0.9-1.3-0.8c0-0.9-0.9-1-1.7-0.8c-1.6,0.5-4.3,0.6-7,0.6c-2.6-0.1-5.4-0.1-7-0.6c-0.8-0.3-1.7-0.1-1.7,0.8
						c-0.7-0.1-0.8,0.9-1.3,0.8c0.5,0,0.1,0.9,0.9,1.2c0,0.5,0,0.9,0.8,1.1C43.6,65.2,46.7,65.5,50,65.5L50,65.5z"/>
					<path class="st3" d="M50,65.7c-3.5,0-6.6-0.3-8.3-0.8c-0.9-0.2-0.9-0.6-0.9-1.1c-0.4-0.2-0.5-0.6-0.6-0.8
						c0-0.2-0.1-0.3-0.1-0.3c0,0-0.1,0-0.1,0c-0.1,0-0.2-0.1-0.1-0.2c0-0.1,0.2-0.2,0.3-0.2c0.1,0,0.2-0.1,0.3-0.3
						c0.2-0.2,0.4-0.5,0.7-0.5c0.1-0.4,0.2-0.6,0.4-0.7c0.4-0.3,0.9-0.3,1.6-0.1c1.3,0.4,3.3,0.5,5.5,0.6c0.5,0,0.9,0,1.4,0.1
						c3.4,0,5.6-0.2,6.9-0.6c0.6-0.2,1.2-0.2,1.6,0.1c0.2,0.1,0.3,0.3,0.4,0.7c0.3,0,0.5,0.3,0.7,0.5c0.1,0.2,0.2,0.3,0.3,0.3
						c0.1,0,0.3,0,0.3,0.2c0,0.1,0,0.2-0.1,0.2c0,0-0.1,0-0.1,0c0,0-0.1,0.1-0.1,0.3c-0.1,0.3-0.2,0.6-0.6,0.8c0,0.5-0.1,1-0.9,1.1
						C56.6,65.4,53.5,65.7,50,65.7z M40.5,62.5c0,0.1,0.1,0.2,0.1,0.3c0.1,0.3,0.1,0.5,0.4,0.6c0.1,0,0.1,0.1,0.1,0.2
						c0,0.5,0,0.8,0.6,0.9c1.7,0.5,4.8,0.8,8.2,0.8c3.5,0,6.5-0.3,8.2-0.8c0.6-0.1,0.6-0.4,0.6-0.9c0-0.1,0.1-0.2,0.1-0.2
						c0.3-0.1,0.4-0.3,0.4-0.6c0-0.1,0.1-0.2,0.1-0.3c-0.1-0.1-0.2-0.2-0.3-0.3c-0.2-0.3-0.3-0.4-0.5-0.3c-0.1,0-0.1,0-0.2,0
						c0,0-0.1-0.1-0.1-0.2c0-0.3-0.1-0.4-0.2-0.6c-0.3-0.2-0.7-0.2-1.2,0c-1.3,0.4-3.6,0.6-7,0.6c-0.5,0-0.9,0-1.4-0.1
						c-2.2-0.1-4.3-0.2-5.6-0.6c-0.5-0.2-0.9-0.1-1.2,0c-0.2,0.1-0.2,0.3-0.2,0.6c0,0.1,0,0.1-0.1,0.2c0,0-0.1,0.1-0.2,0
						c-0.2,0-0.3,0.1-0.5,0.3C40.7,62.3,40.6,62.4,40.5,62.5z"/>
				</g>
				<g>
					<path id="_x35_3_1_" class="st2" d="M50.1,50.4l11.3,10.5l-0.8-19.1c-0.1-2.9-2.6-2.2-4.5-1.2c-1.8,1.2-4,1.2-6.2,0.4
						c-2.2,0.8-4.3,0.8-6.2-0.4c-1.8-1-4.3-1.7-4.5,1.2l-0.8,19.1L50.1,50.4L50.1,50.4z"/>
					<path class="st3" d="M61.4,61C61.4,61,61.4,61,61.4,61L50.1,50.5L38.6,61c0,0-0.1,0-0.1,0c0,0-0.1-0.1-0.1-0.1l0.8-19.1
						c0-1,0.4-1.6,0.9-2c1.1-0.6,2.9,0.3,3.7,0.7c1.7,1.1,3.7,1.2,6.1,0.4c0,0,0,0,0.1,0c2.3,0.8,4.4,0.7,6.1-0.4
						c0.7-0.4,2.5-1.3,3.7-0.7c0.6,0.3,0.9,1,0.9,2l0.8,19.1C61.5,60.9,61.5,61,61.4,61C61.5,61,61.4,61,61.4,61z M41.1,39.9
						c-0.3,0-0.6,0.1-0.8,0.2c-0.5,0.3-0.8,0.9-0.8,1.8l-0.8,18.8l11.4-10.3c0,0,0.1,0,0.1,0l11.1,10.3l-0.8-18.8
						c0-0.9-0.3-1.5-0.8-1.8c-1-0.6-2.8,0.3-3.5,0.7c-1.7,1.1-3.8,1.3-6.2,0.4c-2.4,0.8-4.5,0.7-6.2-0.4
						C43.2,40.4,42.1,39.9,41.1,39.9z"/>
				</g>
				<path id="_x35_2" class="st3" d="M53.3,44.3l0.4,9.2l1.1,1l-0.4-10.1C54.1,44.5,53.4,44.5,53.3,44.3L53.3,44.3z"/>
				<g>
					<path id="_x35_1_1_" class="st3" d="M50.5,52.5l1.6,7.2l-0.5,0.5L51,59.8l-0.9-6.4l0.4,6.4L50,60.5l-0.5-0.7l0.4-6.4L49,59.8
						l-0.5,0.4l-0.5-0.5l1.6-7.2H50.5L50.5,52.5z"/>
					<path class="st3" d="M50,60.6l-0.6-0.8l0.3-4.3L49,59.9l-0.6,0.5l-0.6-0.6l0,0l1.6-7.3h1.2l0,0.1l1.6,7.3l-0.6,0.6L51,59.9l0,0
						l-0.6-4.2l0.3,4.3L50,60.6z M49.6,59.8l0.4,0.5l0.4-0.5l-0.4-6.4l0.2,0l0.9,6.4l0.5,0.3l0.4-0.4l-1.6-7.1h-0.9L48,59.7l0.4,0.4
						l0.5-0.3l0.9-6.4l0.2,0L49.6,59.8z"/>
				</g>
				<path id="_x35_0" class="st3" d="M40.7,41.2l-0.8,18.5l-1.3,1.2l0.8-19.1C39.7,41.6,40.4,41.2,40.7,41.2L40.7,41.2z"/>
				<path id="_x34_9" class="st3" d="M42.3,42.5L41.6,58l-1.3,1.4l0.8-17.9C41.3,41.7,42.1,42.4,42.3,42.5L42.3,42.5z"/>
				<path id="_x34_8" class="st3" d="M43.7,43.7l-0.5,12.9l-1.1,1l0.7-14.8C43,43.2,43.6,43.5,43.7,43.7L43.7,43.7z"/>
				<path id="_x34_7" class="st3" d="M45.3,44.3l-0.5,11l-1,0.8l0.5-12.3C44.5,44.1,45,44.3,45.3,44.3L45.3,44.3z"/>
				<path id="_x34_6" class="st3" d="M46.7,44.3l-0.4,9.2l-1.1,1l0.4-10.1C45.9,44.5,46.6,44.5,46.7,44.3L46.7,44.3z"/>
				<path id="_x34_5" class="st3" d="M59.3,41.2l0.8,18.5l1.3,1.2l-0.8-19.1C60.3,41.6,59.6,41.2,59.3,41.2L59.3,41.2z"/>
				<path id="_x34_4" class="st3" d="M57.7,42.5L58.4,58l1.3,1.4l-0.8-17.9C58.7,41.7,57.9,42.4,57.7,42.5L57.7,42.5z"/>
				<path id="_x34_3" class="st3" d="M56.3,43.7l0.5,12.9l1.1,1l-0.7-14.8C57,43.2,56.4,43.5,56.3,43.7L56.3,43.7z"/>
				<path id="_x34_2" class="st3" d="M54.7,44.3l0.5,11l1,0.8l-0.5-12.3C55.5,44.1,55,44.3,54.7,44.3L54.7,44.3z"/>
				<g>
					<path id="_x34_1_1_" class="st2" d="M46.4,49.3l-3.1,11.2l4.3,0.7l1.8-8.4L46.4,49.3L46.4,49.3z"/>
					<path class="st3" d="M47.6,61.2C47.6,61.2,47.6,61.2,47.6,61.2l-4.3-0.7c0,0-0.1,0-0.1,0c0,0,0-0.1,0-0.1l3.1-11.2
						c0,0,0-0.1,0.1-0.1c0,0,0.1,0,0.1,0l3,3.4c0,0,0,0.1,0,0.1L47.6,61.2C47.7,61.2,47.7,61.2,47.6,61.2z M43.4,60.4l4.1,0.6
						l1.8-8.3l-2.9-3.3L43.4,60.4z"/>
				</g>
				<g>
					<path id="_x34_0_1_" class="st2" d="M53.6,49.3l3.1,11.2l-4.3,0.7l-1.8-8.4L53.6,49.3L53.6,49.3z"/>
					<path class="st3" d="M52.4,61.2C52.3,61.2,52.3,61.2,52.4,61.2l-1.9-8.5c0,0,0-0.1,0-0.1l3-3.4c0,0,0.1,0,0.1,0
						c0,0,0.1,0,0.1,0.1l3.1,11.2c0,0,0,0.1,0,0.1c0,0,0,0-0.1,0L52.4,61.2C52.4,61.2,52.4,61.2,52.4,61.2z M50.6,52.8l1.8,8.3
						l4.1-0.6l-3.1-10.9L50.6,52.8z"/>
				</g>
				<path class="st3" d="M54.2,54.2C54.2,54.2,54.2,54.1,54.2,54.2l-2.1-2c0,0,0-0.1,0-0.1c0,0,0.1,0,0.1,0l1.9,1.8l0.3-0.8
					c0-0.1,0.1-0.1,0.1-0.1c0.1,0,0.1,0.1,0.1,0.1L54.2,54.2C54.3,54.1,54.3,54.1,54.2,54.2C54.2,54.2,54.2,54.2,54.2,54.2z"/>
				<path class="st3" d="M51.9,59.8C51.9,59.8,51.9,59.8,51.9,59.8c-0.1,0-0.1-0.1-0.1-0.1l0.4-2.1l-1.4-2.2c0,0,0-0.1,0-0.1
					c0,0,0.1,0,0.1,0l1.3,2l0.4-2c0,0,0-0.1,0.1-0.1c0,0,0.1,0,0.1,0l0.8,1.1l0.4-1.3c0,0,0-0.1,0.1-0.1c0,0,0.1,0,0.1,0l1.3,1.4
					c0,0,0,0.1,0,0.1L54.9,59c0,0,0,0.1-0.1,0.1c0,0-0.1,0-0.1,0l-0.8-1.4l-0.4,1.4c0,0,0,0.1-0.1,0.1c0,0-0.1,0-0.1,0l-0.8-1.3
					L52,59.7C52,59.8,52,59.8,51.9,59.8z M52.5,57.5l0.8,1.3l0.5-1.4c0,0,0-0.1,0.1-0.1c0,0,0.1,0,0.1,0l0.8,1.3l0.6-2.2l-1.2-1.2
					l-0.4,1.3c0,0,0,0.1-0.1,0.1c0,0-0.1,0-0.1,0l-0.8-1.1L52.5,57.5z"/>
				<path class="st3" d="M45.8,54.2C45.8,54.2,45.8,54.2,45.8,54.2C45.7,54.1,45.7,54.1,45.8,54.2l-0.5-1c0-0.1,0-0.1,0.1-0.1
					c0.1,0,0.1,0,0.1,0.1l0.3,0.8l1.9-1.8c0,0,0.1,0,0.1,0c0,0,0,0.1,0,0.1L45.8,54.2C45.8,54.1,45.8,54.2,45.8,54.2z"/>
				<path class="st3" d="M47.3,54.9C47.2,54.9,47.2,54.9,47.3,54.9c-0.1,0-0.1-0.1-0.1-0.1l-0.4-4c0-0.1,0-0.1,0.1-0.1
					c0.1,0,0.1,0,0.1,0.1l0.4,3.8l1.1-1.5c0,0,0.1-0.1,0.1,0c0,0,0.1,0.1,0,0.1L47.3,54.9C47.3,54.9,47.3,54.9,47.3,54.9z"/>
				<path class="st3" d="M48.7,56.3c0,0-0.1,0-0.1-0.1l-0.7-2.5c0-0.1,0-0.1,0.1-0.1c0.1,0,0.1,0,0.1,0.1l0.7,2.5
					C48.9,56.3,48.8,56.3,48.7,56.3C48.8,56.3,48.8,56.3,48.7,56.3z"/>
				<path class="st3" d="M48,59.8c0,0-0.1,0-0.1-0.1l-0.4-1.9l-0.8,1.3c0,0-0.1,0.1-0.1,0c0,0-0.1,0-0.1-0.1L46,57.7l-0.8,1.4
					c0,0-0.1,0.1-0.1,0c0,0-0.1,0-0.1-0.1l-0.7-2.5c0,0,0-0.1,0-0.1l1.3-1.4c0,0,0.1,0,0.1,0c0,0,0.1,0,0.1,0.1l0.4,1.3l0.8-1.1
					c0,0,0.1,0,0.1,0c0,0,0.1,0,0.1,0.1l0.4,2l1.3-2c0,0,0.1-0.1,0.1,0c0,0,0.1,0.1,0,0.1l-1.4,2.2l0.4,2.1
					C48.1,59.7,48.1,59.8,48,59.8C48,59.8,48,59.8,48,59.8z M46.1,57.4C46.1,57.4,46.1,57.4,46.1,57.4
					C46.1,57.4,46.2,57.4,46.1,57.4l0.6,1.4l0.8-1.3l-0.3-1.9l-0.8,1.1c0,0-0.1,0-0.1,0c0,0-0.1,0-0.1-0.1l-0.4-1.3l-1.2,1.2
					l0.6,2.2L46.1,57.4C46,57.4,46,57.4,46.1,57.4z"/>
				<path class="st3" d="M47,61.3C46.9,61.3,46.9,61.2,47,61.3l-0.5-1.4l-0.7,1.1c0,0-0.1,0.1-0.1,0.1c0,0-0.1,0-0.1-0.1l-0.5-1.7
					l-0.8,1.1c0,0-0.1,0.1-0.1,0c0,0-0.1-0.1,0-0.1l0.9-1.2c0,0,0.1,0,0.1,0c0,0,0.1,0,0.1,0.1l0.5,1.7l0.7-1.1c0,0,0.1-0.1,0.1-0.1
					c0,0,0.1,0,0.1,0.1l0.5,1.6C47.1,61.2,47.1,61.2,47,61.3C47,61.3,47,61.3,47,61.3z"/>
				<path class="st3" d="M53.1,61.3C53.1,61.3,53,61.3,53.1,61.3c-0.1,0-0.1-0.1-0.1-0.1l0.5-1.6c0,0,0-0.1,0.1-0.1
					c0,0,0.1,0,0.1,0.1l0.7,1.1l0.5-1.7c0,0,0-0.1,0.1-0.1c0,0,0.1,0,0.1,0l0.9,1.2c0,0,0,0.1,0,0.1s-0.1,0-0.1,0L55,59.2l-0.5,1.7
					c0,0,0,0.1-0.1,0.1c0,0-0.1,0-0.1-0.1l-0.7-1.1L53.1,61.3C53.1,61.2,53.1,61.3,53.1,61.3z"/>
				<g>
					<path id="_x33_1_1_" class="st2" d="M45.5,60.5c1.1,0.1,2.2,0.3,3.2,0.1c0.5,0,0.9,0.9-0.1,1c-0.9,0.1-2.4,0-3.1-0.1
						c-0.7-0.1-2.1-0.4-3-0.6c-0.9-0.4-0.3-1.2,0.3-1.1C43.4,60.1,44.5,60.3,45.5,60.5L45.5,60.5z"/>
					<path class="st3" d="M47.7,61.8c-0.8,0-1.7-0.1-2.3-0.2c-0.6-0.1-2.1-0.4-3-0.6c-0.6-0.3-0.5-0.7-0.5-0.8
						c0.1-0.3,0.5-0.5,0.8-0.5c0.5,0.2,1.6,0.5,2.9,0.7v0c1,0.1,2.2,0.3,3.1,0.1c0,0,0,0,0,0c0.3,0,0.6,0.3,0.6,0.6
						c0,0.1,0,0.6-0.7,0.7C48.3,61.8,48,61.8,47.7,61.8z M42.5,59.9c-0.2,0-0.4,0.1-0.5,0.3c-0.1,0.2,0.1,0.4,0.4,0.5
						c0.9,0.3,2.4,0.5,3,0.6c0.7,0.1,2.2,0.3,3.1,0.1c0.4-0.1,0.6-0.2,0.6-0.4c0-0.2-0.2-0.4-0.4-0.4c-1,0.1-2.2,0-3.2-0.1l0,0
						C44.2,60.4,43.1,60.1,42.5,59.9C42.6,59.9,42.6,59.9,42.5,59.9z"/>
				</g>
				<g>
					<path id="_x33_0_1_" class="st2" d="M54.5,60.5c-1.1,0.1-2.2,0.3-3.1,0.1c-0.5,0-0.9,0.9,0.1,1c0.9,0.1,2.4,0,3.1-0.1
						c0.7-0.1,2.1-0.4,3-0.6c0.9-0.4,0.3-1.2-0.3-1.1C56.6,60.1,55.5,60.3,54.5,60.5L54.5,60.5z"/>
					<path class="st3" d="M52.3,61.8c-0.3,0-0.6,0-0.9,0c-0.7-0.1-0.8-0.5-0.7-0.7c0-0.3,0.3-0.6,0.6-0.6c0.9,0.1,2.2,0,3.1-0.1
						c1.3-0.2,2.3-0.5,2.9-0.7c0.3-0.1,0.7,0.1,0.8,0.5c0,0.1,0.1,0.5-0.5,0.8c-1,0.3-2.5,0.5-3.1,0.6
						C54.1,61.7,53.2,61.8,52.3,61.8z M51.3,60.7c-0.2,0-0.4,0.2-0.4,0.4c0,0.2,0.2,0.4,0.6,0.4c0.9,0.1,2.4,0,3.1-0.1
						c0.6-0.1,2.1-0.4,3-0.6c0.3-0.1,0.4-0.3,0.4-0.5c-0.1-0.2-0.4-0.4-0.6-0.3c-0.5,0.2-1.6,0.5-2.9,0.7l0,0
						C53.5,60.7,52.3,60.9,51.3,60.7z M54.5,60.5L54.5,60.5L54.5,60.5z"/>
				</g>
				<g>
					<path id="_x32_9_1_" class="st2" d="M42.3,60c-0.8-0.1-1.2,0.8-0.9,1.3c0.1-0.3,0.7-0.3,0.8-0.5C42.3,60.3,42,60.3,42.3,60
						L42.3,60z"/>
					<path class="st3" d="M41.3,61.4C41.3,61.4,41.3,61.3,41.3,61.4c-0.3-0.4-0.2-0.8,0-1.2c0.2-0.3,0.5-0.4,0.9-0.4
						c0,0,0.1,0,0.1,0.1c0,0,0,0.1,0,0.1c-0.1,0.2-0.1,0.2-0.1,0.3c0,0.1,0,0.2,0,0.4c-0.1,0.2-0.3,0.3-0.5,0.3
						C41.6,61.2,41.5,61.2,41.3,61.4C41.4,61.3,41.4,61.4,41.3,61.4C41.3,61.4,41.3,61.4,41.3,61.4z M42.1,60.1
						c-0.3,0-0.5,0.2-0.5,0.3c-0.2,0.2-0.2,0.5-0.2,0.7c0.1-0.1,0.2-0.1,0.3-0.2c0.1-0.1,0.3-0.1,0.3-0.2c0.1-0.1,0-0.2,0-0.3
						C42,60.3,42,60.2,42.1,60.1z"/>
				</g>
				<g>
					<path id="_x32_8_1_" class="st2" d="M45.4,62.4c0-0.5,0.5-0.5,0.5-1c0-0.3-0.1-0.7-0.4-0.7c-0.3,0-0.5,0.3-0.5,0.5
						C44.9,61.8,45.4,61.9,45.4,62.4z"/>
					<path class="st3" d="M45.4,62.5c-0.1,0-0.1,0-0.1-0.1c0-0.2-0.1-0.3-0.2-0.5c-0.1-0.2-0.3-0.4-0.2-0.7c0-0.3,0.3-0.6,0.6-0.6
						c0.3,0,0.5,0.4,0.5,0.8c0,0.3-0.2,0.5-0.3,0.6c-0.1,0.1-0.2,0.2-0.2,0.4C45.5,62.4,45.5,62.5,45.4,62.5z M45.5,60.9
						c-0.2,0-0.4,0.2-0.4,0.4c-0.1,0.3,0,0.4,0.2,0.5c0.1,0.1,0.1,0.1,0.1,0.2c0.1-0.1,0.1-0.1,0.2-0.2c0.1-0.1,0.2-0.2,0.2-0.4
						C45.8,61.2,45.7,60.9,45.5,60.9z"/>
				</g>
				<g>
					<path id="_x32_7_1_" class="st2" d="M49.2,60.9c0.8,0,0.7,1,0.3,1.6c0-0.4-0.7-0.5-0.7-0.8C48.8,61.3,49.4,61.3,49.2,60.9
						L49.2,60.9z"/>
					<path class="st3" d="M49.5,62.6C49.5,62.6,49.5,62.6,49.5,62.6c-0.1,0-0.1-0.1-0.1-0.1c0-0.2-0.2-0.3-0.3-0.4
						c-0.2-0.1-0.3-0.2-0.3-0.4c0-0.2,0.2-0.4,0.3-0.5c0.1-0.1,0.2-0.1,0.1-0.3c0,0,0-0.1,0-0.1c0,0,0.1-0.1,0.1-0.1
						c0.4,0,0.5,0.2,0.6,0.4C50,61.5,49.8,62.2,49.5,62.6C49.5,62.5,49.5,62.6,49.5,62.6z M49.6,62.4L49.6,62.4L49.6,62.4z M49.3,61
						c0,0.2-0.1,0.3-0.2,0.4c-0.1,0.1-0.2,0.2-0.2,0.3c0,0.1,0.1,0.2,0.2,0.2c0.1,0.1,0.3,0.2,0.3,0.3c0.1-0.3,0.2-0.7,0.1-1
						C49.5,61.1,49.4,61,49.3,61z"/>
				</g>
				<g>
					<path id="_x32_6_1_" class="st2" d="M57.7,60c0.8-0.1,1.2,0.8,0.9,1.3C58.5,61,58,61,57.9,60.7C57.7,60.3,58,60.3,57.7,60
						L57.7,60z"/>
					<path class="st3" d="M58.7,61.4C58.7,61.4,58.7,61.4,58.7,61.4C58.6,61.4,58.6,61.3,58.7,61.4c-0.1-0.2-0.3-0.2-0.4-0.3
						c-0.2-0.1-0.4-0.1-0.4-0.3c-0.1-0.2-0.1-0.3,0-0.4c0-0.1,0-0.2-0.1-0.3c0,0,0-0.1,0-0.1c0,0,0-0.1,0.1-0.1
						c0.4-0.1,0.7,0.1,0.9,0.4C58.9,60.5,58.9,61,58.7,61.4C58.7,61.3,58.7,61.4,58.7,61.4z M57.9,60.1c0.1,0.1,0.1,0.2,0,0.3
						c0,0.1,0,0.2,0,0.3c0,0.1,0.2,0.1,0.3,0.2c0.1,0,0.2,0.1,0.3,0.2c0-0.2,0-0.5-0.2-0.7C58.4,60.2,58.2,60.1,57.9,60.1z"/>
				</g>
				<g>
					<path id="_x32_5_1_" class="st2" d="M54.6,62.4c0-0.5-0.5-0.5-0.5-1c0-0.3,0.1-0.7,0.4-0.7c0.3,0,0.5,0.3,0.5,0.5
						C55.1,61.8,54.6,61.9,54.6,62.4L54.6,62.4z"/>
					<path class="st3" d="M54.6,62.5c-0.1,0-0.1,0-0.1-0.1c0-0.2-0.1-0.3-0.2-0.4c-0.1-0.1-0.3-0.3-0.3-0.6c0-0.3,0.2-0.8,0.5-0.8
						c0.3,0,0.6,0.3,0.6,0.6c0.1,0.3-0.1,0.5-0.2,0.7c-0.1,0.1-0.2,0.3-0.2,0.5C54.7,62.4,54.6,62.5,54.6,62.5z M54.5,60.9
						c-0.2,0-0.3,0.3-0.3,0.6c0,0.2,0.1,0.3,0.2,0.4c0.1,0.1,0.1,0.1,0.2,0.2c0-0.1,0.1-0.2,0.1-0.2c0.1-0.2,0.2-0.3,0.2-0.5
						C54.9,61.1,54.7,60.9,54.5,60.9z"/>
				</g>
				<g>
					<path id="_x32_4_1_" class="st2" d="M50.8,60.9c-0.8,0-0.7,1-0.3,1.6c0-0.4,0.7-0.5,0.7-0.8C51.2,61.3,50.6,61.3,50.8,60.9z"/>
					<path class="st3" d="M50.5,62.6C50.5,62.6,50.5,62.5,50.5,62.6c-0.3-0.4-0.5-1-0.3-1.4c0.1-0.2,0.3-0.4,0.6-0.4
						c0,0,0.1,0,0.1,0.1c0,0,0,0.1,0,0.1c-0.1,0.1-0.1,0.2,0.1,0.3c0.1,0.1,0.3,0.2,0.3,0.5c0,0.2-0.2,0.3-0.3,0.4
						c-0.2,0.1-0.3,0.2-0.3,0.4C50.6,62.5,50.6,62.5,50.5,62.6C50.5,62.6,50.5,62.6,50.5,62.6z M50.7,61c-0.1,0-0.2,0.1-0.3,0.2
						c-0.1,0.3-0.1,0.7,0.1,1c0.1-0.1,0.2-0.2,0.3-0.3c0.1-0.1,0.2-0.2,0.2-0.2c0-0.1-0.1-0.2-0.2-0.3C50.8,61.3,50.7,61.2,50.7,61z
						"/>
				</g>
				<path class="st3" d="M43.3,60.6C43.3,60.6,43.3,60.6,43.3,60.6l-0.8-0.3c0,0-0.1,0,0-0.1c0,0,0-0.1,0.1-0.1
					c0.3,0,0.7,0.1,0.8,0.3C43.4,60.5,43.4,60.5,43.3,60.6C43.3,60.5,43.3,60.6,43.3,60.6z"/>
				<path class="st3" d="M44.7,61C44.7,61,44.7,61,44.7,61l-0.9-0.3c0,0-0.1,0-0.1-0.1c0,0,0-0.1,0.1-0.1c0.2,0,0.7,0.1,1,0.3
					C44.8,60.8,44.8,60.9,44.7,61C44.8,60.9,44.8,61,44.7,61z"/>
				<path class="st3" d="M47.6,61.3C47.6,61.3,47.6,61.3,47.6,61.3c-0.1-0.1-0.1-0.1,0-0.1c0.1-0.1,0.6-0.1,1-0.1c0,0,0.1,0,0.1,0.1
					c0,0,0,0.1-0.1,0.1L47.6,61.3C47.6,61.3,47.6,61.3,47.6,61.3z"/>
				<path class="st3" d="M47.1,61.2h-0.9c0,0-0.1,0-0.1-0.1c0,0,0-0.1,0-0.1c0.3-0.1,0.8-0.2,1,0C47.2,61.1,47.2,61.1,47.1,61.2
					C47.2,61.2,47.1,61.2,47.1,61.2z"/>
				<g>
					<path id="_x31_9_1_" class="st2" d="M57.5,60.2c-0.3,0-0.6,0.1-0.8,0.3L57.5,60.2z"/>
					<path class="st3" d="M56.7,60.6C56.7,60.6,56.7,60.5,56.7,60.6c-0.1-0.1-0.1-0.1-0.1-0.1c0.2-0.2,0.6-0.3,0.8-0.3
						c0,0,0.1,0,0.1,0.1c0,0,0,0.1,0,0.1L56.7,60.6C56.7,60.6,56.7,60.6,56.7,60.6z"/>
				</g>
				<g>
					<path id="_x31_8_1_" class="st2" d="M56.2,60.6c-0.1,0-0.7,0.1-0.9,0.3L56.2,60.6z"/>
					<path class="st3" d="M55.3,61C55.2,61,55.2,60.9,55.3,61c-0.1-0.1-0.1-0.1,0-0.1c0.3-0.1,0.8-0.3,1-0.3c0,0,0.1,0,0.1,0.1
						c0,0,0,0.1-0.1,0.1L55.3,61C55.3,61,55.3,61,55.3,61z"/>
				</g>
				<g>
					<path id="_x31_7_1_" class="st2" d="M51.4,61.1c0.3,0,0.8,0,0.9,0.1L51.4,61.1z"/>
					<path class="st3" d="M52.4,61.3C52.4,61.3,52.4,61.3,52.4,61.3l-0.9-0.1c0,0-0.1,0-0.1-0.1c0,0,0-0.1,0.1-0.1
						c0.4,0,0.8,0,1,0.1C52.4,61.2,52.4,61.3,52.4,61.3C52.4,61.3,52.4,61.3,52.4,61.3z"/>
				</g>
				<g>
					<path id="_x31_6_1_" class="st2" d="M52.9,61.1c0.1-0.1,0.7-0.1,0.9,0H52.9z"/>
					<path class="st3" d="M53.8,61.2h-0.9c0,0-0.1,0-0.1,0c0,0,0-0.1,0-0.1c0.2-0.2,0.7-0.2,1,0C53.9,61.1,53.9,61.1,53.8,61.2
						C53.9,61.2,53.8,61.2,53.8,61.2z"/>
				</g>
				<path class="st3" d="M52.8,54.9C52.7,54.9,52.7,54.9,52.8,54.9l-1.4-1.7c0,0,0-0.1,0-0.1c0,0,0.1,0,0.1,0l1.1,1.5l0.4-3.8
					c0-0.1,0.1-0.1,0.1-0.1c0.1,0,0.1,0.1,0.1,0.1l-0.4,4C52.9,54.9,52.8,54.9,52.8,54.9C52.8,54.9,52.8,54.9,52.8,54.9z"/>
				<g>
					<path id="_x31_4_1_" class="st2" d="M50,54.5c5.4-4.1,4.9-10.2,4.9-10.2c-0.1,0-0.3,0-0.4,0c-1.1,0-3.8-0.6-4.5-1.5
						c-0.7,0.7-3.4,1.5-4.5,1.5c-0.1,0-0.3,0-0.4,0C45.1,44.3,44.6,50.4,50,54.5L50,54.5z"/>
					<path class="st3" d="M50,54.6L50,54.6c-5.4-4.2-5-10.3-5-10.3l0-0.1l0.1,0c0.1,0,0.3,0,0.4,0c1.1,0,3.8-0.7,4.5-1.4l0.1-0.1
						l0.1,0.1c0.6,0.8,3.3,1.4,4.4,1.4c0.1,0,0.3,0,0.4,0l0.1,0l0,0.1C55,44.3,55.4,50.4,50,54.6L50,54.6z M45.2,44.4
						c0,0.8,0,6.2,4.8,10c4.8-3.8,4.9-9.2,4.8-10c-0.1,0-0.2,0-0.3,0c-1.1,0-3.7-0.6-4.5-1.4c-0.8,0.8-3.5,1.4-4.5,1.4
						C45.4,44.4,45.3,44.4,45.2,44.4z"/>
				</g>
				<path id="_x31_3" class="st2" d="M54.5,44.7c0,0-0.1,0-0.1,0c-1,0-3.4-0.5-4.3-1.3c-1,0.7-3.4,1.3-4.4,1.3c0,0-0.1,0-0.1,0
					c0,0.2,0,0.5,0,0.7c0.1,0.8,0.2,1.6,0.4,2.4c0.7,2.5,2.1,4.5,4.1,6.1c2-1.6,3.4-3.7,4.1-6.1c0.2-0.8,0.4-1.6,0.4-2.4
					C54.5,45.2,54.5,45,54.5,44.7L54.5,44.7z"/>
				<g id="_x31_2">
					<defs>
						<path id="SVGID_00000106115692032089588570000011405088378184492702_" d="M54.5,44.7c0,0-0.1,0-0.1,0c-1,0-3.4-0.5-4.3-1.3
							c-1,0.7-3.4,1.3-4.4,1.3c0,0-0.1,0-0.1,0c0,0.2,0,0.5,0,0.7c0.1,0.8,0.2,1.6,0.4,2.4c0.7,2.5,2.1,4.5,4.1,6.1
							c2-1.6,3.4-3.7,4.1-6.1c0.2-0.8,0.4-1.6,0.4-2.4C54.5,45.2,54.5,45,54.5,44.7L54.5,44.7z"/>
					</defs>
					<clipPath id="SVGID_00000026858689418943186290000006625399222197600154_">
						<use xlink:href="#SVGID_00000106115692032089588570000011405088378184492702_"  style="overflow:visible;"/>
					</clipPath>
					
						<rect id="_43809040-4" x="44.4" y="42" style="clip-path:url(#SVGID_00000026858689418943186290000006625399222197600154_);fill:#C09300;" width="3.9" height="13.4"/>
					
						<rect id="_43612568-5" x="51.6" y="42" style="clip-path:url(#SVGID_00000026858689418943186290000006625399222197600154_);fill:#C09300;" width="4.1" height="13.4"/>
				</g>
				<path class="st3" d="M51.2,56.3C51.2,56.3,51.2,56.3,51.2,56.3c-0.1,0-0.1-0.1-0.1-0.1l0.7-2.5c0-0.1,0.1-0.1,0.1-0.1
					c0.1,0,0.1,0.1,0.1,0.1l-0.7,2.5C51.3,56.3,51.2,56.3,51.2,56.3z"/>
				<path id="_x31_0" class="st3" d="M42.3,62.3c-0.1,0-0.1-0.1-0.1-0.2c0-0.1,0.1-0.2,0.2-0.1c0,0,0.1,0.1,0.1,0.1
					c0,0,0,0.1-0.1,0.1c0,0,0,0,0,0C42.4,62.3,42.3,62.3,42.3,62.3L42.3,62.3z M51.4,63c0,0-0.1-0.1-0.1-0.1c0-0.1,0.1-0.2,0.2-0.2
					c0,0,0.1,0,0.1,0.1c0.1,0.1,0,0.1,0,0.2C51.5,63,51.4,63,51.4,63L51.4,63z M51.4,63.4c-0.1,0-0.1-0.1-0.1-0.1
					c0-0.1,0-0.1,0.1-0.1l0.1,0l0.1,0c0.1,0,0.1,0.1,0.1,0.1c0,0.1,0,0.1-0.1,0.1C51.5,63.4,51.5,63.4,51.4,63.4L51.4,63.4z
					 M42.5,62.9C42.5,62.8,42.5,62.8,42.5,62.9C42.4,62.8,42.4,62.8,42.5,62.9c-0.1-0.1-0.2,0-0.1,0C42.3,62.9,42.3,62.9,42.5,62.9
					C42.4,62.9,42.5,62.9,42.5,62.9L42.5,62.9z M43.9,63.6c0,0-0.1,0-0.2,0c-0.2,0-0.4-0.1-0.5-0.1c0,0-0.1,0-0.1,0
					c-0.1,0-0.1,0-0.2-0.1c0,0-0.1,0-0.2-0.1c-0.1,0-0.1,0-0.2-0.1c0,0-0.1,0-0.1,0c0,0,0,0-0.1,0c0,0-0.1,0-0.1,0
					c-0.1,0-0.2,0-0.2-0.1c0,0,0-0.1,0-0.1c0,0,0-0.1,0-0.1c0,0,0,0,0,0c0,0,0,0,0,0c0,0,0.1-0.1,0.1-0.1c0,0,0.1-0.1,0.2-0.1
					c0,0,0.1,0,0.1,0c0,0,0,0,0.1,0l0.1,0l0-0.1c0,0,0-0.1,0-0.1c0,0,0-0.1,0-0.1c0,0,0-0.1,0-0.1c0-0.1,0.1-0.2,0.1-0.2
					c0,0,0,0,0-0.1c0,0,0,0-0.1,0c0,0-0.1,0-0.1,0c0,0-0.1,0.1-0.1,0.1c-0.1,0-0.1,0-0.2-0.1c0,0,0,0,0-0.1c0,0,0-0.1,0.1-0.1
					c0.1,0,0.2,0,0.2,0c0,0,0,0,0.1,0c0,0,0.1,0,0.1,0c0,0,0,0,0.1,0c0,0,0.1,0,0.1,0c0,0,0,0,0,0c0,0,0,0,0.1,0c0,0,0,0,0,0
					c0,0,0,0,0.1,0c0,0,0,0,0,0.1c0,0,0,0.1,0,0.1c0,0,0,0.1,0,0.1c0,0,0,0.1,0,0.1c0,0,0,0,0,0.1c0,0,0,0,0,0c0,0,0,0.1,0,0.1
					c0,0,0,0.1,0,0.1c0,0,0,0,0,0.1c0,0,0,0.1,0,0.1c0,0,0,0,0,0.1c0,0,0,0.1,0,0.1c0,0,0,0.1,0,0.1c0,0,0,0.1,0,0.1
					c0,0,0,0.1,0,0.1c0,0,0,0.1,0,0.1c0,0,0,0,0,0.1c0,0,0.1,0.1,0.3,0.1c0.1,0,0.1,0,0.1,0c0,0,0-0.1,0-0.1c0,0,0-0.1,0-0.1
					c0,0,0-0.1,0-0.1c0-0.1,0-0.1,0-0.1c0,0,0,0,0-0.1c0,0,0.1-0.1,0.1-0.1c0,0,0,0,0,0c0,0,0,0,0.1,0c0,0,0,0,0.1-0.1
					c0.1,0,0.1,0,0.1,0c0,0,0,0,0,0.1c0,0,0,0.1,0,0.1c0,0,0,0.1,0,0.1c0,0,0,0,0,0.1c0,0,0,0.1,0,0.1c0,0,0,0.1,0,0.1
					c0,0,0,0.1,0,0.1c0,0.1,0,0.1,0,0.1c0,0,0,0,0,0c0,0,0.1,0,0.1,0c0,0,0.1,0,0.1,0c0,0,0.1,0,0.1,0c0.1,0,0.1,0,0.1,0
					c0,0,0-0.1,0.1-0.1c0,0,0-0.1,0-0.1c0,0,0-0.1,0-0.1c-0.1-0.1,0-0.1,0-0.1c0,0,0.1,0,0.2-0.1c0.1-0.1,0.1-0.1,0.2-0.1
					c0,0,0,0.1,0,0.1c0,0,0,0.1,0,0.1c0,0,0,0.1,0,0.2c0,0,0,0.1,0,0.2c0,0.1,0,0.1,0,0.2c0,0,0,0.1,0,0.1c0,0,0,0,0,0.1
					C44.1,63.6,44,63.6,43.9,63.6L43.9,63.6z M42.3,63.6c-0.1-0.1-0.1-0.1,0.1-0.2c0.1,0,0.1,0,0.1,0c0.1,0.1,0.1,0.1,0,0.2
					c0,0-0.1,0-0.1,0C42.3,63.6,42.3,63.6,42.3,63.6L42.3,63.6z M42.8,63.7c-0.1,0-0.1-0.1-0.1-0.2c0-0.1,0-0.1,0.1-0.1
					c0.1,0,0.1,0,0.1,0.1c0,0.1,0,0.1,0,0.1C42.9,63.7,42.8,63.8,42.8,63.7L42.8,63.7z M57.5,63.8C57.4,63.7,57.4,63.7,57.5,63.8
					c0-0.2,0-0.2,0.1-0.2c0.1-0.1,0.2,0,0.2,0c0.1,0.1,0.1,0.1,0,0.2c0,0,0,0-0.1,0C57.5,63.8,57.5,63.8,57.5,63.8L57.5,63.8z
					 M43.4,63.9c-0.1,0-0.1-0.1-0.1-0.1c0-0.1,0-0.1,0-0.1c0,0,0.1,0,0.1,0c0,0,0.1,0,0.1,0c0.1,0.1,0.1,0.1,0.1,0.2
					C43.6,64,43.5,64,43.4,63.9L43.4,63.9z M47.1,64.1L47.1,64.1l0-0.1c0-0.1,0-0.1,0-0.1c0,0,0-0.1,0-0.1c0,0,0-0.1,0-0.1
					c0,0,0-0.1,0-0.2c0-0.1,0-0.2,0-0.2c0,0,0-0.1,0-0.1c0,0,0-0.1,0-0.1c0,0,0-0.1,0-0.2c0-0.1,0-0.1,0-0.2c0,0,0-0.1,0-0.1
					c0,0,0-0.1,0.1-0.1c0,0,0,0,0.1,0.1c0,0,0.1,0.1,0.1,0.1c0.2,0.1,0.2,0.1,0.1,0.2c0,0,0,0,0,0c0,0,0,0,0,0c0,0,0,0,0,0.1
					c0,0,0,0.1,0,0.1c0,0,0,0.2,0,0.4c0,0,0,0.1,0,0.1c0,0,0,0.1,0,0.2c0,0.1,0,0.2,0,0.2c0,0,0,0,0,0.1c0,0.1,0,0.2-0.1,0.2
					c0,0,0,0-0.1,0C47.1,64.1,47.1,64.1,47.1,64.1L47.1,64.1z M51.8,64L51.8,64L51.8,64l0.1-0.1l-0.1,0c0,0-0.1,0-0.1,0
					C51.7,63.9,51.7,64,51.8,64C51.8,64,51.8,64,51.8,64C51.8,64,51.8,64,51.8,64L51.8,64z M51.5,64.3c0,0,0,0,0-0.1
					c0,0,0-0.1,0-0.1c0,0,0-0.1,0-0.1c0,0,0,0,0-0.1c0,0,0-0.1,0-0.1c0,0,0-0.1,0-0.1c0,0,0.1-0.1,0.1-0.1c0,0,0,0,0,0
					c0,0,0,0,0.1,0c0,0,0,0,0.1,0c0,0,0,0,0-0.1c0-0.1,0-0.1,0-0.2c0,0,0-0.1,0-0.1c0,0,0-0.1,0-0.2c0-0.1,0-0.1,0-0.2c0,0,0,0,0,0
					c0,0-0.1-0.1-0.1-0.1c0.1-0.1,0.2-0.2,0.3-0.2c0,0,0.1,0,0.1,0c0,0,0,0.1,0,0.2c0,0.1,0,0.2,0,0.2c0,0,0,0.2,0,0.3
					c0,0.1,0,0.2,0,0.2c0,0,0,0.1,0,0.2c0,0.1,0,0.2,0,0.2c0,0.1,0.1,0.1,0.2,0.1c0,0,0.1,0,0.1,0c0.1,0,0.1,0,0.1-0.2
					c0-0.1,0-0.1,0-0.2c0,0,0,0-0.1,0c0,0-0.1,0-0.1-0.1c0,0,0.1-0.1,0.1-0.1c0,0,0.1,0,0.1-0.1c0.1-0.1,0.1-0.1,0.2,0
					c0,0,0,0,0,0.2c0,0.1,0,0.2,0,0.2c0,0,0,0.1,0,0.2c0,0.1,0,0.1,0,0.2c0,0,0,0,0,0.1c0,0,0,0,0,0.1c0,0,0,0-0.1,0
					c-0.1,0-0.1,0-0.1,0c0,0-0.1,0-0.2,0c-0.3,0-0.6,0-0.6,0.1c0,0-0.1,0-0.2,0L51.5,64.3L51.5,64.3L51.5,64.3z M45.9,63.3
					C45.9,63.2,45.9,63.2,45.9,63.3c0-0.1-0.1-0.1-0.1-0.2c0-0.1-0.1-0.1-0.1,0c0,0-0.1,0.1-0.1,0.1l0,0l0,0
					c0.1,0.1,0.1,0.1,0.2,0.1C45.8,63.3,45.9,63.3,45.9,63.3L45.9,63.3z M46.3,64.4C46.3,64.4,46.2,64.4,46.3,64.4
					c0,0-0.2-0.1-0.2-0.1c0,0,0,0,0,0c0,0,0-0.1,0-0.1c0-0.1,0-0.1,0-0.1c0,0,0,0,0-0.1c0,0-0.1,0-0.1,0c-0.1,0-0.1,0-0.2,0
					c0,0,0,0,0-0.1c0,0,0-0.1,0-0.1c0,0-0.1,0-0.1,0c0,0,0,0,0,0c0,0,0,0,0,0c0,0,0,0,0,0.1c0,0,0,0-0.1,0c0,0-0.1,0-0.1,0
					c0,0-0.1,0-0.2,0c-0.2,0-0.3,0-0.3,0c0,0.1-0.2,0.2-0.2,0.2c0,0-0.1,0-0.1,0c0,0-0.1,0-0.1,0c0,0-0.1,0-0.1,0
					C44,64.1,44,64,44,64c0,0,0.1-0.1,0.1-0.1c0,0,0.1,0,0.1,0c0,0,0,0,0.1,0c0,0,0.1,0,0.1,0c0,0,0,0,0.1,0c0,0,0,0,0.1-0.1
					c0,0,0-0.1,0-0.1c0,0,0,0,0,0c0,0,0,0,0-0.1c0,0,0-0.1,0-0.1c0,0,0-0.1,0-0.1c0,0,0-0.1,0-0.1c0,0,0,0,0-0.1
					c0-0.1,0-0.1,0.1-0.2c0,0,0,0,0-0.1c0,0,0-0.1,0.1-0.1c0,0,0.1,0.1,0.1,0.1c0,0,0,0,0,0.1c0,0,0,0.1,0,0.1c0,0.1,0,0.2,0,0.3
					c0,0,0.1,0.1,0.1,0.1c0,0,0.1,0,0.1,0c0,0,0.1,0,0.1,0c0.1,0,0.1,0,0.1-0.1c0,0,0.1-0.1,0.1-0.1c0,0-0.2-0.1-0.3-0.2
					c0,0-0.1-0.1-0.1-0.1c0,0,0.1-0.1,0.1-0.2c0,0,0.1,0,0.2-0.1l0.1,0l0-0.1c0.1-0.1,0.2-0.2,0.3-0.2c0.1,0,0.1,0,0.1,0.1
					c0,0,0,0,0.1,0.1c0,0.1,0.1,0.1,0.1,0.2c0,0,0,0.1,0,0.1c0,0,0.2,0.2,0.2,0.2c0,0,0,0,0,0c0,0,0,0.1,0,0.1c0,0.1,0,0.1-0.2,0.1
					c-0.1,0-0.1,0-0.2,0l-0.1,0l0,0.1c0,0.1,0,0.1,0.1,0.1c0,0,0.1,0,0.1,0c0,0,0,0,0,0c0,0,0,0,0.1,0c0,0,0,0,0,0.2l0,0.2l0,0
					c0,0,0,0,0.1,0c0,0,0.1,0,0.1,0c0,0,0,0,0-0.1c0,0,0-0.1,0-0.2c0-0.1,0-0.2,0-0.2c0,0,0-0.1,0-0.2c0-0.1,0-0.1,0-0.2
					c0,0,0-0.1,0-0.2c0-0.1,0-0.2,0-0.2c0,0,0,0,0-0.2l0-0.1l0,0c0,0,0-0.1,0-0.1c0,0,0-0.1,0.1-0.1c0,0,0.1,0,0.1,0
					c0,0,0.1,0,0.1,0c0,0,0.1-0.1,0.1-0.1c0,0,0,0,0,0c0,0,0,0.1,0,0.2c0,0,0,0.1,0,0.1c0,0,0,0.1,0,0.1c0,0,0,0.1,0,0.3
					c0,0.1,0,0.2,0,0.2c0,0,0,0.1,0,0.1c0,0,0,0.1,0,0.2c0,0.1,0,0.1,0,0.2c0,0.1,0,0.1,0,0.1c0,0,0,0.1,0,0.1c0,0,0,0.1,0,0.1
					c0,0,0,0.1,0,0.1c0,0-0.1,0.1-0.1,0.1c0,0,0,0,0,0c0,0,0,0,0,0c0,0-0.1,0-0.1,0C46.4,64.5,46.3,64.5,46.3,64.4L46.3,64.4z
					 M56.7,63.5c0.1,0,0.1-0.1,0.1-0.1c0,0-0.1-0.1-0.1-0.1c-0.1,0-0.1,0.1-0.1,0.1c0,0,0,0,0.1,0.1C56.6,63.5,56.6,63.5,56.7,63.5
					C56.6,63.5,56.7,63.5,56.7,63.5L56.7,63.5z M55.7,63.5C55.8,63.5,55.8,63.5,55.7,63.5c0.1-0.1,0-0.2-0.1-0.2c-0.1,0-0.1,0-0.1,0
					c0,0,0,0,0,0.1c0,0,0,0.1,0,0.1C55.5,63.5,55.6,63.5,55.7,63.5C55.6,63.5,55.7,63.5,55.7,63.5L55.7,63.5z M55.3,63.6
					c0,0,0-0.1,0-0.1c0-0.1,0-0.1,0-0.1c0,0-0.1,0-0.1,0c0,0,0,0,0,0.1C55.1,63.6,55.1,63.6,55.3,63.6
					C55.3,63.6,55.3,63.6,55.3,63.6L55.3,63.6z M54.3,63.7C54.3,63.7,54.3,63.7,54.3,63.7c0-0.2-0.1-0.2-0.1-0.1c0,0,0,0,0,0
					c0,0,0,0,0,0c0,0,0,0,0,0c0,0,0,0,0,0C54.2,63.8,54.2,63.8,54.3,63.7L54.3,63.7z M55.8,63.9C55.9,63.9,55.9,63.8,55.8,63.9
					c0-0.1-0.1-0.1-0.2-0.1c0,0-0.1,0-0.1,0.1c0,0,0,0,0,0C55.7,63.9,55.8,63.9,55.8,63.9L55.8,63.9z M53.9,64.5
					C53.9,64.4,53.9,64.4,53.9,64.5c0-0.1,0-0.1,0.1-0.1c0,0,0,0,0,0c0,0,0,0,0.1,0c0.1,0,0.2-0.1,0.2-0.2c0,0,0-0.1,0-0.1
					c0,0-0.2,0-0.3,0c0,0,0,0-0.1,0l0,0l0-0.2l0-0.2l0.1-0.1c0,0,0.1-0.1,0.1-0.1c0,0,0,0,0-0.1c0,0,0,0,0.1,0
					c0.1,0,0.1-0.1,0.2-0.1c0,0,0,0,0,0c0,0,0,0,0,0c0,0,0,0,0.1,0.1c0,0,0,0.1,0,0.1c0,0,0,0.1,0,0.1c0,0,0,0.1,0,0.1
					c0,0,0,0.1,0,0.1c0,0,0.2,0,0.2,0c0,0,0,0,0-0.1c0-0.1,0-0.1,0-0.1c0,0,0-0.1,0-0.1c0-0.1,0.1-0.2,0.2-0.2c0,0,0.1,0,0.1,0
					c0,0,0,0,0,0c0,0,0,0,0-0.1c0,0,0-0.1-0.1-0.2c0,0,0,0,0,0c0,0,0-0.1,0.1-0.2c0,0,0.1-0.1,0.1-0.1s0,0,0,0c0,0,0,0,0.1,0
					c0,0,0,0,0.1,0.1c0,0.1,0,0.2,0.1,0.2c0,0,0,0.1,0,0.1c0,0,0.1,0,0.1,0c0.1,0,0.1,0,0.1,0c0,0,0,0,0.1,0c0,0,0.1,0.1,0.1,0.1
					c0,0,0,0,0,0c0,0,0.1,0.1,0.1,0.2c0.1,0.1,0.1,0.1,0.2,0.1c0.1,0,0.1,0,0.1,0c0,0,0,0,0-0.1c0,0,0-0.1,0.1-0.1
					c0,0,0.1-0.1,0.1-0.1c0,0,0.1-0.1,0.1-0.1c0,0,0.1,0,0.1,0c0.1,0,0.1,0.1,0.2,0.1c0.1,0.1,0.2,0.1,0.3,0.1c0,0,0,0,0,0
					c0,0,0,0,0,0c0,0-0.1-0.2-0.1-0.2c0,0,0-0.1,0-0.1c0-0.1,0-0.1,0-0.1c0,0,0-0.1,0-0.2c0-0.1,0-0.2,0-0.2c0,0,0-0.1,0-0.1
					c0-0.1-0.1-0.2-0.2-0.2c0,0,0,0-0.1,0c0,0-0.1,0-0.1,0c0,0,0,0,0,0c0,0-0.1,0.1-0.1,0.1c0,0,0,0,0,0c0,0,0,0-0.1,0
					c0,0,0-0.1,0-0.1c0,0,0,0,0-0.1c0,0,0,0-0.1-0.1c0,0,0,0,0-0.1c0,0,0,0,0,0c0,0,0,0,0,0c0,0,0.1,0,0.1,0c0.1,0,0.4,0,0.4,0
					c0,0,0.1,0,0.1,0c0,0,0.1,0.1,0.2,0.2c0,0,0,0,0,0c0,0,0,0,0,0.1c0,0,0,0.1,0,0.1c0,0,0,0.2,0.1,0.3c0,0,0,0.1,0,0.2
					c0,0,0,0.1,0,0.1c0,0,0,0.1,0,0.1c0,0,0,0,0,0c0,0,0.1,0.1,0.2,0.1c0.1,0,0.2,0,0.2-0.1c0,0,0.1-0.1,0.1-0.1c0,0,0.1,0,0.1,0.1
					c0,0,0.1,0.1,0.1,0.1c0.1,0,0.1,0.1,0.1,0.1c0,0,0,0,0,0c0,0-0.1,0-0.1,0c0,0-0.1,0-0.1,0c0,0-0.1,0-0.2,0
					c-0.1,0-0.2,0.1-0.3,0.1c-0.2,0-0.4,0.1-0.4,0.1c0,0,0,0-0.1,0c-0.1,0-0.1,0-0.1,0.1c0,0.1-0.1,0.2-0.2,0.2c-0.1,0-0.1,0-0.2,0
					c-0.1,0-0.2,0-0.2,0c0,0,0,0,0,0c0,0,0,0,0-0.1c0,0-0.1,0-0.2,0l0,0l0,0.1c0,0.1,0,0.1,0,0.1c0,0,0,0,0,0.1c0,0,0,0-0.1,0.1
					c0,0-0.1,0.1-0.1,0.1c-0.1,0.1-0.1,0.1-0.1,0c0,0,0,0-0.1,0c0,0-0.1,0-0.2-0.1c0,0-0.1-0.2-0.1-0.2c0,0,0,0,0,0c0,0,0,0-0.1,0
					c0,0-0.1,0-0.1,0c0,0-0.1,0-0.2,0c-0.1,0-0.1,0-0.1,0c0,0-0.1,0-0.1,0c-0.1,0-0.1,0-0.1,0.1c0,0,0,0.1,0,0.1c0,0,0,0,0,0
					c0,0-0.1,0.1-0.2,0.2c0,0-0.1,0-0.1,0.1c0,0-0.1,0-0.2,0C54,64.5,53.9,64.5,53.9,64.5L53.9,64.5z M52.9,64.6L52.9,64.6
					L52.9,64.6c0-0.1,0-0.1,0.1-0.1c0.1,0,0.1-0.1,0.2-0.1c0,0,0.1-0.1,0.1-0.1c0,0,0,0,0-0.1c0,0,0,0,0-0.2c0-0.1,0-0.1-0.1-0.2
					c0,0-0.1-0.1-0.2-0.1c0,0-0.1-0.1,0-0.1c0,0,0-0.1,0.1-0.1c0-0.1,0.1-0.1,0.1-0.1c0,0,0.1,0,0.1,0c0,0,0.1,0.1,0.1,0.2
					c0,0,0,0,0,0c0,0,0.1,0.1,0.1,0.2c0,0,0,0,0,0.1c0,0,0,0.1,0,0.1c0,0,0,0.1,0,0.1c0,0.1,0,0.3,0,0.4c0,0,0,0.1,0,0.1
					c0,0,0,0,0,0c0,0.1-0.2,0.1-0.2,0.1c0,0,0,0,0,0c0,0,0,0-0.2,0C53,64.6,53,64.6,52.9,64.6L52.9,64.6z M51.8,64.6
					C51.8,64.6,51.8,64.6,51.8,64.6c0-0.1,0-0.2,0-0.2c0.1-0.1,0.1-0.1,0.2,0c0.1,0.1,0.2,0.1,0.2,0c0,0,0.1-0.1,0.1-0.1
					c0,0,0.1,0,0.1,0c0,0,0,0,0,0.1c0,0.1,0,0.1,0,0.1c0,0-0.1,0-0.1,0c-0.1,0-0.1,0-0.1-0.1c0,0,0-0.1,0,0c0,0,0,0,0,0
					c0,0-0.1,0-0.1,0.1c0,0,0,0-0.1,0C51.9,64.7,51.9,64.7,51.8,64.6L51.8,64.6z M50.8,64C50.8,64,50.8,64,50.8,64
					c0-0.1,0-0.1,0-0.1c0,0,0-0.1,0-0.1c0,0-0.1,0-0.1,0.1c0,0,0,0.1,0,0.1C50.6,64,50.7,64,50.8,64z M49.8,64.4c0,0,0,0,0-0.2
					l0-0.2l0,0c0,0,0,0-0.3,0c-0.1,0-0.3,0-0.3,0c0,0-0.1,0-0.1,0c0,0-0.1,0-0.1,0c-0.2,0-0.3,0-0.4,0.1c0,0,0,0,0,0.1
					c0,0,0,0,0.1,0c0,0,0.1,0,0.1,0c0,0,0.1,0,0.2,0c0.1,0,0.2,0,0.3,0c0.1,0,0.2,0,0.2,0c0.1,0,0.1,0,0.1,0l0,0l0,0.1
					c0,0.1,0,0.1,0,0.1C49.7,64.4,49.8,64.4,49.8,64.4C49.8,64.4,49.8,64.4,49.8,64.4L49.8,64.4z M49.7,64.7
					C49.7,64.7,49.7,64.7,49.7,64.7c-0.1-0.1-0.2-0.1-0.2-0.2c0,0-0.1-0.1-0.1-0.2c0,0,0,0,0,0c-0.1,0-0.3,0-0.5,0
					c-0.1,0-0.3,0-0.4,0c-0.3,0-0.4,0-0.4,0c0,0,0,0,0,0.1c0,0,0,0.1-0.1,0.1c0,0,0,0.1,0,0.1c0,0,0,0,0,0c0,0,0,0,0,0
					c0,0-0.1,0.1-0.1,0.1c0,0,0,0-0.1,0c0,0-0.4,0-0.4,0c0,0-0.1,0-0.1,0c0,0,0,0-0.1,0c0,0,0,0,0-0.1c0,0,0.1-0.1,0.2-0.1
					c0.1,0,0.1,0,0.2,0c0.1,0,0.2-0.1,0.2-0.1c0,0,0,0,0,0c0,0,0,0,0-0.1c0,0,0-0.1,0-0.1c0-0.1,0-0.1,0-0.2c0-0.1-0.1-0.2-0.1-0.2
					c-0.1-0.1-0.1-0.1,0-0.2c0,0,0.1-0.1,0.1-0.1c0-0.1,0-0.1,0.1-0.1c0,0,0,0,0.1,0.1c0,0.1,0.1,0.2,0.1,0.3c0,0,0,0,0,0.1
					c0,0,0,0.1,0,0.1c0,0.1,0,0.1,0.1,0.1c0.1,0,0.1,0,0.1-0.1c0-0.1,0-0.1,0-0.1c0,0,0,0,0,0c0,0-0.1-0.2-0.1-0.2c0,0,0-0.1,0-0.1
					c0,0,0-0.1,0-0.1c0,0,0,0,0.1,0c0.1,0,0.2-0.1,0.2,0c0,0,0,0,0,0.1c0,0.1,0,0.1,0,0.1c0,0,0,0,0.1,0c0,0,0,0,0.1,0
					c0,0,0.1,0,0.3,0c0.3,0,0.4,0,0.4,0c0,0,0.1,0,0.1,0c0.1,0,0.2,0,0.2,0c0.1,0,0.2,0,0.2,0l0,0l0,0.2c0,0.2,0,0.2,0.1,0.2
					c0.1,0,0.1,0,0.1-0.1c0,0,0-0.1,0-0.1c0,0,0,0,0-0.1c0,0,0.1-0.1,0.1-0.1c0,0,0,0,0.1,0c0,0,0,0,0.1,0c0.1,0,0.2,0,0.2-0.1
					c0,0,0,0,0.1,0c0,0,0.1,0,0.1,0c0,0,0,0.1,0,0.2c0,0.1,0,0.1,0,0.2c0,0,0,0.1,0,0.2l0,0.2l0,0.1l0,0.1l-0.4,0
					c-0.2,0-0.4,0-0.4,0c0,0-0.1,0-0.1,0.1c0,0,0,0.1,0,0.1c0,0,0,0,0,0c0,0-0.1,0.1-0.1,0.1c0,0,0,0,0,0
					C49.8,64.7,49.8,64.7,49.7,64.7C49.7,64.7,49.7,64.7,49.7,64.7L49.7,64.7z"/>
				<g>
					<path id="_x39__1_" class="st2" d="M52,42.3c0.1,0-0.1-0.6-0.1-0.6c0.3,0.3,1.4,0.4,1.4,0.4c-0.7-0.3-1.3-2.5-1.2-4.2
						c0.1-1.8-0.3-2.5-0.5-2.7c-0.3-0.3-1.4-0.6-2.1-0.7c-0.4,0-0.3,0.3-0.3,0.3c-0.7-0.2-1.5-0.3-1.8,0c-0.3,0.2-0.4,1.2-0.1,1.1
						c0.5-0.4,1,0,1.4,0.4c0.3,0.4,0.3,1.6-0.1,3c-0.4,1.5-1.6,2.9-1.6,2.9c0.7,0,1.6-0.6,1.6-0.6l-0.2,0.9c0.7-0.3,1.2-0.8,1.2-0.8
						l0.7,0.7c0.2-0.3,0.7-0.7,0.7-0.7S51.2,42.2,52,42.3L52,42.3z"/>
					<path class="st3" d="M47.9,42.6l0.2-0.9c-0.3,0.2-0.9,0.5-1.4,0.5h-0.2l0.1-0.2c0,0,1.2-1.5,1.6-2.9c0.4-1.4,0.4-2.6,0.2-2.9
						c-0.2-0.3-0.5-0.5-0.7-0.6c-0.2,0-0.3,0-0.5,0.2c-0.1,0.1-0.1,0-0.2,0c-0.1,0-0.1-0.1-0.1-0.3c0-0.3,0.1-0.8,0.3-1
						c0.4-0.3,1.2-0.1,1.7,0c0,0,0-0.1,0.1-0.1c0.1-0.1,0.2-0.1,0.4-0.1c0.7,0,1.8,0.3,2.2,0.7c0.3,0.3,0.6,1,0.5,2.8
						c-0.1,1.8,0.6,3.9,1.2,4.1l0,0.2c-0.1,0-0.7-0.1-1.2-0.2c0.1,0.3,0.1,0.4,0,0.4l0,0l-0.1,0l0,0c-0.7-0.1-1.2-0.5-1.4-0.6
						c-0.1,0.1-0.4,0.4-0.6,0.6L50,42.5l-0.7-0.7c-0.2,0.2-0.6,0.5-1.2,0.8L47.9,42.6z M48.5,41.3l-0.2,0.9c0.6-0.3,1-0.7,1-0.7
						l0.1-0.1l0.6,0.7c0.2-0.3,0.6-0.6,0.6-0.6l0.1-0.1l0.1,0.1c0,0,0.5,0.5,1.2,0.6c0-0.1-0.1-0.3-0.2-0.4l0.2-0.1
						c0.2,0.2,0.6,0.3,1,0.3c-0.6-0.7-1.1-2.6-1-4.1c0.1-1.8-0.3-2.4-0.5-2.6c-0.3-0.3-1.3-0.6-2-0.6c-0.1,0-0.2,0-0.2,0.1
						c0,0,0,0.1,0,0.1l0,0.2l-0.2,0c-0.8-0.2-1.4-0.2-1.7-0.1c-0.1,0.1-0.2,0.2-0.2,0.4c0,0.2,0,0.3,0,0.4c0.2-0.1,0.4-0.2,0.6-0.2
						c0.3,0,0.6,0.3,0.9,0.7c0.3,0.5,0.3,1.7-0.1,3.1c-0.4,1.2-1.2,2.3-1.5,2.8c0.6-0.1,1.3-0.5,1.3-0.5L48.5,41.3z"/>
				</g>
				<path class="st3" d="M48.4,41.6l-0.2-0.1c0.7-0.7,1-3.4,1-3.4l0.2,0C49.4,38.2,49.1,40.8,48.4,41.6z"/>
				<path class="st3" d="M49.4,41.7l-0.2-0.1c0.5-0.8,0.6-3.6,0.6-3.6l0.2,0C50,38.1,49.9,40.8,49.4,41.7z"/>
				<path class="st3" d="M50.5,41.6c-0.2-0.5-0.2-3.4-0.2-3.5h0.2c0,0.8,0,3.1,0.2,3.5L50.5,41.6z"/>
				<path class="st3" d="M51.8,41.7c-0.6-0.9-0.8-3.4-0.8-3.5l0.2,0c0,0,0.2,2.5,0.8,3.4L51.8,41.7z"/>
				<g>
					<path id="_x34__1_" class="st3" d="M48.7,36.7c0-0.2-0.1-0.4-0.2-0.5c-0.3-0.5-0.8-0.9-1.4-0.4c0,0,0.2-0.6,0.6-0.6
						c0.3,0,1,0.2,1.6,1.3c0,0-0.5-0.1-0.6,0C48.6,36.6,48.7,36.7,48.7,36.7L48.7,36.7z"/>
					<path class="st3" d="M48.6,36.8c0,0,0-0.1,0-0.1c0-0.2-0.1-0.3-0.1-0.4c-0.2-0.3-0.5-0.5-0.7-0.6c-0.2,0-0.3,0-0.5,0.2L47,36
						l0.1-0.3c0,0,0.2-0.7,0.7-0.7c0.3,0,1.1,0.2,1.7,1.3l0.1,0.2l-0.2-0.1c-0.2,0-0.4-0.1-0.5,0c-0.1,0.1-0.1,0.1-0.1,0.1
						c0,0,0,0.1,0,0.1L48.6,36.8z M47.6,35.5c0,0,0.1,0,0.1,0c0.3,0,0.6,0.3,0.9,0.7c0,0.1,0.1,0.2,0.1,0.2c0,0,0,0,0,0
						c0.1-0.1,0.3-0.1,0.4-0.1c-0.6-0.9-1.2-1.1-1.4-1c-0.2,0-0.3,0.1-0.4,0.2C47.5,35.5,47.6,35.5,47.6,35.5z"/>
				</g>
				<g>
					<path id="_x33__1_" class="st3" d="M47.1,35c0-0.1,0.1-0.3,0.2-0.3c0.3-0.2,1.1-0.1,1.8,0c0,0-0.1-0.3,0.3-0.3
						c0.7,0,1.8,0.3,2.1,0.7c0.1,0.1,0.2,0.2,0.2,0.4h0c-0.2-0.2-0.6-0.2-0.7-0.2c-0.2,0-0.3,0-0.5,0.1c-0.1,0-0.3,0.1-0.4,0.1
						c-0.1,0.1-0.1,0.3-0.2,0.3c-0.2,0-0.2,0-0.2-0.1c-0.1-0.1-0.1-0.2-0.1-0.2c-0.2,0-0.5-0.1-0.8-0.4c-0.4-0.3-0.5-0.4-1-0.3
						C47.2,34.8,47.1,35.1,47.1,35L47.1,35L47.1,35z"/>
					<path class="st3" d="M49.9,35.9c-0.2,0-0.2,0-0.3-0.1l0,0c0,0,0-0.1-0.1-0.1c0,0,0,0,0,0c-0.2,0-0.5-0.1-0.9-0.4
						c-0.4-0.3-0.5-0.3-0.9-0.3c-0.4,0-0.5,0.2-0.5,0.3L47,35l0,0c0-0.1,0.1-0.3,0.2-0.4c0.4-0.3,1.2-0.1,1.7,0c0,0,0-0.1,0.1-0.1
						c0.1-0.1,0.2-0.1,0.4-0.1c0.7,0,1.8,0.3,2.2,0.7c0.1,0.1,0.2,0.3,0.3,0.4l0.1,0.1h-0.2l0,0c-0.1-0.2-0.5-0.2-0.6-0.2
						c0,0-0.1,0-0.1,0c-0.1,0-0.2,0-0.4,0.1l0,0c-0.1,0-0.2,0.1-0.3,0.1c0,0,0,0.1-0.1,0.1C50.1,35.7,50,35.9,49.9,35.9z M49.5,35.4
						c0.1,0,0.1,0.1,0.2,0.1c0,0,0,0,0,0.1c0,0,0,0,0,0c0,0,0,0,0.1,0c0,0,0.1-0.1,0.1-0.1c0-0.1,0.1-0.1,0.1-0.1
						c0.1-0.1,0.3-0.1,0.4-0.1l0,0c0.2,0,0.3-0.1,0.4-0.1c0,0,0.1,0,0.1,0c0,0,0.2,0,0.5,0c0,0,0,0,0-0.1c-0.3-0.3-1.3-0.6-2-0.6
						c-0.1,0-0.2,0-0.2,0.1c0,0,0,0.1,0,0.1l0,0.2l-0.2,0c-0.4-0.1-0.7-0.1-0.9-0.2c0.2,0,0.4,0.1,0.6,0.3
						C49.2,35.4,49.5,35.4,49.5,35.4C49.5,35.4,49.5,35.4,49.5,35.4z"/>
				</g>
				<path id="_x32_" class="st2" d="M49.8,35.5c0.1,0,0.2-0.1,0.2-0.2c0-0.1-0.1-0.2-0.2-0.2c-0.1,0-0.2,0.1-0.2,0.2
					C49.6,35.4,49.7,35.5,49.8,35.5z"/>
				<path class="st3" d="M50,54L50,54c-2-1.6-3.5-3.8-4.1-6.2c-0.2-0.8-0.4-1.6-0.4-2.4c0-0.2,0-0.4,0-0.7l0-0.1l0.1,0
					c0,0,0.1,0,0.1,0c1,0,3.4-0.6,4.3-1.3l0,0l0,0c0.9,0.8,3.3,1.3,4.3,1.3c0,0,0.1,0,0.1,0l0.1,0l0,0.1c0,0.3,0,0.5,0,0.7
					c-0.1,0.8-0.2,1.6-0.4,2.4C53.5,50.3,52,52.4,50,54L50,54z M45.6,44.8c0,0.2,0,0.4,0,0.6c0.1,0.8,0.2,1.6,0.4,2.4
					c0.7,2.4,2,4.5,4,6.1c2-1.6,3.3-3.6,4-6.1c0.2-0.8,0.4-1.6,0.4-2.4c0-0.1,0-0.4,0-0.6c0,0,0,0-0.1,0c-1,0-3.3-0.5-4.3-1.3
					C49,44.2,46.7,44.8,45.6,44.8C45.6,44.8,45.6,44.8,45.6,44.8z"/>
			</g>
		</g>
	</g>
</g>
</svg>
