<?xml version="1.0" encoding="utf-8"?>
<!-- Generator: Adobe Illustrator 27.3.1, SVG Export Plug-In . SVG Version: 6.00 Build 0)  -->
<svg version="1.1" id="Layer_1" xmlns="http://www.w3.org/2000/svg" xmlns:xlink="http://www.w3.org/1999/xlink" x="0px" y="0px"
	 viewBox="0 0 100 100" style="enable-background:new 0 0 100 100;" xml:space="preserve">
<style type="text/css">
	.st0{fill:#007A3D;}
	.st1{fill:#FFFFFF;}
	.st2{fill:#CE1126;}
</style>
<g>
	<path class="st0" d="M50,0.5c27.3,0,49.5,22.2,49.5,49.5c0,27.3-22.2,49.5-49.5,49.5C22.7,99.5,0.5,77.3,0.5,50
		C0.5,22.7,22.7,0.5,50,0.5L50,0.5z"/>
	<path class="st1" d="M96.6,66.6H3.4C1.5,61.4,0.5,55.8,0.5,50C0.5,22.7,22.7,0.5,50,0.5c27.3,0,49.5,22.2,49.5,49.5
		C99.5,55.8,98.5,61.4,96.6,66.6z"/>
	<path d="M96.7,33.5H3.3c6.8-19.2,25.1-33,46.7-33C71.5,0.5,89.9,14.3,96.7,33.5z"/>
	<path class="st2" d="M11.3,80.9L61.7,50L11.3,19.2C4.5,27.6,0.5,38.3,0.5,50C0.5,61.7,4.6,72.4,11.3,80.9z"/>
	<path class="st1" d="M18.4,41.1l1.6,4.1l4.2-1.3l-2.2,3.8l3.6,2.5l-4.3,0.7l0.3,4.4l-3.2-3l-3.2,3l0.3-4.4l-4.3-0.7l3.6-2.5
		l-2.2-3.8l4.2,1.3L18.4,41.1z"/>
</g>
</svg>
