<?xml version="1.0" encoding="utf-8"?>
<!-- Generator: Adobe Illustrator 27.3.1, SVG Export Plug-In . SVG Version: 6.00 Build 0)  -->
<svg version="1.1" id="Layer_1" xmlns="http://www.w3.org/2000/svg" xmlns:xlink="http://www.w3.org/1999/xlink" x="0px" y="0px"
	 viewBox="0 0 100 100" style="enable-background:new 0 0 100 100;" xml:space="preserve">
<style type="text/css">
	.st0{clip-path:url(#SVGID_00000178163117297472935740000010384290039093101238_);}
	.st1{fill:#006C35;}
	.st2{fill:#FFFFFF;}
</style>
<g>
	<g>
		<defs>
			<circle id="SVGID_1_" cx="50" cy="50" r="49.5"/>
		</defs>
		<clipPath id="SVGID_00000137847969252623550140000002404452298333746591_">
			<use xlink:href="#SVGID_1_"  style="overflow:visible;"/>
		</clipPath>
		<g style="clip-path:url(#SVGID_00000137847969252623550140000002404452298333746591_);">
			<rect id="_x32_" x="-24.2" y="0.5" class="st1" width="148.5" height="99"/>
			<path id="_x31_" class="st2" d="M39.8,23.9c-0.1,0-0.2,0-0.4,0.1c-0.4,0.2-1.1,1-1.1,1.9c0,0.5-0.1,0.5,0.2,0.8
				c0.2,0.3,0.5,0.3,0.9,0.1c0.3-0.2,0.4-0.3,0.4-0.6c0.1-0.6-0.6,0.3-0.7-0.4c-0.2-0.6,0.3-0.8,0.7-1.4
				C39.9,24.1,39.9,23.9,39.8,23.9L39.8,23.9z M46.5,23.9c-0.1,0-0.3,0.2-0.5,0.6c-0.2,0.4-0.8,1-0.3,2.4c0.4,0.8,0.6,2.2,0.4,3.7
				c-0.3,0.4-0.3,0.6-0.7,1c-0.5,0.6-1.1,0.4-1.5,0.2c-0.4-0.3-0.7-0.4-0.9-1.3c0-1.4,0.1-3.6-0.1-4c-0.4-0.7-1-0.5-1.2-0.2
				c-1.2,1.1-1.8,3-2.2,4.6c-0.3,1.1-0.7,0.8-1,0.3c-0.6-0.6-0.7-5.2-1.4-4.4c-1.2,3.5,0.7,7.2,2,6.9c1,0.4,1.6-1.4,1.9-3.4
				c0.3-0.6,0.5-0.6,0.6-0.3c0,2.6,0.2,3.2,0.9,4c1.5,1.2,2.8,0.1,2.9,0c0.1-0.1,1.2-1.2,1.2-1.2c0.3-0.3,0.6-0.3,1,0
				c0.4,0.3,0.3,0.9,1.1,1.3c0.6,0.3,2,0.1,2.4-0.5c0.4-0.7,0.5-1,0.7-1.3c0.3-0.4,0.8-0.2,0.8-0.1c0,0.2-0.4,0.5-0.1,0.9
				c0.4,0.3,0.5,0.1,0.7,0c0.8-0.4,1.3-2,1.3-2c0-0.6-0.3-0.6-0.5-0.4c-0.3,0.2-0.3,0.2-0.6,0.4c-0.4,0.1-1.1,0.3-1.5-0.3
				C51.3,30,51.3,29,51,28.4c0,0-0.5-1.1,0-1.1c0.2,0,0.7,0.2,0.8-0.2c0.2-0.4-0.5-1.5-1-2.1c-0.4-0.5-1.1-0.6-1.7,0
				c-0.4,0.4-0.4,0.8-0.4,1.2c-0.1,0.5-0.1,1.1,0.4,1.7c0.4,0.8,1.2,1.9,0.9,3.4c0,0-0.4,0.7-1.2,0.6c-0.3-0.1-0.9-0.2-1.1-2.3
				c-0.2-1.6,0.1-3.8-0.6-4.8C46.8,24.3,46.7,23.9,46.5,23.9L46.5,23.9z M44.4,24.1c-0.2,0-0.4,0.3-0.6,0.7
				c-0.2,0.3-0.3,2.1-0.3,2.1c-0.1,0.5,0.6,0.8,0.9,0.1c0.5-1.3,0.5-1.8,0.5-2.3C44.7,24.3,44.6,24.1,44.4,24.1L44.4,24.1z
				 M52.3,24.2c-0.2,0-0.4,0.1-0.4,0.4c-0.1,0.7,0,1.1,0.1,1.7c0.1,0.4,0.7,1.1,1,1.5c1.4,1.8,2.7,3.7,3.9,5.6
				c0.2,1.4,0.3,2.8,0.4,4.2c0.2,3,0.3,6.8,0.1,10c0.6,0,1.5-0.9,1.8-2.3c0.2-1.9-0.1-5.8-0.1-6.9c0-0.5,0-1-0.1-1.6
				c1.5,2.4,2.9,5,4.3,7.8c0.5-0.2,0.4-3.1,0.1-3.5c-1.1-2.4-2.7-4.8-3.2-5.7C60,35,59.4,34,58.7,33c-0.1-1.5-0.3-2.8-0.4-3.2
				C58.1,28.2,59,30,58.8,29c-0.3-1.6-1.2-2.7-2.2-4.2c-0.3-0.5-0.3-0.6-0.9,0.1c-0.3,0.7-0.3,1.3-0.2,1.9c-0.1-0.2-0.3-0.4-0.6-0.7
				c-0.9-0.8-1-0.8-1.7-1.5C53,24.5,52.6,24.2,52.3,24.2L52.3,24.2z M75.6,24.5c-0.1,0-0.2,0-0.3,0.2c-0.2,0.2-0.5,0.6-0.5,1.1
				c0.1,0.8,0.2,1.7,0.3,2.6c0,0.1,0,0.2,0.1,0.3c-0.1-0.1-0.2-0.2-0.2-0.3c-1.7-1.7,0.8-0.3-0.3-1.6c-0.9-1-1.2-1.3-2-1.9
				c-0.4-0.3-0.6-0.7-0.8,0.1c-0.1,0.7-0.1,1.6-0.1,2.2c0,0.3,0.3,1,0.6,1.3c1.1,1.4,2.2,2.8,3.4,4.3c0.2,3.1,0.3,5.9,0.5,9
				c0,1.3-0.4,3.1-0.8,3.2c0,0-0.6,0.3-1,0c-0.3-0.1-1.4-1.9-1.4-1.9c-0.6-0.5-1-0.4-1.4,0c-1.1,1.1-1.7,3.2-2.4,4.6
				c-0.2,0.3-0.8,0.6-1.4,0c-1.6-2.2-0.7-5.3-0.9-4.5c-1.4,1.6-0.8,4.3-0.5,4.8c0.5,0.9,0.8,1.5,1.8,2c0.8,0.6,1.5,0.2,1.8-0.2
				c0.8-0.9,0.8-3.1,1.2-3.5c0.3-0.8,1-0.7,1.3-0.3c0.3,0.5,0.7,0.8,1.2,1c0.8,0.7,1.7,0.8,2.6,0.2c0.6-0.4,1-0.8,1.4-1.7
				c0.4-1.1,0.2-6.6,0.1-9.6c0.6,0.8,1.2,1.7,1.7,2.5c0.3,2.7,0.4,5.3,0.3,7.9c-0.1,0.5,1.8-1.5,1.8-2.5c0-0.8,0-1.6,0-2.3
				c0.9,1.4,1.7,2.8,2.5,4.3c0.5-0.3,0.3-3.1,0-3.5c-0.8-1.4-1.9-3-2.8-4.1c-0.2-1.5-0.4-3.3-0.5-3.8c-0.2-0.8-0.3-2.1-0.6-3.1
				c-0.1-0.4-0.3-1.6-0.2-1.8c0.1-0.3,0.5,0,0.7-0.3c0.3-0.3-1-3.5-1.6-4.4c-0.2-0.4-0.6-0.3-1.1,0.4c-0.5,0.4-0.3,1.4-0.1,2.4
				c0.5,2.4,0.9,4.9,1.2,7.3c-0.6-0.9-1.3-2-2.1-3c0-0.1-0.1-0.5-0.1-0.5c0,0-0.1-2-0.2-2.4c0-0.2-0.1-0.2,0.1-0.2
				c0.2,0.2,0.2,0.2,0.4,0.2c0.2,0,0.4-0.3,0.3-0.6c-0.6-1.2-1.3-2.4-1.9-3.6C75.8,24.6,75.7,24.5,75.6,24.5L75.6,24.5z M15.3,24.5
				c-0.4,0-0.8,0.2-0.6,0.6c-0.1,0.2,0.7,1,0.8,1.5c0.1,0.3-0.1,1.3,0.1,1.4c0.2,0.1,0.6-0.7,0.7-1.4c0.1-0.4,0-1.8-0.9-2.1
				C15.4,24.5,15.4,24.5,15.3,24.5L15.3,24.5z M84,24.5c-0.1,0-0.2,0.1-0.3,0.5c-0.4,0.6-0.5,1.7-0.3,2.6c0.9,6,1.5,11.8,1.7,17.1
				c-0.1,0.5-0.1,0.8-0.3,1.4c-0.5,0.7-1.1,1.5-1.6,1.9c-0.5,0.4-1.7,0.8-2.1,1.1c-1.2,0.7-1.2,1.5-0.2,1.5c1.7-0.2,3.6-0.3,5-2.4
				c0.4-0.6,0.8-2.1,0.8-3.1c0.1-5.6-0.1-11.1-0.9-15.1c-0.1-0.4-0.2-1.3-0.2-1.4c0.1-0.3,0.7,0,0.8-0.3c0.3-0.3-1.4-2.5-2-3.4
				C84.2,24.7,84.1,24.5,84,24.5L84,24.5z M66.5,24.6c-0.1,0-0.2,0.1-0.4,0.4c-0.5,1.5-0.6,2.8-0.5,3.7c1.2,6.2,2.4,11.9,2.2,17.9
				c0.6,0,1.2-1.3,1.5-2.6c0.2-1.8-0.1-2.9-0.1-3.9c0-1-1.2-9.5-1.4-10.3c-0.3-1.5,1.1-0.2,1-1.1c-0.5-1.1-1.7-2.7-2-3.6
				C66.7,24.8,66.6,24.6,66.5,24.6L66.5,24.6z M23.9,24.7c-0.1,0-0.3,0.1-0.3,0.3c0,0.1,0.1,0.3-0.1,0.4c-0.1,0.1-0.3,0-0.3-0.3
				c0-0.1-0.1-0.2-0.1-0.3c-0.1,0-0.1,0-0.2,0c-0.1,0-0.1,0-0.2,0.1c0,0.1-0.1,0.2-0.1,0.3c0,0.1-0.1,0.2-0.2,0.2
				c-0.1,0-0.1,0-0.2,0c-0.1-0.1-0.1-0.1-0.1-0.2c0-0.1,0-0.3-0.1-0.3c0-0.1-0.1-0.1-0.2-0.1c-0.4,0-0.5,0.5-0.5,0.7
				c0,0,0,0.9,0.6,1.2c0.8,0.4,2.3,0.2,2.3-1.1c0-0.1,0-0.5,0-0.6C24.2,24.8,24.1,24.7,23.9,24.7L23.9,24.7z M34.9,24.8
				c-0.3,0-0.5,0.1-0.7,0.2c-0.5,0.5-0.7,1.3-0.2,1.9c0.4,0.2,0.8,0.6,0.6,0.8c-1.2,1.2-4.2,3.3-4.4,3.7c0,0,0,0,0,0c0,0,0,0,0,0
				c0,0,0,0,0,0c0,0,0,0,0,0c0,0,0,0,0,0c0,0,0,0,0,0c0,0,0,0,0,0c0,0,0,0,0,0c0,0,0,0,0,0c0.2,0.1,2.1,0.1,2.3,0c0,0,0,0,0,0
				c0,0,0,0,0,0c0,0,0,0,0,0c0.7-0.2,3.8-3.8,3.8-3.8c-0.2-0.1-0.3-0.2-0.5-0.4c-0.2-0.1-0.2-0.3,0-0.4c0.8-0.4,0.5-1.4,0.1-1.9
				C35.5,24.8,35.2,24.7,34.9,24.8L34.9,24.8z M63.4,24.8c-0.1,0-0.2,0.1-0.3,0.5c-0.4,0.6-0.6,1.6-0.6,2.6c0.8,5.5,1,10.3,1.6,15.8
				c0,0.5,0,1.3-0.4,1.6c-1.3,1.4-3.2,3.1-5.3,3.8c-0.2,0.2,0.5,1.3,1.5,1.3c1.7-0.2,3.1-1.1,4.5-3.6c0.4-0.6,1-1.8,1-2.8
				c0.1-5.6-0.3-9.9-1.1-14c-0.1-0.4,0-0.9,0-1c0.1-0.1,0.5,0,0.7-0.3c0.3-0.3-0.8-2.7-1.4-3.6C63.6,24.9,63.5,24.8,63.4,24.8
				L63.4,24.8z M19.2,24.9c-0.2,0-0.4,0.2-0.6,0.5c0,0.9,0,1.8,0.1,2.6c0.4,1.4,0.5,2.7,0.7,4.1c0.1,2-1.1,0.8-1.1-0.1
				c0.3-1.3,0.2-3.2,0-3.7c-0.2-0.5-0.4-0.6-0.9-0.5c-0.4,0-1.3,1-1.6,2.8c0,0-0.2,0.9-0.3,1.7c-0.1,0.9-0.7,1.5-1.1-0.1
				c-0.4-1.2-0.6-4.2-1.2-3.5c-0.2,2.3-0.4,6.4,1.6,6.8c2.4,0.2,1.1-4,1.9-4.8c0.2-0.4,0.5-0.4,0.5,0.1v3.6c0,1.2,0.7,1.5,1.3,1.8
				c0.6,0,1,0,1.3,0.6c0.1,2.1,0.2,4.2,0.3,6.2c0,0,1.4,0.4,1.5-3.5c0.1-2.3-0.5-4.2-0.1-4.7c0-0.4,0.6-0.5,1-0.2
				c0.6,0.4,0.9,1,1.9,0.8c1.5-0.4,2.4-1.1,2.4-2.2c-0.1-1.1-0.2-2.1-0.7-3.2c0.1-0.2-0.3-0.7-0.2-0.9c0.3,0.4,0.7,0.4,0.8,0
				c-0.3-0.8-0.6-1.6-1.3-2c-0.5-0.5-1.3-0.4-1.6,0.6c-0.1,1.1,0.4,2.4,1.2,3.5c0.2,0.4,0.4,1.1,0.3,1.7c-0.4,0.2-0.8,0.1-1.2-0.2
				c0,0-1.2-0.9-1.2-1.1c0.3-2,0.1-2.2-0.1-2.8c-0.1-0.8-0.5-1-0.8-1.5c-0.3-0.3-0.7-0.3-0.9,0c-0.5,0.9-0.3,2.8,0.1,3.7
				c0.3,0.8,0.7,1.3,0.5,1.3c-0.2,0.4-0.5,0.3-0.7-0.2c-0.3-1.1-0.4-2.7-0.4-3.4c-0.1-0.9-0.2-2.8-0.8-3.3
				C19.6,25,19.4,24.9,19.2,24.9L19.2,24.9z M27.5,25c-0.1,0-0.2,0.1-0.4,0.1c-0.5,0.2-1,0.6-0.8,1.4c0.6,3.6,1,6.4,1.6,10
				c0.1,0.4-0.3,1-0.7,0.9c-0.8-0.5-1-1.6-2.3-1.6c-1,0-2.1,1.1-2.2,2.1c-0.2,0.8-0.2,1.7,0,2.4c0.7,0.8,1.5,0.7,2.2,0.5
				c0.6-0.2,1.1-0.8,1.3-0.7c0,0,0,0,0,0c0,0,0,0,0,0c0.1,0.2,0,2.1-2.8,3.6c-1.7,0.8-3,0.9-3.8-0.4c-0.4-0.9,0-4.1-1.1-3.4
				c-3.3,8.4,7.6,9.6,8.9,0.3c0.1-0.3,0.3-0.5,0.5-0.5c0.1,0,0.1,0.1,0.2,0.3c-0.3,8.4-8.4,8.9-9.8,6.3c-0.3-0.6-0.4-2-0.5-2.8
				c-0.1-0.5-0.2-0.8-0.3-0.9c-0.3-0.2-0.8,0.4-0.9,1.5c-0.1,0.9-0.1,1.2-0.1,2c0.4,6.6,11,3.8,12.7-1.7c0.8-2.8,0-4.9,0.3-5.2
				c0,0,0,0,0,0c0,0,0,0,0,0c0,0,0,0,0,0c0,0,0,0,0,0c1,1.1,2.5,0.1,2.8-0.2c0.1-0.2,0.5-0.3,0.7-0.1c0.8,0.6,2.2,0.3,2.5-0.7
				c0.2-1,0.3-2.1,0.4-3.1c-0.5,0.2-1,0.3-1.1,0.5c0,0-0.1,0.1-0.1,0.1c0,0.3-0.1,0.6-0.1,0.9c0,0,0,0,0,0.1c0,0-0.1,0.1-0.1,0.1
				c-0.2,0.1-0.5,0-0.5-0.2c-0.3-1.1-1.3-1.3-1.9,0.5c-0.4,0.3-1.2,0.4-1.3-0.1c0.1-1.2-0.4-1.4-1.3-0.8c-0.3-2.4-0.6-4.6-0.9-7
				c0.4,0,0.8,0.3,1.1-0.2c-0.4-1.2-1.2-3.8-1.7-4c0,0,0,0,0,0c0,0,0,0-0.1-0.1c0,0,0,0,0,0c0,0,0,0,0,0c0,0,0,0-0.1,0
				C27.6,25,27.6,24.9,27.5,25L27.5,25z M60.1,25c-0.4,0-0.9,0.3-0.7,0.8c-0.1,0.3,0.9,1.3,1.1,1.8c0.3,0.8-0.2,1.6,0.1,1.7
				c0.3,0.1,0.7-0.8,0.8-1.7c0.2-0.7-0.3-2.2-1.1-2.5C60.2,25,60.1,25,60.1,25L60.1,25z M34.7,25.9c0.2,0,0.4,0.2,0.5,0.4
				c0.1,0.3,0.1,0.5-0.1,0.6c-0.2,0-0.4-0.1-0.6-0.4C34.4,26.2,34.5,25.9,34.7,25.9C34.7,25.9,34.7,25.9,34.7,25.9z M81.7,27.1
				c-0.4,0-0.8,0.3-0.6,0.8c-0.1,0.3,0.8,1.4,1,1.9c0.1,0.4-0.2,1.7,0.1,1.8c0.3,0.1,0.6-0.9,0.7-1.9c0.1-0.5-0.3-2.4-1-2.7
				C81.9,27.1,81.8,27.1,81.7,27.1L81.7,27.1z M55.7,27.7c0,0.2,0.1,0.3,0.1,0.5c0.1,0.3,0.1,0.7,0.2,1c-0.3-0.4-0.5-0.7-0.7-0.9
				C54.7,27.5,55.4,27.8,55.7,27.7L55.7,27.7z M61.7,30.7c-0.1,0-0.3,0.2-0.3,0.4c0,0.1,0.1,0.3-0.1,0.4c-0.1,0.1-0.3,0-0.3-0.3
				c0-0.1-0.1-0.2-0.1-0.3c-0.1,0-0.1,0-0.2,0c-0.1,0-0.1,0-0.2,0.1c0,0.1-0.1,0.2-0.1,0.3c0,0.1-0.1,0.2-0.2,0.2
				c-0.1,0-0.1,0-0.2,0c-0.1-0.1-0.1-0.1-0.1-0.2c0-0.1,0-0.3-0.1-0.3c0-0.1-0.1-0.1-0.2-0.1c-0.4,0-0.5,0.5-0.4,0.7
				c0,0-0.1,0.9,0.6,1.2c0.8,0.4,2.3,0.2,2.3-1.1c0-0.1,0-0.5,0-0.6C62,30.7,61.9,30.6,61.7,30.7L61.7,30.7z M34.4,30.9
				c-0.1,0-0.2,0-0.4,0.1c-0.7,0.4-1,1.5-0.6,2.2c0.4,0.6,1.1,0.4,1.2,0.4c0.7,0.1,1.1-1.3,1.1-1.3s0-0.4-0.8,0.4
				c-0.4,0.1-0.4-0.1-0.5-0.3c-0.1-0.4-0.1-0.7,0.1-1.1C34.6,31.1,34.6,31,34.4,30.9L34.4,30.9z M73.1,31.1c-0.4,0-0.8,0.2-0.9,0.8
				c0,0.3,0.1,0.5,0.1,0.8c0,0.2-0.2,0.3-0.6,0.1c0.1-0.1-0.3-0.5-0.3-0.5c-0.3-0.2-0.7,0-1,0.2c-0.2,0.3-0.3,0.8-0.1,1.2
				c0.5,0.9,2,2.3,2.8,2.3c0-0.8,0.1-1.8,0.1-2.4c0-0.2,0.1-0.5,0.3-0.6c0.2-0.1,0.6,0.2,0.6,0c0-0.5-0.1-1.2-0.4-1.5
				C73.5,31.2,73.3,31.1,73.1,31.1L73.1,31.1z M41,33.8C41,33.8,41,33.8,41,33.8C41,33.8,41,33.8,41,33.8c-0.1,0.1-0.2,0.2-0.4,0.4
				c-0.4,0.4-0.4,0.7-0.4,1.5c0,0.1,0.7,1.9,1.2,3.2c0.4,1.3,0.7,2.8,0.5,4.3c-0.9,1.9-2.6,3.6-4.3,4.5c-0.9,0.3-1.6,0.2-1.8,0
				c0,0,0,0,0,0c-0.5-0.3-0.5-0.9-0.5-1c0,0,0,0,0,0c0,0,0,0,0,0c1.4-1,3.1-1.8,4.3-4.5c0.4-1,0.5-1.6,0.1-3.2
				c-0.1-0.6-0.3-1.1-0.7-1.5c0,0,0,0,0,0c0.2-0.1,0.9,0.3,1,0.1c-0.1-0.8-0.7-1.8-1.2-2.3c-0.5-0.5-1.1-0.5-1.5-0.1
				c-0.5,0.3-0.6,1.3-0.4,2.3c0.3,0.7,1,0.8,1.6,2.2c0,0,0,0,0,0c0,0.1,0.2,1-0.1,1.4c-0.2,0.7-3.1,2.9-3.3,3.1c0,0,0,0,0,0
				c0,0,0,0,0,0c0,0,0,0,0,0c0,0,0,0,0,0c0,0,0,0,0,0c0,0,0,0,0,0c0,0,0,0,0,0c0,0,0,0,0,0c0,0,0,0,0,0c0-0.1,0-0.2,0-0.4
				c0-0.4,0.2-1.4,0.1-1.5c0,0,0,0,0,0c0,0,0,0,0,0c0,0,0,0,0,0c0,0,0,0,0,0c-0.9,0.6-1.2,2.5-1.4,3c-2.4,1.6-5.1,2.9-6.6,4.5
				c-0.8,1.3,5.6-1.4,6.3-1.8c0,0,0,0,0,0c0.1,0.2,0.2,0.7,0.6,1.2c0.7,0.9,2.1,1.4,3.4,1.1c2.3-0.8,3.6-2.4,5-4.1
				c0.2-0.3,0.5-0.5,0.8-0.3c0.9,2.1,3.6,3.5,7,3.7c0.8-1,0.4-1.4,0.1-1.7c-0.1-0.1-1.7-0.7-2-1.3c-0.2-0.6,0.2-1.1,1-1.5
				c2.2-0.3,4.4-0.6,6.5-1.2c0-0.7,0.4-1.8,0.7-2.2c0.2-0.3,0.3-0.4,0.4-0.4c0,0,0,0,0,0c0,0,0,0,0,0c0,0,0,0,0,0c0,0,0,0,0,0
				c0,0,0,0,0-0.1l-0.4-0.2l-7.1,0c-0.1,0-0.2-0.1-0.2-0.1c0,0,0,0,0,0c0,0,0,0,0,0c0,0,0,0,0,0c0,0,0,0,0,0c0,0,0,0,0,0
				c0,0,0,0,0,0c0,0,0,0,0,0c0,0,0,0,0,0c0,0,0,0,0,0c0,0,0,0,0,0c0,0,0,0,0,0c0,0,0,0,0,0c0,0,0,0,0,0c0,0,0,0,0,0c0,0,0,0,0,0
				c0,0,0,0,0,0c0,0,0,0,0,0c0,0,0.1-0.1,0.2-0.1c1.7-0.2,4.7-0.7,4.9-3.6c0-1.5-0.6-2.5-2.5-2.8c-1.4,0.1-2.3,1.4-2.2,2.9
				c-0.1,0.4,0.1,1.2-0.3,1.2c-2.6,0.2-5.4,1.9-5.5,3c0,0,0,0,0,0c0,0,0,0,0,0c0,0,0,0,0,0c0,0,0,0,0,0c0,0,0,0,0,0c0,0,0,0,0,0
				c0,0,0,0,0,0c0,0,0,0,0,0c0,0,0,0,0,0c0,0,0,0,0,0c-0.2,0-0.4-0.3-0.4-0.7c-0.1-2-0.8-4.3-1.8-6.1C41.4,34,41.2,33.8,41,33.8
				C41.1,33.8,41.1,33.8,41,33.8C41.1,33.8,41.1,33.8,41,33.8C41.1,33.8,41.1,33.8,41,33.8C41.1,33.8,41.1,33.8,41,33.8
				C41.1,33.8,41.1,33.8,41,33.8L41,33.8z M47.8,34.9c-0.1,0-0.3,0.1-0.3,0.3c0,0.1,0.1,0.3-0.1,0.4c-0.1,0.1-0.3,0-0.3-0.3
				c0-0.1-0.1-0.2-0.1-0.3c-0.1,0-0.1,0-0.2,0c-0.1,0-0.1,0-0.2,0.1c0,0.1-0.1,0.2-0.1,0.3c0,0.1-0.1,0.2-0.2,0.2
				c-0.1,0-0.1,0-0.2,0c-0.1-0.1-0.1-0.1-0.1-0.2c0-0.1,0-0.3,0-0.3c0-0.1-0.1-0.1-0.2-0.1c-0.4,0-0.5,0.5-0.4,0.7
				c0,0-0.1,0.9,0.6,1.2c0.8,0.4,2.8,0.2,2.3-1.1c0-0.1,0-0.5,0-0.6C48.1,34.9,48,34.8,47.8,34.9L47.8,34.9z M75.1,36
				C75.1,36,75.1,36,75.1,36c-0.1,0-3.8,2.7-3.9,2.8c-0.4,0.3-0.2,1.5,0,1.4c0.3,0.1,4.1-2.5,4-2.8C75.4,37.4,75.4,36,75.1,36
				L75.1,36z M51.4,36.4c0.2,0,0.4,0,0.6,0.1c0.3,0.2,0.5,0.4,0.4,0.6c0,0,0,0,0,0c0,0,0,0,0,0c0,0,0,0,0,0c0,0,0,0,0,0c0,0,0,0,0,0
				c0,0,0,0,0,0c-0.1,0.1-0.4,0.1-0.7-0.1c-0.3-0.2-0.5-0.4-0.4-0.6c0,0,0,0,0,0c0,0,0,0,0-0.1c0,0,0,0,0,0c0,0,0,0,0,0c0,0,0,0,0,0
				C51.3,36.4,51.3,36.4,51.4,36.4L51.4,36.4z M18.3,37.1c-2,0-4.8,2.6-4.9,4c2.1-1,4.1-1.9,6.2-3C19.3,37.5,19.6,37.1,18.3,37.1
				L18.3,37.1z M24.7,37.9c0.2,0,0.4,0.1,0.5,0.4c0.1,0.2,0,0.5-0.1,0.6c0,0,0,0,0,0c0,0,0,0,0,0C25,39.1,24.7,39,24.5,39
				c-0.2,0-0.4-0.1-0.5-0.3c-0.1-0.2,0.1-0.4,0.2-0.6c0,0,0,0,0,0c0,0,0,0,0,0C24.3,38,24.5,38,24.7,37.9
				C24.6,37.9,24.6,37.9,24.7,37.9L24.7,37.9z M74.4,38.7c-0.3,0-0.7,0.4-0.5,0.9c-0.1,0.3,0.5,1.4,0.6,2c0.1,0.4-0.2,1.6,0.1,1.7
				c0.3,0.1,0.9-0.7,0.9-1.7c0.1-0.5-0.2-2.5-0.9-2.8C74.6,38.7,74.5,38.7,74.4,38.7L74.4,38.7z M32.2,40.6c-0.3,0-0.6,0.2-0.5,0.6
				c0,0.3,0.9,0.7,0.9,1.4c0.1,0.3-0.2,1.3,0.1,1.3c0.2,0.1,0.6-0.7,0.7-1.4c0.1-0.4-0.3-1.7-0.9-2C32.4,40.6,32.3,40.6,32.2,40.6
				L32.2,40.6z M44.8,42.3C44.8,42.3,44.9,42.3,44.8,42.3C44.9,42.3,44.9,42.3,44.8,42.3c0.9,0.2,2,0.2,3,0.3c0.8,0.1,1.2,0.7,0.5,1
				c-0.8,0.3-1.5,0.5-1.5,1.6c0.1,0.5,0.1,0.8,0,1c0,0,0,0,0,0c0,0,0,0,0,0c0,0,0,0,0,0c0,0,0,0,0,0l0,0c0,0,0,0,0,0c0,0,0,0,0,0
				c0,0,0,0,0,0c-0.2,0-0.4-0.1-0.6-0.2c-0.5-0.3-1.8-1.1-2-2.9C44,42.7,44.3,42.4,44.8,42.3L44.8,42.3z M13.9,43.7
				c0,0-0.1,0.1-0.3,0.3c-1.2,1.9-1.3,4.6-0.6,5.4c0.3,0.4,0.9,0.6,1.3,0.4c0.7-0.3,1.1-1.8,0.9-2.3c-0.2-0.4-0.4-0.4-0.7-0.1
				c-0.5,1-0.7,0.3-0.8-0.3c-0.1-1.1,0-2.1,0.1-2.9C14,43.8,14,43.7,13.9,43.7L13.9,43.7z M53.6,46.1c-0.1,0-0.2,0-0.3,0.1
				c0,0-0.8,0.6-1.1,0.9c-0.2,0.1-0.1,0.2-0.1,0.4c0.1,0.3,0.3,0.2,0.6,0.1c0.3,0,0.5,0.2,0.5,0.6c-0.2,0.5,0.1,0.7,0.1,0.7
				c0,0,0.3,0.3,0.7,0.1c0.8-0.3,1.3-0.6,2.4-0.8c0.3,0,0.3-0.8-0.2-0.8c-0.6,0-1.2,0.1-1.8,0.5c-0.4,0.1-0.4-0.1-0.5-0.3
				c-0.1-0.5,0.2-0.9,0.1-1.2C54,46.3,53.8,46.1,53.6,46.1L53.6,46.1z M78.9,47.1c-0.1,0-0.3,0-0.5,0c-0.2,0.1-0.3,0.2-0.4,0.5
				c0,0.4,0.3,0.4,0.6,0.6c0.2,0.2,0.3,0.4,0,0.7c-0.3,0.2-0.5,0.4-0.7,0.6c-0.1,0.2-0.2,0.5,0.2,0.6c0.7,0.2,2.3-0.9,2.3-0.9
				c0.3-0.2,0.2-0.6,0.2-0.6c-0.2-0.2-0.5-0.1-0.7-0.1c-0.1,0-0.5-0.1-0.3-0.4c0.1-0.2,0.2-0.3,0.3-0.6c0.1-0.2,0-0.4-0.4-0.5
				C79.2,47.1,79.1,47.1,78.9,47.1L78.9,47.1z M68.3,68.5C68.3,68.5,68.3,68.5,68.3,68.5c-1.2,0.3-1.1,1.5-0.4,2.1
				c-12.4,0-31.4-0.2-35.5-0.2c-2.3,0-9.5-0.3-9.6-0.3c1.5,2.3,3.8,2.7,6.7,2.8c5.5,0,31-0.1,38.3-0.1c-0.5,0.9,0,2.4,0.5,2.7
				c0,0,0,0,0,0c0,0,0,0,0,0c0,0,0,0,0,0c0.5,0.1,0.7-0.2,0.9-0.5c0.8,0.1,5.2,0.1,5.6,0c0,0,0,0,0,0c0.3,0.4,0.5,0.8,1.1,0.7
				c0.9-0.2,1.6-0.3,1.6-2.1c0,0-0.1-3.1-2.1-2.9c-0.5,0.1-1.9,0.2-1.9,0.2c-1.6-0.2-2.7-0.2-4.5-0.3c0.2-0.2,0.5-1.1,0.1-1.4
				c-0.1-0.1-0.2-0.1-0.4-0.1c0,0,0,0,0,0c0,0,0,0,0,0c0,0,0,0,0,0c0,0,0,0,0,0c0,0,0,0,0,0c0,0,0,0,0,0
				C68.5,68.9,68.4,68.6,68.3,68.5C68.4,68.5,68.4,68.5,68.3,68.5C68.4,68.5,68.4,68.5,68.3,68.5C68.4,68.5,68.4,68.5,68.3,68.5
				C68.3,68.5,68.3,68.5,68.3,68.5C68.3,68.5,68.3,68.5,68.3,68.5L68.3,68.5z M69.2,73C69.2,73,69.2,73,69.2,73
				c1.8,0.1,3.5,0,5.3,0.1c0.3,0.2,0.1,0.8,0,0.9c0,0,0,0,0,0c0,0,0,0,0,0c0,0,0,0,0,0c-0.6,0-0.9,0-1.5,0c0,0,0-0.1,0-0.1
				c-0.1-0.4-1.1-0.4-1.4-0.1c0,0,0,0,0,0c0,0,0,0,0,0c0,0,0,0,0,0c0,0,0,0,0,0c0,0,0,0,0,0c-0.8,0.1-1.5,0-2.3-0.1
				C68.9,73.7,68.9,73.1,69.2,73L69.2,73z"/>
		</g>
	</g>
</g>
</svg>
