<?xml version="1.0" encoding="utf-8"?>
<!-- Generator: Adobe Illustrator 27.3.1, SVG Export Plug-In . SVG Version: 6.00 Build 0)  -->
<svg version="1.1" id="Layer_1" xmlns="http://www.w3.org/2000/svg" xmlns:xlink="http://www.w3.org/1999/xlink" x="0px" y="0px"
	 viewBox="0 0 100 100" style="enable-background:new 0 0 100 100;" xml:space="preserve">
<style type="text/css">
	.st0{fill:#F42F4C;}
	.st1{fill:#4F682E;}
</style>
<g>
	<circle class="st0" cx="50" cy="50" r="49.5"/>
	<path class="st1" d="M35.6,69.8l5.4-16.3L26.9,43.2h17.7L50,26.9l5.4,16.3h17.7L58.7,53.3l5.4,16.3L50,59.7L35.6,69.8 M53,57.6
		l4.5,3.1l-1.6-5.1L53,57.6 M44.2,55.6l-1.6,5.1l4.5-3.1L44.2,55.6 M45.4,52.1l4.6,3.3l4.6-3.3l-1.8-5.3H47L45.4,52.1 M38,46.9
		l4.5,3.1l1-3.1H38 M57.6,50l4.5-3.1h-5.4L57.6,50 M48.3,43.2h3.3L50,38.1L48.3,43.2"/>
</g>
</svg>
