<?xml version="1.0" encoding="utf-8"?>
<!-- Generator: Adobe Illustrator 27.3.1, SVG Export Plug-In . SVG Version: 6.00 Build 0)  -->
<svg version="1.1" id="Layer_1" xmlns="http://www.w3.org/2000/svg" xmlns:xlink="http://www.w3.org/1999/xlink" x="0px" y="0px"
	 viewBox="0 0 100 100" style="enable-background:new 0 0 100 100;" xml:space="preserve">
<style type="text/css">
	.st0{fill:#009900;}
	.st1{fill:#F3F4F5;}
	.st2{fill:#FF0000;}
</style>
<g transform="translate(1.4065934065934016 1.4065934065934016) scale(2.81 2.81)">
	<path class="st0" d="M0.7,11.4h33.2C31.5,4.6,25-0.3,17.3-0.3h0C9.6-0.3,3.1,4.6,0.7,11.4z"/>
	<path d="M33.9,23.2H0.7C3.1,30,9.6,34.9,17.3,34.9S31.5,30,33.9,23.2z"/>
	<path class="st1" d="M33.9,23.2c0.6-1.8,1-3.8,1-5.9s-0.4-4-1-5.9H0.7c-0.6,1.8-1,3.8-1,5.9s0.4,4,1,5.9H33.9z"/>
	<polygon class="st2" points="29.7,20.1 27.9,18.8 26,20.1 26.7,18 24.9,16.6 27.1,16.6 27.8,14.4 28.5,16.6 30.8,16.6 29,18 	"/>
	<path class="st2" d="M8.6,20.1l-1.8-1.3l-1.8,1.3L5.6,18l-1.8-1.3l2.2,0l0.7-2.2l0.7,2.2l2.2,0L7.9,18L8.6,20.1z"/>
	<polygon class="st2" points="19.1,20.1 17.3,18.8 15.5,20.1 16.2,18 14.3,16.6 16.6,16.6 17.3,14.4 18,16.6 20.2,16.6 18.4,18 	"/>
</g>
</svg>
