<?xml version="1.0" encoding="utf-8"?>
<!-- Generator: Adobe Illustrator 27.3.1, SVG Export Plug-In . SVG Version: 6.00 Build 0)  -->
<svg version="1.1" id="Layer_1" xmlns="http://www.w3.org/2000/svg" xmlns:xlink="http://www.w3.org/1999/xlink" x="0px" y="0px"
	 viewBox="0 0 100 100" style="enable-background:new 0 0 100 100;" xml:space="preserve">
<style type="text/css">
	.st0{fill:#EE0000;}
	.st1{fill:#FFFFFF;}
</style>
<g>
	<path class="st0" d="M99.2,44.9c-1.5-15-9.7-28-21.6-36c-0.7-0.4-1.3-0.9-2-1.3C68.2,3.1,59.4,0.5,50,0.5h0h0
		c-9.4,0-18.2,2.6-25.7,7.2c-0.7,0.4-1.3,0.8-2,1.3c-5.1,3.4-9.5,7.8-13,12.8c-0.3,0.4-0.6,0.8-0.9,1.3c-4.2,6.4-6.9,13.9-7.7,21.9
		c-0.2,1.7-0.3,3.4-0.3,5.1c0,9.4,2.6,18.2,7.2,25.7c0.8,1.4,1.7,2.7,2.7,3.9c3.8,5.1,8.6,9.4,14,12.7c7.5,4.5,16.3,7.2,25.7,7.2h0
		h0c9.4,0,18.2-2.6,25.7-7.2c5.4-3.3,10.2-7.6,14-12.7c1-1.3,1.8-2.6,2.7-3.9c4.5-7.5,7.2-16.3,7.2-25.7
		C99.5,48.3,99.4,46.6,99.2,44.9z"/>
	<g>
		<path class="st1" d="M50,16.8c18.4,0,33.2,14.9,33.2,33.2c0,18.3-14.9,33.2-33.2,33.2c-18.3,0-33.2-14.9-33.2-33.2
			C16.8,31.7,31.6,16.8,50,16.8z"/>
		<path class="st0" d="M56.6,69.9c-11,0-19.9-8.9-19.9-19.9c0-11,8.9-19.9,19.9-19.9c5.2,0,9.9,2,13.5,5.3
			C65.6,29.1,58.3,25.1,50,25.1c-13.8,0-24.9,11.2-24.9,24.9c0,13.8,11.2,24.9,24.9,24.9c8.3,0,15.6-4,20.1-10.2
			C66.6,67.9,61.8,69.9,56.6,69.9z"/>
		<polygon class="st0" points="62.4,50 68.7,41.2 58.4,44.6 52,35.8 52,46.6 41.7,50 52,53.4 52,64.2 58.4,55.4 68.7,58.8 		"/>
	</g>
</g>
</svg>
